<svg width="250" height="251" viewBox="0 0 250 251" fill="none" xmlns="http://www.w3.org/2000/svg">
<path d="M124.5 0L28 33.698L42.7186 158.645L124.5 203L206.281 158.645L221 33.698L124.5 0Z" fill="#DD0031"/>
<path d="M123 0V22.533V22.4315V125.251V203L206.053 158.645L221 33.698L123 0Z" fill="#C3002F"/>
<path d="M124.604 23L64 156H86.5964L98.7797 126.241H150.22L162.404 156H185L124.604 23ZM142.306 107.896H106.902L124.604 66.2123L142.306 107.896Z" fill="white"/>
<path d="M55.5938 208.898L44.2969 240H39.6797L52.6875 205.875H55.6641L55.5938 208.898ZM65.0625 240L53.7422 208.898L53.6719 205.875H56.6484L69.7031 240H65.0625ZM64.4766 227.367V231.07H45.3047V227.367H64.4766ZM77.9531 220.055V240H73.6172V214.641H77.7188L77.9531 220.055ZM76.9219 226.359L75.1172 226.289C75.1328 224.555 75.3906 222.953 75.8906 221.484C76.3906 220 77.0938 218.711 78 217.617C78.9062 216.523 79.9844 215.68 81.2344 215.086C82.5 214.477 83.8984 214.172 85.4297 214.172C86.6797 214.172 87.8047 214.344 88.8047 214.688C89.8047 215.016 90.6562 215.547 91.3594 216.281C92.0781 217.016 92.625 217.969 93 219.141C93.375 220.297 93.5625 221.711 93.5625 223.383V240H89.2031V223.336C89.2031 222.008 89.0078 220.945 88.6172 220.148C88.2266 219.336 87.6562 218.75 86.9062 218.391C86.1562 218.016 85.2344 217.828 84.1406 217.828C83.0625 217.828 82.0781 218.055 81.1875 218.508C80.3125 218.961 79.5547 219.586 78.9141 220.383C78.2891 221.18 77.7969 222.094 77.4375 223.125C77.0938 224.141 76.9219 225.219 76.9219 226.359ZM116.578 214.641H120.516V239.461C120.516 241.695 120.062 243.602 119.156 245.18C118.25 246.758 116.984 247.953 115.359 248.766C113.75 249.594 111.891 250.008 109.781 250.008C108.906 250.008 107.875 249.867 106.688 249.586C105.516 249.32 104.359 248.859 103.219 248.203C102.094 247.562 101.148 246.695 100.383 245.602L102.656 243.023C103.719 244.305 104.828 245.195 105.984 245.695C107.156 246.195 108.312 246.445 109.453 246.445C110.828 246.445 112.016 246.188 113.016 245.672C114.016 245.156 114.789 244.391 115.336 243.375C115.898 242.375 116.18 241.141 116.18 239.672V220.219L116.578 214.641ZM99.1172 227.602V227.109C99.1172 225.172 99.3438 223.414 99.7969 221.836C100.266 220.242 100.93 218.875 101.789 217.734C102.664 216.594 103.719 215.719 104.953 215.109C106.188 214.484 107.578 214.172 109.125 214.172C110.719 214.172 112.109 214.453 113.297 215.016C114.5 215.562 115.516 216.367 116.344 217.43C117.188 218.477 117.852 219.742 118.336 221.227C118.82 222.711 119.156 224.391 119.344 226.266V228.422C119.172 230.281 118.836 231.953 118.336 233.438C117.852 234.922 117.188 236.188 116.344 237.234C115.516 238.281 114.5 239.086 113.297 239.648C112.094 240.195 110.688 240.469 109.078 240.469C107.562 240.469 106.188 240.148 104.953 239.508C103.734 238.867 102.688 237.969 101.812 236.812C100.938 235.656 100.266 234.297 99.7969 232.734C99.3438 231.156 99.1172 229.445 99.1172 227.602ZM103.453 227.109V227.602C103.453 228.867 103.578 230.055 103.828 231.164C104.094 232.273 104.492 233.25 105.023 234.094C105.57 234.938 106.266 235.602 107.109 236.086C107.953 236.555 108.961 236.789 110.133 236.789C111.57 236.789 112.758 236.484 113.695 235.875C114.633 235.266 115.375 234.461 115.922 233.461C116.484 232.461 116.922 231.375 117.234 230.203V224.555C117.062 223.695 116.797 222.867 116.438 222.07C116.094 221.258 115.641 220.539 115.078 219.914C114.531 219.273 113.852 218.766 113.039 218.391C112.227 218.016 111.273 217.828 110.18 217.828C108.992 217.828 107.969 218.078 107.109 218.578C106.266 219.062 105.57 219.734 105.023 220.594C104.492 221.438 104.094 222.422 103.828 223.547C103.578 224.656 103.453 225.844 103.453 227.109ZM142.617 234.141V214.641H146.977V240H142.828L142.617 234.141ZM143.438 228.797L145.242 228.75C145.242 230.438 145.062 232 144.703 233.438C144.359 234.859 143.797 236.094 143.016 237.141C142.234 238.188 141.211 239.008 139.945 239.602C138.68 240.18 137.141 240.469 135.328 240.469C134.094 240.469 132.961 240.289 131.93 239.93C130.914 239.57 130.039 239.016 129.305 238.266C128.57 237.516 128 236.539 127.594 235.336C127.203 234.133 127.008 232.688 127.008 231V214.641H131.344V231.047C131.344 232.188 131.469 233.133 131.719 233.883C131.984 234.617 132.336 235.203 132.773 235.641C133.227 236.062 133.727 236.359 134.273 236.531C134.836 236.703 135.414 236.789 136.008 236.789C137.852 236.789 139.312 236.438 140.391 235.734C141.469 235.016 142.242 234.055 142.711 232.852C143.195 231.633 143.438 230.281 143.438 228.797ZM158.297 204V240H153.938V204H158.297ZM180.211 235.664V222.609C180.211 221.609 180.008 220.742 179.602 220.008C179.211 219.258 178.617 218.68 177.82 218.273C177.023 217.867 176.039 217.664 174.867 217.664C173.773 217.664 172.812 217.852 171.984 218.227C171.172 218.602 170.531 219.094 170.062 219.703C169.609 220.312 169.383 220.969 169.383 221.672H165.047C165.047 220.766 165.281 219.867 165.75 218.977C166.219 218.086 166.891 217.281 167.766 216.562C168.656 215.828 169.719 215.25 170.953 214.828C172.203 214.391 173.594 214.172 175.125 214.172C176.969 214.172 178.594 214.484 180 215.109C181.422 215.734 182.531 216.68 183.328 217.945C184.141 219.195 184.547 220.766 184.547 222.656V234.469C184.547 235.312 184.617 236.211 184.758 237.164C184.914 238.117 185.141 238.938 185.438 239.625V240H180.914C180.695 239.5 180.523 238.836 180.398 238.008C180.273 237.164 180.211 236.383 180.211 235.664ZM180.961 224.625L181.008 227.672H176.625C175.391 227.672 174.289 227.773 173.32 227.977C172.352 228.164 171.539 228.453 170.883 228.844C170.227 229.234 169.727 229.727 169.383 230.32C169.039 230.898 168.867 231.578 168.867 232.359C168.867 233.156 169.047 233.883 169.406 234.539C169.766 235.195 170.305 235.719 171.023 236.109C171.758 236.484 172.656 236.672 173.719 236.672C175.047 236.672 176.219 236.391 177.234 235.828C178.25 235.266 179.055 234.578 179.648 233.766C180.258 232.953 180.586 232.164 180.633 231.398L182.484 233.484C182.375 234.141 182.078 234.867 181.594 235.664C181.109 236.461 180.461 237.227 179.648 237.961C178.852 238.68 177.898 239.281 176.789 239.766C175.695 240.234 174.461 240.469 173.086 240.469C171.367 240.469 169.859 240.133 168.562 239.461C167.281 238.789 166.281 237.891 165.562 236.766C164.859 235.625 164.508 234.352 164.508 232.945C164.508 231.586 164.773 230.391 165.305 229.359C165.836 228.312 166.602 227.445 167.602 226.758C168.602 226.055 169.805 225.523 171.211 225.164C172.617 224.805 174.188 224.625 175.922 224.625H180.961ZM195.703 218.625V240H191.367V214.641H195.586L195.703 218.625ZM203.625 214.5L203.602 218.531C203.242 218.453 202.898 218.406 202.57 218.391C202.258 218.359 201.898 218.344 201.492 218.344C200.492 218.344 199.609 218.5 198.844 218.812C198.078 219.125 197.43 219.562 196.898 220.125C196.367 220.688 195.945 221.359 195.633 222.141C195.336 222.906 195.141 223.75 195.047 224.672L193.828 225.375C193.828 223.844 193.977 222.406 194.273 221.062C194.586 219.719 195.062 218.531 195.703 217.5C196.344 216.453 197.156 215.641 198.141 215.062C199.141 214.469 200.328 214.172 201.703 214.172C202.016 214.172 202.375 214.211 202.781 214.289C203.188 214.352 203.469 214.422 203.625 214.5Z" fill="url(#paint0_linear_301_117)"/>
<defs>
<linearGradient id="paint0_linear_301_117" x1="39" y1="219" x2="208.558" y2="219" gradientUnits="userSpaceOnUse">
<stop stop-color="#DD0031"/>
<stop offset="1" stop-color="#C3002F"/>
</linearGradient>
</defs>
</svg>
