<svg width="250" height="250" viewBox="0 0 250 250" fill="none" xmlns="http://www.w3.org/2000/svg">
<path d="M49.9884 228.901L35 46L214 46.3676L198.151 228.901L125.176 250L49.9884 228.901Z" fill="#1B73BA"/>
<path d="M125 232V63L199 63.2452L185.804 214.45L125 232Z" fill="#1C88C7"/>
<path d="M181 85H67L70.0883 107.018H124.185L70.9532 129.65L74.04 150.935H152.47L149.628 180.661L123.073 185.799L98.9899 179.683L97.1366 162.801H75.0283L77.9918 197.911L125.42 211L170.873 196.688L176.678 128.059H128.63L180.999 106.529L181 85Z" fill="white"/>
<path d="M103.625 24.8906H109.484C109.297 27.125 108.672 29.1172 107.609 30.8672C106.547 32.6016 105.055 33.9688 103.133 34.9688C101.211 35.9688 98.875 36.4688 96.125 36.4688C94.0156 36.4688 92.1172 36.0938 90.4297 35.3438C88.7422 34.5781 87.2969 33.5 86.0938 32.1094C84.8906 30.7031 83.9688 29.0078 83.3281 27.0234C82.7031 25.0391 82.3906 22.8203 82.3906 20.3672V17.5312C82.3906 15.0781 82.7109 12.8594 83.3516 10.875C84.0078 8.89062 84.9453 7.19531 86.1641 5.78906C87.3828 4.36719 88.8438 3.28125 90.5469 2.53125C92.2656 1.78125 94.1953 1.40625 96.3359 1.40625C99.0547 1.40625 101.352 1.90625 103.227 2.90625C105.102 3.90625 106.555 5.28906 107.586 7.05469C108.633 8.82031 109.273 10.8438 109.508 13.125H103.648C103.492 11.6562 103.148 10.3984 102.617 9.35156C102.102 8.30469 101.336 7.50781 100.32 6.96094C99.3047 6.39844 97.9766 6.11719 96.3359 6.11719C94.9922 6.11719 93.8203 6.36719 92.8203 6.86719C91.8203 7.36719 90.9844 8.10156 90.3125 9.07031C89.6406 10.0391 89.1328 11.2344 88.7891 12.6562C88.4609 14.0625 88.2969 15.6719 88.2969 17.4844V20.3672C88.2969 22.0859 88.4453 23.6484 88.7422 25.0547C89.0547 26.4453 89.5234 27.6406 90.1484 28.6406C90.7891 29.6406 91.6016 30.4141 92.5859 30.9609C93.5703 31.5078 94.75 31.7812 96.125 31.7812C97.7969 31.7812 99.1484 31.5156 100.18 30.9844C101.227 30.4531 102.016 29.6797 102.547 28.6641C103.094 27.6328 103.453 26.375 103.625 24.8906ZM132.781 27.2109C132.781 26.5078 132.672 25.8828 132.453 25.3359C132.25 24.7891 131.883 24.2891 131.352 23.8359C130.82 23.3828 130.07 22.9453 129.102 22.5234C128.148 22.0859 126.93 21.6406 125.445 21.1875C123.82 20.6875 122.32 20.1328 120.945 19.5234C119.586 18.8984 118.398 18.1797 117.383 17.3672C116.367 16.5391 115.578 15.5938 115.016 14.5312C114.453 13.4531 114.172 12.2109 114.172 10.8047C114.172 9.41406 114.461 8.14844 115.039 7.00781C115.633 5.86719 116.469 4.88281 117.547 4.05469C118.641 3.21094 119.93 2.5625 121.414 2.10938C122.898 1.64062 124.539 1.40625 126.336 1.40625C128.867 1.40625 131.047 1.875 132.875 2.8125C134.719 3.75 136.133 5.00781 137.117 6.58594C138.117 8.16406 138.617 9.90625 138.617 11.8125H132.781C132.781 10.6875 132.539 9.69531 132.055 8.83594C131.586 7.96094 130.867 7.27344 129.898 6.77344C128.945 6.27344 127.734 6.02344 126.266 6.02344C124.875 6.02344 123.719 6.23438 122.797 6.65625C121.875 7.07812 121.188 7.64844 120.734 8.36719C120.281 9.08594 120.055 9.89844 120.055 10.8047C120.055 11.4453 120.203 12.0312 120.5 12.5625C120.797 13.0781 121.25 13.5625 121.859 14.0156C122.469 14.4531 123.234 14.8672 124.156 15.2578C125.078 15.6484 126.164 16.0234 127.414 16.3828C129.305 16.9453 130.953 17.5703 132.359 18.2578C133.766 18.9297 134.938 19.6953 135.875 20.5547C136.812 21.4141 137.516 22.3906 137.984 23.4844C138.453 24.5625 138.688 25.7891 138.688 27.1641C138.688 28.6016 138.398 29.8984 137.82 31.0547C137.242 32.1953 136.414 33.1719 135.336 33.9844C134.273 34.7812 132.992 35.3984 131.492 35.8359C130.008 36.2578 128.352 36.4688 126.523 36.4688C124.883 36.4688 123.266 36.25 121.672 35.8125C120.094 35.375 118.656 34.7109 117.359 33.8203C116.062 32.9141 115.031 31.7891 114.266 30.4453C113.5 29.0859 113.117 27.5 113.117 25.6875H119C119 26.7969 119.188 27.7422 119.562 28.5234C119.953 29.3047 120.492 29.9453 121.18 30.4453C121.867 30.9297 122.664 31.2891 123.57 31.5234C124.492 31.7578 125.477 31.875 126.523 31.875C127.898 31.875 129.047 31.6797 129.969 31.2891C130.906 30.8984 131.609 30.3516 132.078 29.6484C132.547 28.9453 132.781 28.1328 132.781 27.2109ZM161.844 27.2109C161.844 26.5078 161.734 25.8828 161.516 25.3359C161.312 24.7891 160.945 24.2891 160.414 23.8359C159.883 23.3828 159.133 22.9453 158.164 22.5234C157.211 22.0859 155.992 21.6406 154.508 21.1875C152.883 20.6875 151.383 20.1328 150.008 19.5234C148.648 18.8984 147.461 18.1797 146.445 17.3672C145.43 16.5391 144.641 15.5938 144.078 14.5312C143.516 13.4531 143.234 12.2109 143.234 10.8047C143.234 9.41406 143.523 8.14844 144.102 7.00781C144.695 5.86719 145.531 4.88281 146.609 4.05469C147.703 3.21094 148.992 2.5625 150.477 2.10938C151.961 1.64062 153.602 1.40625 155.398 1.40625C157.93 1.40625 160.109 1.875 161.938 2.8125C163.781 3.75 165.195 5.00781 166.18 6.58594C167.18 8.16406 167.68 9.90625 167.68 11.8125H161.844C161.844 10.6875 161.602 9.69531 161.117 8.83594C160.648 7.96094 159.93 7.27344 158.961 6.77344C158.008 6.27344 156.797 6.02344 155.328 6.02344C153.938 6.02344 152.781 6.23438 151.859 6.65625C150.938 7.07812 150.25 7.64844 149.797 8.36719C149.344 9.08594 149.117 9.89844 149.117 10.8047C149.117 11.4453 149.266 12.0312 149.562 12.5625C149.859 13.0781 150.312 13.5625 150.922 14.0156C151.531 14.4531 152.297 14.8672 153.219 15.2578C154.141 15.6484 155.227 16.0234 156.477 16.3828C158.367 16.9453 160.016 17.5703 161.422 18.2578C162.828 18.9297 164 19.6953 164.938 20.5547C165.875 21.4141 166.578 22.3906 167.047 23.4844C167.516 24.5625 167.75 25.7891 167.75 27.1641C167.75 28.6016 167.461 29.8984 166.883 31.0547C166.305 32.1953 165.477 33.1719 164.398 33.9844C163.336 34.7812 162.055 35.3984 160.555 35.8359C159.07 36.2578 157.414 36.4688 155.586 36.4688C153.945 36.4688 152.328 36.25 150.734 35.8125C149.156 35.375 147.719 34.7109 146.422 33.8203C145.125 32.9141 144.094 31.7891 143.328 30.4453C142.562 29.0859 142.18 27.5 142.18 25.6875H148.062C148.062 26.7969 148.25 27.7422 148.625 28.5234C149.016 29.3047 149.555 29.9453 150.242 30.4453C150.93 30.9297 151.727 31.2891 152.633 31.5234C153.555 31.7578 154.539 31.875 155.586 31.875C156.961 31.875 158.109 31.6797 159.031 31.2891C159.969 30.8984 160.672 30.3516 161.141 29.6484C161.609 28.9453 161.844 28.1328 161.844 27.2109Z" fill="url(#paint0_linear_302_7)"/>
<defs>
<linearGradient id="paint0_linear_302_7" x1="80" y1="25" x2="170" y2="25" gradientUnits="userSpaceOnUse">
<stop stop-color="#1B73BA"/>
<stop offset="1" stop-color="#1C88C7"/>
</linearGradient>
</defs>
</svg>
