<svg width="569" height="212" viewBox="0 0 569 212" fill="none" xmlns="http://www.w3.org/2000/svg">
<rect width="569" height="212" fill="#B1B1B1"/>
<path opacity="0.962" fill-rule="evenodd" clip-rule="evenodd" d="M64.3635 61C78.6039 61 92.8443 61 107.085 61C107.085 63.3315 107.085 65.663 107.085 67.9946C92.829 67.6131 78.5886 67.0303 64.3635 66.2459C64.3635 64.4973 64.3635 62.7486 64.3635 61Z" fill="#0065D2"/>
<path opacity="0.991" fill-rule="evenodd" clip-rule="evenodd" d="M114.693 61.5828C128.924 62.3595 143.164 62.9424 157.414 63.3314C157.414 66.2458 157.414 69.1602 157.414 72.0746C143.189 71.245 128.949 70.4678 114.693 69.7431C114.693 67.023 114.693 64.3029 114.693 61.5828Z" fill="#003C9F"/>
<path opacity="0.99" fill-rule="evenodd" clip-rule="evenodd" d="M64.3635 66.2456C78.5886 67.0299 92.829 67.6128 107.085 67.9942C107.085 69.16 107.085 70.3258 107.085 71.4915C92.8456 71.0582 78.6052 70.6695 64.3635 70.3258C64.3635 68.9657 64.3635 67.6056 64.3635 66.2456Z" fill="#0062CF"/>
<path opacity="0.989" fill-rule="evenodd" clip-rule="evenodd" d="M114.693 69.7432C128.949 70.4679 143.189 71.2451 157.414 72.0747C157.414 72.4633 157.414 72.8518 157.414 73.2404C143.177 72.5733 128.937 71.9904 114.693 71.4918C114.693 70.9089 114.693 70.326 114.693 69.7432Z" fill="#003EA2"/>
<path opacity="0.97" fill-rule="evenodd" clip-rule="evenodd" d="M64.3635 70.3262C78.6052 70.67 92.8456 71.0586 107.085 71.4919C107.085 72.852 107.085 74.2121 107.085 75.5721C97.7212 75.5721 88.3576 75.5721 78.9941 75.5721C78.9941 76.7379 78.9941 77.9036 78.9941 79.0694C74.1005 79.1657 69.2237 78.9713 64.3635 78.4865C64.3635 75.7664 64.3635 73.0463 64.3635 70.3262Z" fill="#0060CC"/>
<path opacity="0.973" fill-rule="evenodd" clip-rule="evenodd" d="M114.693 71.4917C128.937 71.9903 143.177 72.5732 157.414 73.2403C157.414 76.349 157.414 79.4577 157.414 82.5664C152.535 82.4019 147.659 82.2076 142.783 81.9835C142.783 79.8463 142.783 77.7091 142.783 75.5719C138.296 75.5719 133.81 75.5719 129.323 75.5719C129.323 77.5148 129.323 79.4577 129.323 81.4007C124.453 81.0773 119.576 80.883 114.693 80.8178C114.693 77.7091 114.693 74.6004 114.693 71.4917Z" fill="#0041A5"/>
<path opacity="0.965" fill-rule="evenodd" clip-rule="evenodd" d="M64.3635 78.4863C69.2237 78.9712 74.1005 79.1655 78.9941 79.0692C78.9941 80.0407 78.9941 81.0121 78.9941 81.9836C74.1414 81.4549 69.2645 81.2606 64.3635 81.4007C64.3635 80.4292 64.3635 79.4578 64.3635 78.4863Z" fill="#005CC8"/>
<path opacity="0.917" fill-rule="evenodd" clip-rule="evenodd" d="M468.166 79.652C475.471 79.1609 477.617 82.1725 474.604 88.6866C467.835 91.2598 464.811 89.0254 465.533 81.9835C466.351 81.0682 467.228 80.291 468.166 79.652Z" fill="#061240"/>
<path opacity="0.975" fill-rule="evenodd" clip-rule="evenodd" d="M114.693 80.8179C119.576 80.8831 124.453 81.0774 129.323 81.4008C129.323 81.7894 129.323 82.1779 129.323 82.5665C124.43 82.6628 119.553 82.4685 114.693 81.9836C114.693 81.595 114.693 81.2065 114.693 80.8179Z" fill="#0043A9"/>
<path opacity="0.971" fill-rule="evenodd" clip-rule="evenodd" d="M64.3635 81.401C69.2645 81.2608 74.1414 81.4551 78.9941 81.9839C78.9941 85.0925 78.9941 88.2013 78.9941 91.3099C74.1005 91.4062 69.2237 91.2119 64.3635 90.7271C64.3635 87.6184 64.3635 84.5096 64.3635 81.401Z" fill="#0059C4"/>
<path opacity="0.969" fill-rule="evenodd" clip-rule="evenodd" d="M114.693 81.9839C119.553 82.4687 124.43 82.6631 129.323 82.5668C129.323 85.4812 129.323 88.3956 129.323 91.31C124.428 90.9388 119.551 90.5502 114.693 90.1442C114.693 87.4241 114.693 84.704 114.693 81.9839Z" fill="#0046AB"/>
<path opacity="0.972" fill-rule="evenodd" clip-rule="evenodd" d="M142.783 81.9839C147.659 82.2079 152.535 82.4022 157.414 82.5668C157.414 83.1496 157.414 83.7325 157.414 84.3154C152.537 83.9268 147.66 83.5383 142.783 83.1496C142.783 82.761 142.783 82.3725 142.783 81.9839Z" fill="#0043A9"/>
<path opacity="0.938" fill-rule="evenodd" clip-rule="evenodd" d="M221.203 82.5664C228.762 81.5787 235.2 83.716 240.515 88.9781C239.173 91.1897 237.514 93.1326 235.541 94.8069C227.996 88.9521 220.974 89.535 214.473 96.5555C210.859 103.381 210.469 110.376 213.302 117.539C217.987 125.424 224.425 127.368 232.615 123.368C232.907 120.071 233.005 116.768 232.907 113.459C229.786 113.459 226.665 113.459 223.544 113.459C223.544 110.933 223.544 108.407 223.544 105.882C229.396 105.882 235.248 105.882 241.1 105.882C241.198 113.267 241.1 120.651 240.808 128.031C236.314 131.921 231.047 133.864 225.007 133.86C209.885 132.101 202.18 123.552 201.891 108.213C201.846 94.6622 208.283 86.1132 221.203 82.5664Z" fill="#061240"/>
<path opacity="0.971" fill-rule="evenodd" clip-rule="evenodd" d="M142.783 83.1494C147.66 83.538 152.537 83.9266 157.414 84.3152C157.414 87.0353 157.414 89.7554 157.414 92.4755C152.551 92.0161 147.674 91.8219 142.783 91.8926C142.783 88.9782 142.783 86.0638 142.783 83.1494Z" fill="#0046AB"/>
<path opacity="0.972" fill-rule="evenodd" clip-rule="evenodd" d="M114.693 90.1438C119.551 90.5498 124.428 90.9384 129.323 91.3096C129.323 92.4753 129.323 93.6411 129.323 94.8068C124.43 94.9031 119.553 94.7088 114.693 94.224C114.693 92.8639 114.693 91.5038 114.693 90.1438Z" fill="#0049AF"/>
<path opacity="0.969" fill-rule="evenodd" clip-rule="evenodd" d="M64.3635 90.7271C69.2237 91.2119 74.1005 91.4062 78.9941 91.3099C78.9941 94.6129 78.9941 97.9159 78.9941 101.219C74.1213 100.942 69.2445 100.747 64.3635 100.636C64.3635 100.247 64.3635 99.8589 64.3635 99.4703C64.3635 96.5559 64.3635 93.6415 64.3635 90.7271Z" fill="#0055BE"/>
<path opacity="0.97" fill-rule="evenodd" clip-rule="evenodd" d="M142.783 91.8928C147.674 91.8221 152.551 92.0163 157.414 92.4757C157.414 93.8357 157.414 95.1958 157.414 96.5559C152.555 96.1499 147.679 95.7613 142.783 95.3901C142.783 94.2244 142.783 93.0586 142.783 91.8928Z" fill="#0049AF"/>
<path opacity="0.867" fill-rule="evenodd" clip-rule="evenodd" d="M114.693 94.2241C119.553 94.709 124.43 94.9033 129.323 94.807C129.323 95.9728 129.323 97.1385 129.323 98.3043C124.447 98.3043 119.569 98.3043 114.693 98.3043C114.693 96.9442 114.693 95.5842 114.693 94.2241Z" fill="#004BB1"/>
<path opacity="0.928" fill-rule="evenodd" clip-rule="evenodd" d="M261.583 94.8069C271.883 93.3719 278.223 97.6464 280.603 107.63C280.895 110.733 280.993 113.842 280.896 116.956C273.093 116.956 265.29 116.956 257.487 116.956C258.325 123.015 261.836 126.123 268.021 126.282C270.843 126.155 273.477 125.378 275.921 123.951C276.373 124.035 276.763 124.229 277.092 124.534C277.821 126.183 278.699 127.737 279.725 129.197C271.744 134.956 263.551 135.248 255.146 130.071C248.907 123.992 246.859 116.706 249.001 108.213C250.709 101.365 254.903 96.8965 261.583 94.8069ZM264.509 101.801C270.056 102.08 272.787 104.995 272.703 110.545C267.63 110.545 262.559 110.545 257.487 110.545C258.03 106.141 260.371 103.227 264.509 101.801Z" fill="#061240"/>
<path opacity="0.931" fill-rule="evenodd" clip-rule="evenodd" d="M305.475 94.807C314.491 93.5885 319.465 97.4744 320.398 106.465C320.691 115.206 320.788 123.949 320.691 132.694C317.57 132.694 314.448 132.694 311.327 132.694C311.425 124.143 311.327 115.594 311.035 107.048C310.586 104.244 308.928 102.69 306.06 102.384C302.843 102.966 300.21 104.521 298.16 107.048C297.867 115.594 297.769 124.143 297.867 132.694C294.746 132.694 291.625 132.694 288.504 132.694C288.504 120.26 288.504 107.825 288.504 95.3899C291.069 95.2001 293.605 95.3945 296.111 95.9728C296.529 97.2994 296.821 98.6595 296.989 100.053C299.55 97.7633 302.379 96.0147 305.475 94.807Z" fill="#061240"/>
<path opacity="0.932" fill-rule="evenodd" clip-rule="evenodd" d="M341.759 94.8069C351.734 93.3066 357.879 97.3867 360.193 107.047C360.485 110.345 360.583 113.648 360.486 116.956C352.673 116.763 344.871 116.957 337.077 117.539C338.488 123.029 342 125.943 347.611 126.282C350.664 125.879 353.59 125.198 356.39 124.242C357.586 125.75 358.561 127.402 359.316 129.197C352.155 134.333 344.547 135.013 336.492 131.237C332.489 128.418 329.856 124.629 328.591 119.871C326.576 110.884 329.015 103.403 335.907 97.4299C337.847 96.3633 339.798 95.489 341.759 94.8069ZM344.1 101.801C349.643 101.687 352.569 104.407 352.878 109.962C347.626 110.544 342.359 110.738 337.077 110.545C337.712 106.226 340.052 103.311 344.1 101.801Z" fill="#061240"/>
<path opacity="0.919" fill-rule="evenodd" clip-rule="evenodd" d="M383.895 94.807C386.05 94.7106 388.195 94.8078 390.332 95.0984C390.875 95.3245 391.266 95.7131 391.503 96.2642C390.94 98.4806 390.453 100.715 390.04 102.967C384.105 101.943 380.009 104.275 377.75 109.962C377.457 117.537 377.36 125.114 377.457 132.694C374.336 132.694 371.215 132.694 368.094 132.694C368.094 120.26 368.094 107.825 368.094 95.3899C370.825 95.3899 373.556 95.3899 376.287 95.3899C376.19 97.3424 376.288 99.2854 376.579 101.219C378.409 98.3276 380.848 96.1903 383.895 94.807Z" fill="#061240"/>
<path opacity="0.928" fill-rule="evenodd" clip-rule="evenodd" d="M404.377 94.807C408.128 94.6221 411.835 94.9135 415.496 95.6813C419.774 98.0053 422.212 101.6 422.812 106.465C423.104 115.206 423.202 123.949 423.104 132.694C420.569 132.694 418.032 132.694 415.496 132.694C415.387 131.491 415.094 130.325 414.619 129.197C410.098 133.128 404.928 134.391 399.11 132.986C392.591 129.304 390.738 123.96 393.551 116.956C396.474 113.312 400.278 111.078 404.962 110.253C407.873 109.641 410.799 109.155 413.741 108.796C413.123 103.137 410.002 101.097 404.377 102.676C401.809 103.275 399.468 104.344 397.355 105.882C395.63 104.002 394.558 101.865 394.136 99.4701C397.315 97.2867 400.728 95.7323 404.377 94.807ZM413.156 114.625C415.812 121.323 413.568 125.209 406.425 126.283C402.162 126.115 400.602 123.978 401.744 119.871C405.044 116.934 408.848 115.185 413.156 114.625Z" fill="#061240"/>
<path opacity="0.929" fill-rule="evenodd" clip-rule="evenodd" d="M495.672 94.807C499.423 94.6221 503.13 94.9135 506.792 95.6813C511.332 98.077 513.77 101.866 514.107 107.048C514.399 115.594 514.497 124.143 514.399 132.694C511.834 132.884 509.298 132.69 506.792 132.111C506.409 131.17 506.116 130.198 505.914 129.197C500.486 133.855 494.537 134.729 488.064 131.82C482.379 126.368 481.989 120.539 486.894 114.334C492.472 111.025 498.519 109.179 505.036 108.796C504.418 103.137 501.297 101.097 495.672 102.676C493.104 103.275 490.763 104.344 488.65 105.882C486.936 104.022 485.863 101.885 485.431 99.4701C488.61 97.2867 492.023 95.7323 495.672 94.807ZM504.451 114.625C505.122 117.237 505.22 119.957 504.743 122.785C501.32 126.428 497.516 127.011 493.331 124.534C492.456 122.383 492.651 120.343 493.917 118.414C497.224 116.43 500.736 115.167 504.451 114.625Z" fill="#061240"/>
<path opacity="0.985" fill-rule="evenodd" clip-rule="evenodd" d="M142.783 95.3899C147.679 95.7611 152.555 96.1497 157.414 96.5557C157.414 97.5271 157.414 98.4986 157.414 99.4701C157.414 100.247 157.414 101.024 157.414 101.802C158.029 101.714 158.615 101.812 159.169 102.093C161.288 104.114 163.629 105.765 166.192 107.047C166.192 108.019 166.192 108.99 166.192 109.962C163.196 108.05 160.27 106.01 157.414 103.842C152.517 103.691 147.641 103.399 142.783 102.967C142.783 100.442 142.783 97.9157 142.783 95.3899Z" fill="#004CB2"/>
<path opacity="0.921" fill-rule="evenodd" clip-rule="evenodd" d="M431.883 95.3899C440.856 95.3899 449.83 95.3899 458.803 95.3899C458.9 97.3425 458.802 99.2854 458.511 101.219C452.951 109.088 447.391 116.956 441.832 124.825C447.68 125.117 453.533 125.214 459.388 125.117C459.388 127.642 459.388 130.169 459.388 132.694C449.635 132.694 439.881 132.694 430.127 132.694C430.031 130.742 430.128 128.799 430.42 126.865C435.899 119.174 441.263 111.402 446.514 103.55C441.652 102.969 436.775 102.774 431.883 102.967C431.883 100.442 431.883 97.9157 431.883 95.3899Z" fill="#061240"/>
<path opacity="0.923" fill-rule="evenodd" clip-rule="evenodd" d="M465.826 95.3899C468.947 95.3899 472.068 95.3899 475.189 95.3899C475.189 107.825 475.189 120.26 475.189 132.694C472.068 132.694 468.947 132.694 465.826 132.694C465.826 120.26 465.826 107.825 465.826 95.3899Z" fill="#061240"/>
<path opacity="0.992" fill-rule="evenodd" clip-rule="evenodd" d="M55 99.4702C55.5852 99.4702 56.1704 99.4702 56.7557 99.4702C59.1273 101.442 61.6633 103.191 64.3635 104.716C64.4573 105.707 64.3597 106.678 64.0709 107.631C61.0826 105.223 58.0589 102.892 55 100.636C55 100.247 55 99.8588 55 99.4702Z" fill="#0055BE"/>
<path fill-rule="evenodd" clip-rule="evenodd" d="M56.7557 99.4702C57.9262 99.4702 59.0966 99.4702 60.2671 99.4702C61.4665 100.664 62.8321 101.635 64.3636 102.385C64.3636 102.579 64.3636 102.773 64.3636 102.967C64.3636 103.55 64.3636 104.133 64.3636 104.716C61.6633 103.191 59.1274 101.442 56.7557 99.4702Z" fill="#0059C4"/>
<path fill-rule="evenodd" clip-rule="evenodd" d="M60.267 99.4702C61.6325 99.4702 62.998 99.4702 64.3635 99.4702C64.3635 99.8588 64.3635 100.247 64.3635 100.636C64.3635 101.219 64.3635 101.802 64.3635 102.385C62.832 101.635 61.4664 100.664 60.267 99.4702Z" fill="#005ECA"/>
<path opacity="0.99" fill-rule="evenodd" clip-rule="evenodd" d="M157.414 99.4702C157.804 99.4702 158.194 99.4702 158.584 99.4702C160.992 101.548 163.528 103.491 166.192 105.299C166.192 105.882 166.192 106.465 166.192 107.048C163.629 105.765 161.288 104.114 159.169 102.093C158.615 101.812 158.029 101.715 157.414 101.802C157.414 101.025 157.414 100.247 157.414 99.4702Z" fill="#0046AC"/>
<path opacity="0.969" fill-rule="evenodd" clip-rule="evenodd" d="M158.584 99.4702C159.755 99.4702 160.925 99.4702 162.096 99.4702C163.284 100.649 164.65 101.621 166.192 102.385C166.192 103.356 166.192 104.328 166.192 105.299C163.528 103.491 160.992 101.548 158.584 99.4702Z" fill="#0042A6"/>
<path opacity="0.923" fill-rule="evenodd" clip-rule="evenodd" d="M162.096 99.4702C163.461 99.4702 164.827 99.4702 166.192 99.4702C166.192 100.442 166.192 101.413 166.192 102.385C164.65 101.621 163.284 100.649 162.096 99.4702Z" fill="#003D9F"/>
<path opacity="0.972" fill-rule="evenodd" clip-rule="evenodd" d="M64.3635 100.636C69.2445 100.747 74.1213 100.942 78.9941 101.219C78.9941 101.996 78.9941 102.773 78.9941 103.55C74.1029 103.621 69.226 103.427 64.3635 102.968C64.3635 102.773 64.3635 102.579 64.3635 102.385C64.3635 101.802 64.3635 101.219 64.3635 100.636Z" fill="#0052BA"/>
<path opacity="0.972" fill-rule="evenodd" clip-rule="evenodd" d="M55 100.636C58.0589 102.892 61.0826 105.223 64.0709 107.631C64.3597 106.678 64.4573 105.707 64.3635 104.716C64.3635 104.133 64.3635 103.55 64.3635 102.968C69.226 103.427 74.1029 103.621 78.9941 103.55C78.9941 105.882 78.9941 108.213 78.9941 110.545C74.1095 110.417 69.2326 110.126 64.3635 109.671C61.1219 107.574 58.0008 105.339 55 102.968C55 102.19 55 101.413 55 100.636Z" fill="#004FB7"/>
<path opacity="0.971" fill-rule="evenodd" clip-rule="evenodd" d="M55 102.967C58.0008 105.339 61.1219 107.573 64.3635 109.67C69.2326 110.126 74.1095 110.417 78.9941 110.545C78.9941 113.071 78.9941 115.596 78.9941 118.122C74.1214 117.845 69.2445 117.651 64.3635 117.539C64.3635 116.374 64.3635 115.208 64.3635 114.042C64.4917 113.357 64.2967 112.774 63.7783 112.293C60.9389 110.008 58.0128 107.871 55 105.882C55 104.91 55 103.939 55 102.967Z" fill="#004CB2"/>
<path opacity="0.991" fill-rule="evenodd" clip-rule="evenodd" d="M142.783 102.967C147.641 103.399 152.517 103.691 157.414 103.842C160.27 106.01 163.196 108.05 166.192 109.962C166.192 110.739 166.192 111.516 166.192 112.293C163.309 110.591 160.577 108.648 157.999 106.465C157.021 107.636 156.631 108.996 156.829 110.545C152.139 110.505 147.457 110.311 142.783 109.962C142.783 107.63 142.783 105.299 142.783 102.967Z" fill="#004FB7"/>
<path opacity="0.955" fill-rule="evenodd" clip-rule="evenodd" d="M55 105.882C58.0128 107.871 60.9389 110.008 63.7783 112.293C64.2967 112.774 64.4917 113.357 64.3635 114.042C63.9734 114.042 63.5833 114.042 63.1931 114.042C60.6387 111.892 57.9077 109.949 55 108.213C55 107.436 55 106.659 55 105.882Z" fill="#0046AB"/>
<path opacity="0.873" fill-rule="evenodd" clip-rule="evenodd" d="M55 108.213C57.9077 109.949 60.6387 111.892 63.1931 114.042C61.8276 114.042 60.4621 114.042 59.0966 114.042C57.8636 112.744 56.4981 111.578 55 110.545C55 109.768 55 108.99 55 108.213Z" fill="#0042A6"/>
<path opacity="0.99" fill-rule="evenodd" clip-rule="evenodd" d="M142.783 109.962C147.457 110.311 152.139 110.505 156.829 110.545C156.829 111.322 156.829 112.099 156.829 112.876C152.115 113.034 147.433 112.839 142.783 112.293C142.783 111.516 142.783 110.739 142.783 109.962Z" fill="#0052BA"/>
<path opacity="0.736" fill-rule="evenodd" clip-rule="evenodd" d="M55 110.545C56.4981 111.579 57.8636 112.744 59.0966 114.042C57.731 114.042 56.3655 114.042 55 114.042C55 112.876 55 111.711 55 110.545Z" fill="#003C9F"/>
<path opacity="0.974" fill-rule="evenodd" clip-rule="evenodd" d="M166.192 112.293C166.192 112.876 166.192 113.459 166.192 114.042C165.607 114.042 165.022 114.042 164.436 114.042C162.393 112.094 160.15 110.345 157.706 108.796C157.42 109.55 157.322 110.327 157.414 111.128C157.414 112.099 157.414 113.071 157.414 114.042C157.414 116.956 157.414 119.871 157.414 122.785C152.528 122.76 147.652 122.566 142.783 122.202C142.783 118.899 142.783 115.596 142.783 112.293C147.433 112.839 152.115 113.034 156.829 112.876C156.829 112.099 156.829 111.322 156.829 110.545C156.631 108.996 157.021 107.636 157.999 106.465C160.577 108.648 163.309 110.591 166.192 112.293Z" fill="#0055BE"/>
<path opacity="0.792" fill-rule="evenodd" clip-rule="evenodd" d="M157.414 111.128C158.956 111.892 160.322 112.863 161.51 114.042C160.145 114.042 158.779 114.042 157.414 114.042C157.414 113.071 157.414 112.099 157.414 111.128Z" fill="#005ECA"/>
<path opacity="0.969" fill-rule="evenodd" clip-rule="evenodd" d="M164.436 114.042C163.461 114.042 162.486 114.042 161.51 114.042C160.322 112.863 158.956 111.892 157.414 111.128C157.322 110.327 157.42 109.55 157.706 108.796C160.15 110.345 162.393 112.094 164.436 114.042Z" fill="#0059C4"/>
<path opacity="0.868" fill-rule="evenodd" clip-rule="evenodd" d="M107.085 119.288C102.218 118.888 97.3414 118.694 92.4542 118.705C92.4542 117.345 92.4542 115.985 92.4542 114.625C97.3311 114.625 102.208 114.625 107.085 114.625C107.085 116.179 107.085 117.733 107.085 119.288Z" fill="#004BB2"/>
<path opacity="0.969" fill-rule="evenodd" clip-rule="evenodd" d="M64.3635 117.539C69.2445 117.651 74.1213 117.845 78.9941 118.122C78.9941 119.482 78.9941 120.842 78.9941 122.202C74.1316 121.743 69.2547 121.549 64.3635 121.619C64.3635 120.26 64.3635 118.899 64.3635 117.539Z" fill="#0049AF"/>
<path opacity="0.969" fill-rule="evenodd" clip-rule="evenodd" d="M92.4542 118.705C97.3414 118.694 102.218 118.889 107.085 119.288C107.085 120.648 107.085 122.008 107.085 123.368C102.24 122.82 97.3629 122.626 92.4542 122.785C92.4542 121.425 92.4542 120.065 92.4542 118.705Z" fill="#0049AF"/>
<path opacity="0.97" fill-rule="evenodd" clip-rule="evenodd" d="M64.3635 121.619C69.2547 121.549 74.1316 121.743 78.9941 122.202C78.9941 124.923 78.9941 127.642 78.9941 130.363C74.1213 130.085 69.2445 129.891 64.3635 129.78C64.3635 127.059 64.3635 124.34 64.3635 121.619Z" fill="#0046AB"/>
<path opacity="0.969" fill-rule="evenodd" clip-rule="evenodd" d="M142.783 122.202C147.652 122.566 152.528 122.76 157.414 122.785C157.414 126.088 157.414 129.391 157.414 132.694C152.547 132.295 147.67 132.101 142.783 132.111C142.783 128.808 142.783 125.506 142.783 122.202Z" fill="#0059C4"/>
<path opacity="0.97" fill-rule="evenodd" clip-rule="evenodd" d="M92.4542 122.785C97.3629 122.626 102.24 122.82 107.085 123.368C107.085 126.088 107.085 128.808 107.085 131.528C102.22 131.097 97.3433 130.903 92.4542 130.946C92.4542 128.225 92.4542 125.506 92.4542 122.785Z" fill="#0046AB"/>
<path opacity="0.976" fill-rule="evenodd" clip-rule="evenodd" d="M64.3635 129.78C69.2445 129.891 74.1213 130.085 78.9941 130.363C78.9941 130.751 78.9941 131.14 78.9941 131.528C74.0853 131.688 69.2085 131.493 64.3635 130.946C64.3635 130.557 64.3635 130.169 64.3635 129.78Z" fill="#0043A9"/>
<path opacity="0.967" fill-rule="evenodd" clip-rule="evenodd" d="M64.3635 130.946C69.2085 131.494 74.0853 131.688 78.9941 131.529C78.9941 133.471 78.9941 135.415 78.9941 137.357C83.4808 137.357 87.9675 137.357 92.4542 137.357C92.4542 135.609 92.4542 133.86 92.4542 132.112C97.3167 132.571 102.194 132.765 107.085 132.694C107.085 135.803 107.085 138.912 107.085 142.021C92.7978 141.72 78.5574 141.137 64.3635 140.272C64.3635 137.163 64.3635 134.054 64.3635 130.946Z" fill="#0041A5"/>
<path opacity="0.976" fill-rule="evenodd" clip-rule="evenodd" d="M92.4542 130.945C97.3433 130.903 102.22 131.097 107.085 131.528C107.085 131.917 107.085 132.305 107.085 132.694C102.194 132.764 97.3167 132.57 92.4542 132.111C92.4542 131.722 92.4542 131.334 92.4542 130.945Z" fill="#0043A9"/>
<path opacity="0.972" fill-rule="evenodd" clip-rule="evenodd" d="M142.783 132.111C147.67 132.101 152.547 132.295 157.414 132.694C157.414 133.471 157.414 134.249 157.414 135.026C152.531 134.96 147.653 134.766 142.783 134.443C142.783 133.666 142.783 132.888 142.783 132.111Z" fill="#005CC8"/>
<path opacity="0.955" fill-rule="evenodd" clip-rule="evenodd" d="M142.783 134.443C147.654 134.766 152.531 134.96 157.414 135.026C157.465 137.962 157.27 140.876 156.829 143.769C142.595 143.035 128.355 142.452 114.107 142.02C114.107 140.466 114.107 138.912 114.107 137.357C123.666 137.357 133.225 137.357 142.783 137.357C142.783 136.386 142.783 135.415 142.783 134.443Z" fill="#0060CC"/>
<path opacity="0.987" fill-rule="evenodd" clip-rule="evenodd" d="M64.3635 140.272C78.5574 141.137 92.7978 141.72 107.085 142.02C107.085 142.603 107.085 143.186 107.085 143.769C92.8522 143.052 78.6118 142.469 64.3635 142.02C64.3635 141.437 64.3635 140.855 64.3635 140.272Z" fill="#003EA2"/>
<path opacity="0.736" fill-rule="evenodd" clip-rule="evenodd" d="M387.991 141.438C389.909 141.272 391.762 141.466 393.551 142.02C393.989 142.682 393.892 143.265 393.258 143.769C391.227 142.054 389.472 142.248 387.991 144.352C389.277 145.528 390.838 146.208 392.673 146.392C394.722 147.847 394.917 149.498 393.258 151.346C391.112 152.123 388.967 152.123 386.821 151.346C386.302 150.866 386.107 150.283 386.235 149.598C387.597 149.694 388.865 150.082 390.039 150.764C390.981 150.386 391.859 149.901 392.673 149.306C390.936 147.896 388.985 146.828 386.821 146.101C385.932 144.2 386.322 142.646 387.991 141.438Z" fill="black"/>
<path opacity="0.739" fill-rule="evenodd" clip-rule="evenodd" d="M398.525 141.438C404.871 140.855 407.31 143.576 405.84 149.598C402.524 152.706 399.208 152.706 395.891 149.598C394.49 146.111 395.368 143.391 398.525 141.438ZM400.281 142.603C404.048 143.306 405.218 145.443 403.792 149.015C401.841 151.347 399.89 151.347 397.94 149.015C396.7 146.07 397.48 143.933 400.281 142.603Z" fill="black"/>
<path opacity="0.809" fill-rule="evenodd" clip-rule="evenodd" d="M408.474 141.437C409.059 141.437 409.645 141.437 410.23 141.437C410.23 144.351 410.23 147.266 410.23 150.18C412.18 150.18 414.131 150.18 416.082 150.18C416.082 150.763 416.082 151.346 416.082 151.929C413.546 151.929 411.01 151.929 408.474 151.929C408.474 148.432 408.474 144.934 408.474 141.437Z" fill="black"/>
<path opacity="0.707" fill-rule="evenodd" clip-rule="evenodd" d="M416.667 141.437C417.252 141.437 417.837 141.437 418.423 141.437C418.242 144.216 418.534 146.936 419.3 149.597C420.586 150.898 421.951 150.898 423.397 149.597C423.689 146.884 423.787 144.164 423.69 141.437C424.47 141.437 425.25 141.437 426.03 141.437C426.128 143.97 426.03 146.496 425.738 149.014C423.822 152.068 421.188 152.747 417.837 151.055C417.471 150.617 417.178 150.131 416.96 149.597C416.668 146.884 416.57 144.164 416.667 141.437Z" fill="black"/>
<path opacity="0.725" fill-rule="evenodd" clip-rule="evenodd" d="M426.616 141.438C429.761 141.246 432.882 141.441 435.979 142.02C434.87 142.584 433.699 142.778 432.468 142.603C432.468 145.712 432.468 148.821 432.468 151.929C431.688 151.929 430.907 151.929 430.127 151.929C430.127 148.821 430.127 145.712 430.127 142.603C428.616 142.88 427.446 142.491 426.616 141.438Z" fill="black"/>
<path opacity="0.633" fill-rule="evenodd" clip-rule="evenodd" d="M436.565 141.437C437.345 141.437 438.125 141.437 438.906 141.437C438.906 144.934 438.906 148.432 438.906 151.929C438.125 151.929 437.345 151.929 436.565 151.929C436.565 148.432 436.565 144.934 436.565 141.437Z" fill="black"/>
<path opacity="0.739" fill-rule="evenodd" clip-rule="evenodd" d="M443.587 141.438C449.934 140.855 452.372 143.576 450.903 149.598C447.586 152.706 444.27 152.706 440.954 149.598C439.553 146.111 440.431 143.391 443.587 141.438ZM445.343 142.603C449.11 143.306 450.281 145.443 448.854 149.015C446.904 151.347 444.953 151.347 443.002 149.015C441.763 146.07 442.543 143.933 445.343 142.603Z" fill="black"/>
<path opacity="0.737" fill-rule="evenodd" clip-rule="evenodd" d="M453.536 141.437C454.152 141.35 454.737 141.447 455.292 141.729C456.95 143.769 458.608 145.809 460.266 147.849C460.558 145.72 460.655 143.583 460.559 141.437C461.339 141.437 462.12 141.437 462.9 141.437C462.9 144.935 462.9 148.432 462.9 151.929C462.096 152.021 461.315 151.923 460.559 151.638C458.901 149.598 457.242 147.558 455.584 145.517C455.292 147.646 455.195 149.783 455.292 151.929C454.707 151.929 454.121 151.929 453.536 151.929C453.536 148.432 453.536 144.935 453.536 141.437Z" fill="black"/>
<path opacity="0.713" fill-rule="evenodd" clip-rule="evenodd" d="M467.582 142.02C468.288 141.273 469.069 141.273 469.922 142.02C470.835 144.421 471.908 146.752 473.141 149.015C474.158 146.659 475.23 144.327 476.36 142.02C477.076 141.371 477.856 141.273 478.701 141.729C477.162 144.891 475.699 148.097 474.312 151.346C473.518 151.859 472.64 152.054 471.678 151.929C470.646 148.447 469.28 145.144 467.582 142.02Z" fill="black"/>
<path opacity="0.72" fill-rule="evenodd" clip-rule="evenodd" d="M481.627 141.437C487.864 140.363 490.497 142.889 489.527 149.014C488.474 151.191 486.718 152.163 484.26 151.929C479.497 151.588 477.741 149.063 478.993 144.351C479.593 143.077 480.471 142.105 481.627 141.437ZM483.968 142.603C487.548 143.517 488.621 145.654 487.186 149.014C484.002 151.357 481.759 150.58 480.456 146.683C480.833 144.565 482.003 143.205 483.968 142.603Z" fill="black"/>
<path opacity="0.633" fill-rule="evenodd" clip-rule="evenodd" d="M491.575 141.437C492.356 141.437 493.136 141.437 493.916 141.437C493.916 144.934 493.916 148.432 493.916 151.929C493.136 151.929 492.356 151.929 491.575 151.929C491.575 148.432 491.575 144.934 491.575 141.437Z" fill="black"/>
<path opacity="0.721" fill-rule="evenodd" clip-rule="evenodd" d="M498.598 141.438C500.965 141.122 503.111 141.607 505.035 142.895C503.83 144.51 502.562 144.413 501.231 142.603C497.355 143.805 496.478 146.137 498.598 149.598C500.556 151.095 502.409 150.9 504.157 149.015C505.104 149.619 505.202 150.299 504.45 151.055C498.773 153.239 495.75 151.393 495.379 145.518C495.928 143.712 497.001 142.352 498.598 141.438Z" fill="black"/>
<path opacity="0.82" fill-rule="evenodd" clip-rule="evenodd" d="M506.791 141.437C509.357 141.247 511.892 141.442 514.399 142.02C512.685 142.594 510.93 142.788 509.132 142.603C509.132 143.769 509.132 144.935 509.132 146.1C515.374 146.489 515.374 146.877 509.132 147.266C509.132 148.432 509.132 149.598 509.132 150.763C511.12 150.577 513.072 150.771 514.984 151.346C512.28 151.925 509.55 152.12 506.791 151.929C506.791 148.432 506.791 144.935 506.791 141.437Z" fill="black"/>
<path opacity="0.987" fill-rule="evenodd" clip-rule="evenodd" d="M64.3635 142.021C78.6118 142.469 92.8522 143.052 107.085 143.769C107.085 146.489 107.085 149.209 107.085 151.929C104.744 151.929 102.403 151.929 100.062 151.929C88.261 151.185 76.3615 150.602 64.3635 150.181C64.3635 147.461 64.3635 144.741 64.3635 142.021Z" fill="#003C9F"/>
<path opacity="0.99" fill-rule="evenodd" clip-rule="evenodd" d="M114.107 142.021C128.355 142.452 142.595 143.035 156.829 143.769C156.829 144.935 156.829 146.101 156.829 147.266C142.589 146.667 128.349 146.084 114.107 145.518C114.107 144.352 114.107 143.186 114.107 142.021Z" fill="#0062CF"/>
<path opacity="0.972" fill-rule="evenodd" clip-rule="evenodd" d="M114.107 145.518C128.349 146.084 142.589 146.666 156.829 147.266C156.829 148.821 156.829 150.375 156.829 151.929C142.588 151.929 128.348 151.929 114.107 151.929C114.107 149.792 114.107 147.655 114.107 145.518Z" fill="#0064D2"/>
</svg>
