<svg width="250" height="250" viewBox="0 0 250 250" fill="none" xmlns="http://www.w3.org/2000/svg">
<path d="M149.445 108.449C143.952 108.449 139.853 111.137 139.853 117.587C139.853 122.453 142.557 125.848 149.16 125.848C154.767 125.848 158.553 122.566 158.553 117.389C158.553 111.533 155.137 108.449 149.445 108.449ZM138.43 154.111C137.121 155.696 135.84 157.393 135.84 159.373C135.84 163.334 140.935 164.551 147.936 164.551C153.742 164.551 161.626 164.155 161.626 158.779C161.626 155.582 157.813 155.384 153.031 155.101L138.43 154.111ZM168.059 108.76C169.852 111.052 171.759 114.22 171.759 118.804C171.759 129.837 163.049 136.288 150.469 136.288C147.253 136.288 144.379 135.892 142.557 135.382L139.227 140.673L149.018 141.267C166.323 142.37 176.512 142.851 176.512 156.092C176.512 167.521 166.408 174 149.018 174C130.916 174 124 169.417 124 161.58C124 157.11 125.992 154.734 129.493 151.424C126.192 150.037 125.082 147.548 125.082 144.86C125.082 142.682 126.192 140.673 127.985 138.806C129.778 136.91 131.77 135.015 134.189 132.836C129.294 130.46 125.594 125.282 125.594 117.927C125.594 106.497 133.193 98.6319 148.506 98.6319C152.803 98.6319 155.422 99.028 157.699 99.6221H177.195V108.081L168.059 108.76ZM194.841 90.6821C189.149 90.6821 185.847 87.4003 185.847 81.742C185.847 76.0838 189.149 73 194.841 73C200.647 73 203.949 76.0838 203.949 81.742C203.949 87.4003 200.647 90.6821 194.841 90.6821ZM181.948 150.433V142.568L187.043 141.889C188.437 141.691 188.637 141.38 188.637 139.909V110.684C188.637 109.581 188.323 108.902 187.327 108.59L181.92 106.695L183.03 98.6319H203.75V139.909C203.75 141.493 203.835 141.691 205.344 141.889L210.438 142.597V150.433H181.948ZM250 146.586C245.702 148.679 239.384 150.575 233.691 150.575C221.794 150.575 217.298 145.794 217.298 134.562V108.506C217.298 107.911 217.298 107.515 216.501 107.515H209.499V98.6602C218.294 97.67 221.794 93.2849 222.904 82.4493H232.411V96.5667C232.411 97.2739 232.411 97.5569 233.208 97.5569H247.296V107.487H232.382V131.252C232.382 137.108 233.777 139.4 239.185 139.4C242.002 139.4 244.877 138.692 247.296 137.815L250 146.586Z" fill="#413932"/>
<path d="M103.014 120.836L57.1794 74.9899C54.5268 72.3367 50.2485 72.3367 47.6245 74.9899L38.0982 84.5185L50.163 96.5861C53.0722 95.5876 56.2667 96.3579 58.4343 98.4976C60.602 100.666 61.3436 103.889 60.3453 106.799L71.9823 118.439C74.8059 117.469 78.0574 118.097 80.2821 120.351C83.4196 123.489 83.4196 128.595 80.2821 131.734C77.1447 134.872 72.0393 134.872 68.9019 131.734C66.5916 129.423 65.9071 125.971 67.162 122.975L56.3237 112.134V140.692C57.1223 141.091 57.8354 141.604 58.4629 142.204C61.6003 145.342 61.6003 150.448 58.4629 153.587C55.3254 156.725 50.22 156.725 47.0826 153.587C43.9452 150.448 43.9452 145.342 47.0826 142.204C47.8242 141.462 48.7369 140.863 49.7066 140.435V111.621C48.7084 111.221 47.8242 110.622 47.0826 109.852C44.7153 107.484 44.1163 103.975 45.3428 101.065L33.4491 89.1687L1.98941 120.607C-0.663135 123.26 -0.663135 127.54 1.98941 130.164L47.8242 176.01C50.4767 178.663 54.755 178.663 57.379 176.01L102.986 130.393C105.667 127.74 105.667 123.46 103.014 120.836Z" fill="#F74E27"/>
</svg>
