<svg width="250" height="250" viewBox="0 0 250 250" fill="none" xmlns="http://www.w3.org/2000/svg">
<path d="M89.0156 16.125V20.7891H70.8984V16.125H89.0156ZM72.3516 1.875V36H66.4688V1.875H72.3516ZM93.5391 1.875V36H87.6797V1.875H93.5391ZM113.883 1.875V36H108.047V1.875H113.883ZM124.594 1.875V6.5625H97.4297V1.875H124.594ZM131.484 1.875H136.734L146.602 28.1953L156.445 1.875H161.695L148.664 36H144.492L131.484 1.875ZM129.094 1.875H134.086L134.953 24.6562V36H129.094V1.875ZM159.094 1.875H164.109V36H158.227V24.6562L159.094 1.875ZM192.469 31.3359V36H175.336V31.3359H192.469ZM176.977 1.875V36H171.094V1.875H176.977Z" fill="url(#paint0_linear_302_8)"/>
<path d="M49.9884 228.901L35 46L214 46.3675L198.151 228.901L125.176 250L49.9884 228.901Z" fill="#E34F26"/>
<path d="M125 232V64L199 64.2437L185.804 214.552L125 232Z" fill="#EF652A"/>
<path d="M177.92 105.315L180 83H67L73.2432 151.415H151.23L148.171 180.594L123.196 187.336L97.8534 179.981L96.5069 162.571H74.1005L77.1617 198.127L123.194 211L169.594 198.127L175.837 128.732H93.9348L91.6088 105.315H177.92Z" fill="white"/>
<defs>
<linearGradient id="paint0_linear_302_8" x1="63" y1="25" x2="199" y2="25" gradientUnits="userSpaceOnUse">
<stop stop-color="#E34F26"/>
<stop offset="1" stop-color="#EF652A"/>
</linearGradient>
</defs>
</svg>
