<svg width="250" height="250" viewBox="0 0 250 250" fill="none" xmlns="http://www.w3.org/2000/svg">
<path d="M115.508 27.7578V3.875H121.367V27.7578C121.367 30.0234 120.883 31.9531 119.914 33.5469C118.945 35.1406 117.625 36.3594 115.953 37.2031C114.281 38.0469 112.383 38.4688 110.258 38.4688C108.086 38.4688 106.156 38.1016 104.469 37.3672C102.797 36.6328 101.484 35.5078 100.531 33.9922C99.5781 32.4766 99.1016 30.5547 99.1016 28.2266H105.008C105.008 29.5703 105.219 30.6562 105.641 31.4844C106.078 32.2969 106.688 32.8906 107.469 33.2656C108.266 33.625 109.195 33.8047 110.258 33.8047C111.273 33.8047 112.172 33.5781 112.953 33.125C113.75 32.6562 114.375 31.9766 114.828 31.0859C115.281 30.1797 115.508 29.0703 115.508 27.7578ZM146.094 29.2109C146.094 28.5078 145.984 27.8828 145.766 27.3359C145.562 26.7891 145.195 26.2891 144.664 25.8359C144.133 25.3828 143.383 24.9453 142.414 24.5234C141.461 24.0859 140.242 23.6406 138.758 23.1875C137.133 22.6875 135.633 22.1328 134.258 21.5234C132.898 20.8984 131.711 20.1797 130.695 19.3672C129.68 18.5391 128.891 17.5938 128.328 16.5312C127.766 15.4531 127.484 14.2109 127.484 12.8047C127.484 11.4141 127.773 10.1484 128.352 9.00781C128.945 7.86719 129.781 6.88281 130.859 6.05469C131.953 5.21094 133.242 4.5625 134.727 4.10938C136.211 3.64062 137.852 3.40625 139.648 3.40625C142.18 3.40625 144.359 3.875 146.188 4.8125C148.031 5.75 149.445 7.00781 150.43 8.58594C151.43 10.1641 151.93 11.9063 151.93 13.8125H146.094C146.094 12.6875 145.852 11.6953 145.367 10.8359C144.898 9.96094 144.18 9.27344 143.211 8.77344C142.258 8.27344 141.047 8.02344 139.578 8.02344C138.188 8.02344 137.031 8.23438 136.109 8.65625C135.188 9.07812 134.5 9.64844 134.047 10.3672C133.594 11.0859 133.367 11.8984 133.367 12.8047C133.367 13.4453 133.516 14.0312 133.812 14.5625C134.109 15.0781 134.562 15.5625 135.172 16.0156C135.781 16.4531 136.547 16.8672 137.469 17.2578C138.391 17.6484 139.477 18.0234 140.727 18.3828C142.617 18.9453 144.266 19.5703 145.672 20.2578C147.078 20.9297 148.25 21.6953 149.188 22.5547C150.125 23.4141 150.828 24.3906 151.297 25.4844C151.766 26.5625 152 27.7891 152 29.1641C152 30.6016 151.711 31.8984 151.133 33.0547C150.555 34.1953 149.727 35.1719 148.648 35.9844C147.586 36.7812 146.305 37.3984 144.805 37.8359C143.32 38.2578 141.664 38.4688 139.836 38.4688C138.195 38.4688 136.578 38.25 134.984 37.8125C133.406 37.375 131.969 36.7109 130.672 35.8203C129.375 34.9141 128.344 33.7891 127.578 32.4453C126.812 31.0859 126.43 29.5 126.43 27.6875H132.312C132.312 28.7969 132.5 29.7422 132.875 30.5234C133.266 31.3047 133.805 31.9453 134.492 32.4453C135.18 32.9297 135.977 33.2891 136.883 33.5234C137.805 33.7578 138.789 33.875 139.836 33.875C141.211 33.875 142.359 33.6797 143.281 33.2891C144.219 32.8984 144.922 32.3516 145.391 31.6484C145.859 30.9453 146.094 30.1328 146.094 29.2109Z" fill="#E9CA32"/>
<path d="M50.0721 228.901L35 46L215 46.3675L199.063 228.901L125.679 250L50.0721 228.901Z" fill="#E9CA32"/>
<path d="M126 232V64L199 64.2437L185.982 214.552L126 232Z" fill="#FFDE25"/>
<path d="M117.29 83.4756H97.8001V195.903L82.6414 193.02V177.885L64.5955 175.003V208.875L117.29 222.568V83.4756ZM131.91 83.4756H185.864L182.255 105.024H152.507V140.385H182.255L178.646 211.758L131.91 222.568V200.227L163.487 189.416L165.311 159.868L131.91 164.697V83.4756Z" fill="white"/>
</svg>
