<svg width="569" height="212" viewBox="0 0 569 212" fill="none" xmlns="http://www.w3.org/2000/svg">
<rect width="569" height="212" fill="white"/>
<path fill-rule="evenodd" clip-rule="evenodd" d="M114.669 66C110.485 66 107.345 68.453 107.345 71.8757C107.345 75.2956 110.41 77.8977 114.669 77.8977C118.85 77.8977 121.915 75.2956 121.915 71.8757C121.915 68.453 118.853 66 114.669 66ZM59 125.853V71.038H72.075V114.773H101.511V125.85L59 125.853ZM108.243 125.853H120.945V83.0763H108.243V125.853ZM203.731 125.853V99.6792C203.731 87.7843 198.201 81.0881 188.117 81.0881C180.569 81.0881 175.636 84.5108 173.096 91.7235C171.081 84.9584 166.151 81.0909 159.051 81.0909C151.876 81.0909 147.095 84.4362 144.481 91.9472V82.8726H131.931V125.85H144.558V103.615C144.558 96.5549 147.844 91.7206 153.521 91.7206C158.753 91.7206 161.516 95.5134 161.516 101.312V125.85H174.143V102.353C174.143 96.1073 177.134 91.7206 182.96 91.7206C188.34 91.7206 191.03 95.588 191.03 102.356V125.853H203.731ZM224.139 99.6792H247.674C247.077 94.1019 243.117 90.9058 236.318 90.9058C229.445 90.9058 225.261 94.4748 224.139 99.6792ZM258.433 106.373H223.99C225.41 112.988 231.31 116.93 240.801 116.93C246.585 116.953 252.23 115.157 256.938 111.798V121.616C252.455 124.886 245.358 127.193 237.888 127.193C221.748 127.193 211.362 117.599 211.362 103.77C211.362 91.1296 220.554 81.0909 236.02 81.0909C250.587 81.0909 258.433 88.9721 258.433 101.762V106.373ZM264.79 111.577V121.317C270.693 125.185 278.092 127.193 285.636 127.193C298.488 127.193 305.883 121.466 305.883 113.138C305.883 105.555 300.953 101.986 292.808 100.351L284.29 98.4914C279.808 97.5217 277.865 96.4085 277.865 94.251C277.865 91.7981 280.631 90.1627 286.532 90.1627C293.405 90.1627 299.308 92.3919 303.492 95.2208V85.8449C299.383 83.2427 293.333 81.0881 285.338 81.0881C272.711 81.0881 265.014 86.4416 265.014 94.2482C265.014 100.198 268.526 104.287 278.163 106.668L287.654 108.897C292.062 110.016 292.733 111.795 292.733 113.508C292.733 116.259 290.122 117.969 284.664 117.969C277.641 117.969 270.171 115.743 264.79 111.577ZM360.881 101.613V125.856H348.179V104.439C348.179 95.8892 344.815 91.798 337.942 91.798C330.394 91.798 326.511 96.7815 326.511 104.14V125.853H313.884V73.4451L326.511 67.8276V92.4637C329.574 84.8034 335.029 81.0881 343.248 81.0881C354.53 81.0881 360.881 88.3753 360.881 101.61V101.613ZM389.653 106C395.479 106 399.368 108.676 399.368 112.469C399.368 116.337 395.255 119.237 389.504 119.237C383.899 119.237 380.613 116.483 380.613 112.547C380.613 108.751 383.899 106 389.653 106ZM411.768 125.853V102.505C411.768 88.6766 403.251 81.0909 388.833 81.0909C380.688 81.0909 375.009 83.6931 370.899 86.6683V97.1516C374.71 93.4334 379.417 91.4251 385.171 91.4251C393.241 91.4251 399.216 95.4417 399.29 103.618V105.331C396.228 101.24 391.447 99.1599 385.096 99.1599C375.009 99.1599 368.658 105.107 368.658 113.138C368.658 121.171 374.785 127.342 384.425 127.342C391.223 127.342 396.377 124.886 399.368 120.055V125.853H411.768ZM453.39 83.8394V95.4388C451.748 94.2482 449.28 93.4305 446.218 93.4305C439.345 93.4305 434.635 98.1156 434.635 108.08V125.85H421.936V82.8755H434.489V94.5523C436.581 85.9969 441.064 82.0549 447.116 82.0549C449.805 82.0549 451.897 82.798 453.39 83.8394ZM485.299 91.3505C493.068 91.3505 497.927 96.8504 497.927 104.066C497.927 111.425 492.993 116.928 485.075 116.928C477.229 116.928 472.445 111.499 472.445 104.287C472.445 96.9278 477.453 91.3476 485.299 91.3476V91.3505ZM490.304 127.19C501.959 127.19 511.151 117.82 511.151 103.917C511.151 90.9775 503.23 81.0881 490.976 81.0881C481.563 81.0881 475.286 85.6986 472.597 92.9858V82.8697H459.97V145.652L472.597 139.974V116.999C475.883 123.469 482.01 127.184 490.304 127.184V127.19Z" fill="black"/>
</svg>
