<svg width="216" height="182" viewBox="0 0 216 182" fill="none" xmlns="http://www.w3.org/2000/svg">
<path d="M194.082 137.167H100.744H97.7272C90.6431 137.167 84.8958 131.42 84.8958 124.33C84.8958 117.911 89.6107 112.607 95.7643 111.659H126.177C137.87 111.659 147.351 102.182 147.351 90.4895C147.351 78.7965 137.87 69.3196 126.177 69.3196H100.744H97.7272C90.6431 69.3196 84.8958 63.5703 84.8958 56.4843C84.8958 49.5847 90.3389 43.9728 97.1639 43.6724H194.082C206.144 43.6724 215.919 33.8953 215.919 21.8372C215.919 9.77716 206.144 -4.69587e-06 194.082 -4.69587e-06H100.744H97.0186H90.7118C40.6109 -4.69587e-06 0.000549316 40.6123 0.000549316 90.7113C0.000549316 140.81 40.6109 181.423 90.7118 181.423H100.744V180.842H194.082C206.144 180.842 215.919 171.066 215.919 159.006C215.919 146.944 206.144 137.167 194.082 137.167Z" fill="white"/>
<path d="M95.6882 111.165L95.726 111.159H95.7643H126.177C137.594 111.159 146.851 101.906 146.851 90.4895C146.851 79.0728 137.594 69.8196 126.177 69.8196H100.744H97.7272C90.3669 69.8196 84.3958 63.8463 84.3958 56.4843C84.3958 49.315 90.0517 43.4849 97.1419 43.1729L97.1529 43.1724H97.1639H194.082C205.868 43.1724 215.419 33.6191 215.419 21.8372C215.419 10.0533 205.868 0.5 194.082 0.5H100.744H97.0186H90.7118C40.887 0.5 0.500549 40.8884 0.500549 90.7113C0.500549 140.534 40.887 180.923 90.7118 180.923H100.244V180.842V180.342H100.744H194.082C205.868 180.342 215.419 170.79 215.419 159.006C215.419 147.22 205.868 137.667 194.082 137.667H100.744H97.7272C90.3669 137.667 84.3958 131.696 84.3958 124.33C84.3958 117.66 89.2953 112.15 95.6882 111.165Z" stroke="#102A42" stroke-opacity="0.35"/>
<path d="M97.0181 0.0001698H90.7113C40.6123 0.0001698 0 40.6105 0 90.7115C0 118.443 12.4605 143.252 32.0698 159.894C33.8305 116.765 50.2187 33.1574 146.613 0.0001698H100.744H97.0181Z" fill="#0688FF"/>
<path d="M42.2027 67.0396C42.2027 45.2692 47.4475 24.7294 56.736 6.60405C23.4747 20.0538 0.000427246 52.632 0.000427246 90.7122C0.000427246 140.811 40.6108 181.421 90.7117 181.421H100.744V180.842H106.58C68.0148 157.596 42.2027 115.35 42.2027 67.0396Z" fill="#0C99FF"/>
<path d="M198.943 90.186C198.943 102.044 189.333 111.656 177.473 111.656C165.615 111.656 156.001 102.044 156.001 90.186C156.001 78.3301 165.615 68.7158 177.473 68.7158C189.333 68.7158 198.943 78.3301 198.943 90.186Z" fill="#0C99FF"/>
</svg>
