<svg width="395.52" viewBox="2 -35.5 123.38999938964844 36.29999923706055" height="116.34826580226901" data-palette-color="#0063db"><path d="M30.5-6.9L28.8 0 2 0 2-1.4 3.7-1.4Q5.15-1.4 5.63-1.95 6.1-2.5 6.1-3.7L6.1-3.7 6.1-31.3Q6.1-32.3 5.48-32.95 4.85-33.6 3.7-33.6L3.7-33.6 2-33.6 2-35 28.4-35 28.8-28.1 27.4-27.8Q27.4-29.6 25.95-31.25 24.5-32.9 21.9-32.9L21.9-32.9 12.8-32.9Q11.3-32.9 10.85-32.33 10.4-31.75 10.4-30.7L10.4-30.7 10.4-19.3 20.4-19.3Q21.15-19.3 21.55-19.38 21.95-19.45 22.28-19.9 22.6-20.35 22.6-21.2L22.6-21.2 22.6-23.5 24.1-23.5 24.1-13.1 22.6-13.1 22.6-15.2Q22.6-16.45 22.05-16.82 21.5-17.2 20.4-17.2L20.4-17.2 10.4-17.2 10.4-4.3Q10.4-3.25 10.85-2.68 11.3-2.1 12.8-2.1L12.8-2.1 22.3-2.1Q24.95-2.1 26.98-3.8 29-5.5 29.1-7.1L29.1-7.1 30.5-6.9ZM50.7-32.2L42.4-31.7 42.4-4.5Q45.3-2.8 50.3-2.8L50.3-2.8Q56.25-2.8 60.8-6.05L60.8-6.05Q63.1-7.7 64.45-10.65 65.8-13.6 65.8-17.32 65.8-21.05 64.32-23.95 62.85-26.85 60.5-28.6L60.5-28.6Q55.75-32.2 50.7-32.2L50.7-32.2ZM34-35L41.7-35 54.1-35.5Q61.05-35.5 65.07-31 69.1-26.5 69.1-18.98 69.1-11.45 63.32-5.73 57.55 0 49.8 0L49.8 0 34 0 34-1.5 35.7-1.5Q37.2-1.5 37.65-2.05 38.1-2.6 38.1-3.7L38.1-3.7 38.1-31.3Q38.1-32.45 37.62-32.98 37.15-33.5 35.7-33.5L35.7-33.5 34-33.5 34-35ZM85.6-1.4L85.6 0 72.9 0 72.9-1.4 74.6-1.4Q76.1-1.4 76.55-2 77-2.6 77-3.7L77-3.7 77-31.3Q77-32.4 76.55-33 76.1-33.6 74.6-33.6L74.6-33.6 72.9-33.6 72.9-35 85.6-35 85.6-33.6 83.7-33.6Q82.2-33.6 81.75-33 81.3-32.4 81.3-31.3L81.3-31.3 81.3-3.7Q81.3-2.6 81.75-2 82.2-1.4 83.7-1.4L83.7-1.4 85.6-1.4ZM118.69 0.8L118.69 0.8 96.59-28.8 96.59-3.7Q96.59-1.5 99.69-1.5L99.69-1.5 101.59-1.5 101.59 0 89.59 0 89.59-1.5 91.19-1.5Q94.29-1.5 94.29-3.7L94.29-3.7 94.29-31.3Q94.29-33.5 91.19-33.5L91.19-33.5 89.59-33.5 89.59-35 97.49-35 118.09-7.3 118.09-31.3Q118.09-33.5 115.09-33.5L115.09-33.5 113.39-33.5 113.39-35 125.39-35 125.39-33.5 123.49-33.5Q120.39-33.5 120.39-31.3L120.39-31.3 120.39-0.2Q119.84-0.2 119.22 0.28 118.59 0.75 118.69 0.8Z" opacity="1" transform="matrix(1,0,0,1,0,0)" fill="#000000" class="undefined-text-0" data-fill-palette-color="primary" id="text-0"></path></svg>