<svg width="224" height="189" viewBox="0 0 224 189" fill="none" xmlns="http://www.w3.org/2000/svg">
<g filter="url(#filter0_d_525_219)">
<path d="M198.082 136.409H104.744H101.727C94.6431 136.409 88.8957 130.694 88.8957 123.643C88.8957 117.26 93.6106 111.985 99.7643 111.042H130.177C141.87 111.042 151.351 101.618 151.351 89.9894C151.351 78.3611 141.87 68.9366 130.177 68.9366H104.744H101.727C94.6431 68.9366 88.8957 63.219 88.8957 56.1721C88.8957 49.3107 94.3388 43.7298 101.164 43.4311H198.082C210.144 43.4311 219.919 33.708 219.919 21.7165C219.919 9.72314 210.144 6.67711e-06 198.082 6.67711e-06H104.744H101.019H94.7118C44.6108 6.67711e-06 4.00049 40.3879 4.00049 90.21C4.00049 140.032 44.6108 180.42 94.7118 180.42H104.744V179.842H198.082C210.144 179.842 219.919 170.121 219.919 158.128C219.919 146.132 210.144 136.409 198.082 136.409Z" fill="white"/>
</g>
<path d="M101.018 0.0001698H94.7113C44.6123 0.0001698 4 40.6105 4 90.7115C4 118.443 16.4605 143.252 36.0698 159.894C37.8305 116.765 54.2187 33.1574 150.613 0.0001698H104.744H101.018Z" fill="#4949E1"/>
<path d="M46.2026 67.0396C46.2026 45.2692 51.4475 24.7294 60.7359 6.60405C27.4746 20.0538 4.00037 52.632 4.00037 90.7122C4.00037 140.811 44.6107 181.421 94.7117 181.421H104.744V180.842H110.58C72.0147 157.596 46.2026 115.35 46.2026 67.0396Z" fill="#0C99FF"/>
<path d="M202.943 90.186C202.943 102.044 193.333 111.656 181.473 111.656C169.615 111.656 160.001 102.044 160.001 90.186C160.001 78.3301 169.615 68.7158 181.473 68.7158C193.333 68.7158 202.943 78.3301 202.943 90.186Z" fill="#0C99FF"/>
<defs>
<filter id="filter0_d_525_219" x="0.000488281" y="0" width="223.919" height="188.42" filterUnits="userSpaceOnUse" color-interpolation-filters="sRGB">
<feFlood flood-opacity="0" result="BackgroundImageFix"/>
<feColorMatrix in="SourceAlpha" type="matrix" values="0 0 0 0 0 0 0 0 0 0 0 0 0 0 0 0 0 0 127 0" result="hardAlpha"/>
<feOffset dy="4"/>
<feGaussianBlur stdDeviation="2"/>
<feComposite in2="hardAlpha" operator="out"/>
<feColorMatrix type="matrix" values="0 0 0 0 0 0 0 0 0 0 0 0 0 0 0 0 0 0 0.25 0"/>
<feBlend mode="normal" in2="BackgroundImageFix" result="effect1_dropShadow_525_219"/>
<feBlend mode="normal" in="SourceGraphic" in2="effect1_dropShadow_525_219" result="shape"/>
</filter>
</defs>
</svg>
