<svg width="250" height="250" viewBox="0 0 250 250" fill="none" xmlns="http://www.w3.org/2000/svg">
<path d="M228 93.6735C228 80.0379 210.91 67.1155 184.709 59.1019C190.755 32.418 188.068 11.1883 176.227 4.39148C173.498 2.79716 170.307 2.04196 166.821 2.04196V11.3981C168.753 11.3981 170.307 11.7757 171.608 12.489C177.319 15.7615 179.796 28.2224 177.865 44.2495C177.403 48.1934 176.647 52.347 175.723 56.5846C167.493 54.5707 158.508 53.0183 149.06 52.0114C143.391 44.2495 137.513 37.201 131.592 31.0334C145.281 18.3208 158.13 11.3562 166.863 11.3562V2C155.316 2 140.2 10.2233 124.916 24.4883C109.632 10.3073 94.5157 2.16782 82.9686 2.16782V11.524C91.6604 11.524 104.551 18.4467 118.24 31.0754C112.361 37.2429 106.483 44.2495 100.898 52.0114C91.4085 53.0183 82.4228 54.5707 74.1928 56.6265C73.2271 52.4309 72.5132 48.3612 72.0094 44.4593C70.0359 28.4322 72.4713 15.9713 78.1398 12.6568C79.3995 11.9016 81.0371 11.5659 82.9686 11.5659V2.20978C79.4415 2.20978 76.2503 2.96498 73.479 4.55931C61.68 11.3562 59.0347 32.5438 65.1231 59.1439C39.0057 67.1994 22 80.0798 22 93.6735C22 107.309 39.0897 120.232 65.2911 128.245C59.2446 154.929 61.9319 176.159 73.7729 182.956C76.5022 184.55 79.6934 185.305 83.2206 185.305C94.7676 185.305 109.884 177.082 125.168 162.817C140.452 176.998 155.568 185.137 167.115 185.137C170.642 185.137 173.834 184.382 176.605 182.788C188.404 175.991 191.049 154.803 184.961 128.203C210.994 120.19 228 107.267 228 93.6735ZM173.33 65.689C171.776 71.1013 169.845 76.6814 167.661 82.2615C165.94 78.9051 164.134 75.5486 162.161 72.1921C160.229 68.8357 158.172 65.5631 156.114 62.3745C162.077 63.2555 167.829 64.3464 173.33 65.689ZM154.099 110.372C150.823 116.036 147.464 121.406 143.979 126.399C137.723 126.944 131.382 127.238 125 127.238C118.66 127.238 112.319 126.944 106.105 126.441C102.62 121.448 99.2185 116.12 95.9433 110.498C92.7521 105.002 89.8549 99.4215 87.2095 93.7994C89.8129 88.1773 92.7522 82.5552 95.9014 77.059C99.1765 71.395 102.536 66.0246 106.021 61.0319C112.277 60.4864 118.618 60.1927 125 60.1927C131.34 60.1927 137.681 60.4864 143.895 60.9899C147.38 65.9827 150.782 71.3111 154.057 76.9331C157.248 82.4294 160.145 88.0095 162.79 93.6316C160.145 99.2536 157.248 104.876 154.099 110.372ZM167.661 104.918C169.929 110.54 171.86 116.162 173.456 121.616C167.955 122.959 162.161 124.091 156.156 124.973C158.214 121.742 160.271 118.427 162.203 115.029C164.134 111.673 165.94 108.274 167.661 104.918ZM125.084 149.685C121.179 145.657 117.274 141.168 113.411 136.259C117.19 136.427 121.053 136.552 124.958 136.552C128.905 136.552 132.81 136.468 136.631 136.259C132.852 141.168 128.947 145.657 125.084 149.685ZM93.8439 124.973C87.8814 124.091 82.1288 123.001 76.6282 121.658C78.1818 116.246 80.1133 110.666 82.2968 105.086C84.0183 108.442 85.8239 111.798 87.7974 115.155C89.7709 118.511 91.7864 121.784 93.8439 124.973ZM124.874 37.6625C128.779 41.6902 132.684 46.1795 136.547 51.0883C132.768 50.9205 128.905 50.7946 125 50.7946C121.053 50.7946 117.148 50.8786 113.327 51.0883C117.106 46.1795 121.011 41.6902 124.874 37.6625ZM93.8019 62.3745C91.7444 65.6051 89.6869 68.9196 87.7554 72.318C85.8239 75.6745 84.0183 79.0309 82.2968 82.3874C80.0294 76.7653 78.0978 71.1432 76.5022 65.689C82.0029 64.3883 87.7974 63.2555 93.8019 62.3745ZM55.8015 114.903C40.9372 108.568 31.3216 100.261 31.3216 93.6735C31.3216 87.0864 40.9372 78.7372 55.8015 72.4439C59.4126 70.8915 63.3596 69.507 67.4325 68.2063C69.8259 76.4297 72.9751 84.9887 76.8801 93.7574C73.0171 102.484 69.9099 111.001 67.5585 119.183C63.4016 117.882 59.4546 116.456 55.8015 114.903ZM78.3918 174.858C72.6812 171.586 70.2038 159.125 72.1354 143.097C72.5972 139.154 73.353 135 74.2768 130.762C82.5067 132.776 91.4925 134.329 100.94 135.336C106.609 143.097 112.487 150.146 118.408 156.314C104.719 169.026 91.8704 175.991 83.1366 175.991C81.247 175.949 79.6515 175.571 78.3918 174.858ZM177.991 142.888C179.964 158.915 177.529 171.376 171.86 174.69C170.6 175.445 168.963 175.781 167.031 175.781C158.34 175.781 145.449 168.858 131.76 156.23C137.639 150.062 143.517 143.056 149.102 135.294C158.592 134.287 167.577 132.734 175.807 130.679C176.773 134.916 177.529 138.986 177.991 142.888ZM194.157 114.903C190.545 116.456 186.598 117.84 182.525 119.141C180.132 110.917 176.983 102.358 173.078 93.5896C176.941 84.8628 180.048 76.3457 182.4 68.1644C186.556 69.465 190.503 70.8915 194.199 72.4439C209.063 78.7792 218.678 87.0864 218.678 93.6735C218.636 100.261 209.021 108.61 194.157 114.903Z" fill="#61DAFB"/>
<path d="M124.877 112.847C135.467 112.847 144.051 104.263 144.051 93.6735C144.051 83.0841 135.467 74.4997 124.877 74.4997C114.288 74.4997 105.703 83.0841 105.703 93.6735C105.703 104.263 114.288 112.847 124.877 112.847Z" fill="#61DAFB"/>
<path d="M67.9609 203.875H79.2578C81.8203 203.875 83.9844 204.266 85.75 205.047C87.5312 205.828 88.8828 206.984 89.8047 208.516C90.7422 210.031 91.2109 211.898 91.2109 214.117C91.2109 215.68 90.8906 217.109 90.25 218.406C89.625 219.688 88.7188 220.781 87.5312 221.688C86.3594 222.578 84.9531 223.242 83.3125 223.68L82.0469 224.172H71.4297L71.3828 220.492H79.3984C81.0234 220.492 82.375 220.211 83.4531 219.648C84.5312 219.07 85.3438 218.297 85.8906 217.328C86.4375 216.359 86.7109 215.289 86.7109 214.117C86.7109 212.805 86.4531 211.656 85.9375 210.672C85.4219 209.688 84.6094 208.93 83.5 208.398C82.4062 207.852 80.9922 207.578 79.2578 207.578H72.4844V238H67.9609V203.875ZM87.9062 238L79.6094 222.531L84.3203 222.508L92.7344 237.719V238H87.9062ZM107.406 238.469C105.641 238.469 104.039 238.172 102.602 237.578C101.18 236.969 99.9531 236.117 98.9219 235.023C97.9062 233.93 97.125 232.633 96.5781 231.133C96.0312 229.633 95.7578 227.992 95.7578 226.211V225.227C95.7578 223.164 96.0625 221.328 96.6719 219.719C97.2812 218.094 98.1094 216.719 99.1562 215.594C100.203 214.469 101.391 213.617 102.719 213.039C104.047 212.461 105.422 212.172 106.844 212.172C108.656 212.172 110.219 212.484 111.531 213.109C112.859 213.734 113.945 214.609 114.789 215.734C115.633 216.844 116.258 218.156 116.664 219.672C117.07 221.172 117.273 222.812 117.273 224.594V226.539H98.3359V223H112.938V222.672C112.875 221.547 112.641 220.453 112.234 219.391C111.844 218.328 111.219 217.453 110.359 216.766C109.5 216.078 108.328 215.734 106.844 215.734C105.859 215.734 104.953 215.945 104.125 216.367C103.297 216.773 102.586 217.383 101.992 218.195C101.398 219.008 100.938 220 100.609 221.172C100.281 222.344 100.117 223.695 100.117 225.227V226.211C100.117 227.414 100.281 228.547 100.609 229.609C100.953 230.656 101.445 231.578 102.086 232.375C102.742 233.172 103.531 233.797 104.453 234.25C105.391 234.703 106.453 234.93 107.641 234.93C109.172 234.93 110.469 234.617 111.531 233.992C112.594 233.367 113.523 232.531 114.32 231.484L116.945 233.57C116.398 234.398 115.703 235.188 114.859 235.938C114.016 236.688 112.977 237.297 111.742 237.766C110.523 238.234 109.078 238.469 107.406 238.469ZM137.289 233.664V220.609C137.289 219.609 137.086 218.742 136.68 218.008C136.289 217.258 135.695 216.68 134.898 216.273C134.102 215.867 133.117 215.664 131.945 215.664C130.852 215.664 129.891 215.852 129.062 216.227C128.25 216.602 127.609 217.094 127.141 217.703C126.688 218.312 126.461 218.969 126.461 219.672H122.125C122.125 218.766 122.359 217.867 122.828 216.977C123.297 216.086 123.969 215.281 124.844 214.562C125.734 213.828 126.797 213.25 128.031 212.828C129.281 212.391 130.672 212.172 132.203 212.172C134.047 212.172 135.672 212.484 137.078 213.109C138.5 213.734 139.609 214.68 140.406 215.945C141.219 217.195 141.625 218.766 141.625 220.656V232.469C141.625 233.312 141.695 234.211 141.836 235.164C141.992 236.117 142.219 236.938 142.516 237.625V238H137.992C137.773 237.5 137.602 236.836 137.477 236.008C137.352 235.164 137.289 234.383 137.289 233.664ZM138.039 222.625L138.086 225.672H133.703C132.469 225.672 131.367 225.773 130.398 225.977C129.43 226.164 128.617 226.453 127.961 226.844C127.305 227.234 126.805 227.727 126.461 228.32C126.117 228.898 125.945 229.578 125.945 230.359C125.945 231.156 126.125 231.883 126.484 232.539C126.844 233.195 127.383 233.719 128.102 234.109C128.836 234.484 129.734 234.672 130.797 234.672C132.125 234.672 133.297 234.391 134.312 233.828C135.328 233.266 136.133 232.578 136.727 231.766C137.336 230.953 137.664 230.164 137.711 229.398L139.562 231.484C139.453 232.141 139.156 232.867 138.672 233.664C138.188 234.461 137.539 235.227 136.727 235.961C135.93 236.68 134.977 237.281 133.867 237.766C132.773 238.234 131.539 238.469 130.164 238.469C128.445 238.469 126.938 238.133 125.641 237.461C124.359 236.789 123.359 235.891 122.641 234.766C121.938 233.625 121.586 232.352 121.586 230.945C121.586 229.586 121.852 228.391 122.383 227.359C122.914 226.312 123.68 225.445 124.68 224.758C125.68 224.055 126.883 223.523 128.289 223.164C129.695 222.805 131.266 222.625 133 222.625H138.039ZM158.594 234.906C159.625 234.906 160.578 234.695 161.453 234.273C162.328 233.852 163.047 233.273 163.609 232.539C164.172 231.789 164.492 230.938 164.57 229.984H168.695C168.617 231.484 168.109 232.883 167.172 234.18C166.25 235.461 165.039 236.5 163.539 237.297C162.039 238.078 160.391 238.469 158.594 238.469C156.688 238.469 155.023 238.133 153.602 237.461C152.195 236.789 151.023 235.867 150.086 234.695C149.164 233.523 148.469 232.18 148 230.664C147.547 229.133 147.32 227.516 147.32 225.812V224.828C147.32 223.125 147.547 221.516 148 220C148.469 218.469 149.164 217.117 150.086 215.945C151.023 214.773 152.195 213.852 153.602 213.18C155.023 212.508 156.688 212.172 158.594 212.172C160.578 212.172 162.312 212.578 163.797 213.391C165.281 214.188 166.445 215.281 167.289 216.672C168.148 218.047 168.617 219.609 168.695 221.359H164.57C164.492 220.312 164.195 219.367 163.68 218.523C163.18 217.68 162.492 217.008 161.617 216.508C160.758 215.992 159.75 215.734 158.594 215.734C157.266 215.734 156.148 216 155.242 216.531C154.352 217.047 153.641 217.75 153.109 218.641C152.594 219.516 152.219 220.492 151.984 221.57C151.766 222.633 151.656 223.719 151.656 224.828V225.812C151.656 226.922 151.766 228.016 151.984 229.094C152.203 230.172 152.57 231.148 153.086 232.023C153.617 232.898 154.328 233.602 155.219 234.133C156.125 234.648 157.25 234.906 158.594 234.906ZM184.188 212.641V215.969H170.477V212.641H184.188ZM175.117 206.477H179.453V231.719C179.453 232.578 179.586 233.227 179.852 233.664C180.117 234.102 180.461 234.391 180.883 234.531C181.305 234.672 181.758 234.742 182.242 234.742C182.602 234.742 182.977 234.711 183.367 234.648C183.773 234.57 184.078 234.508 184.281 234.461L184.305 238C183.961 238.109 183.508 238.211 182.945 238.305C182.398 238.414 181.734 238.469 180.953 238.469C179.891 238.469 178.914 238.258 178.023 237.836C177.133 237.414 176.422 236.711 175.891 235.727C175.375 234.727 175.117 233.383 175.117 231.695V206.477Z" fill="#61DAFB"/>
</svg>
