<svg width="250" height="250" viewBox="0 0 250 250" fill="none" xmlns="http://www.w3.org/2000/svg">
<path d="M215.212 138.955C206.471 139.004 198.902 141.11 192.554 144.246C190.21 139.592 187.866 135.526 187.475 132.488C187.036 128.961 186.499 126.805 187.036 122.592C187.573 118.379 190.014 112.402 190.014 111.912C189.966 111.471 189.477 109.316 184.448 109.267C179.418 109.218 175.072 110.247 174.583 111.569C174.095 112.892 173.118 115.929 172.484 119.065C171.605 123.67 162.424 139.984 157.199 148.557C155.49 145.226 154.025 142.286 153.732 139.935C153.293 136.407 152.755 134.252 153.293 130.039C153.83 125.825 156.271 119.849 156.271 119.359C156.222 118.918 155.734 116.762 150.704 116.713C145.675 116.664 141.329 117.693 140.84 119.016C140.352 120.339 139.815 123.474 138.74 126.511C137.715 129.549 125.507 156.787 122.333 163.891C120.721 167.516 119.305 170.407 118.28 172.366C117.254 174.326 118.231 172.513 118.133 172.709C117.254 174.375 116.766 175.306 116.766 175.306V175.355C116.082 176.579 115.35 177.755 115.008 177.755C114.764 177.755 114.275 174.473 115.106 169.966C116.912 160.511 121.307 145.765 121.258 145.226C121.258 144.981 122.089 142.384 118.426 141.061C114.861 139.739 113.592 141.943 113.299 141.943C113.006 141.943 112.762 142.727 112.762 142.727C112.762 142.727 116.717 126.119 105.193 126.119C97.9654 126.119 88.0036 134.007 83.0715 141.208C79.9463 142.923 73.3051 146.548 66.2732 150.419C63.5874 151.888 60.804 153.456 58.167 154.877L57.6299 154.289C43.6638 139.347 17.8315 128.765 18.9058 108.679C19.2964 101.379 21.8357 82.126 68.5195 58.8066C106.755 39.7004 137.373 44.9424 142.696 56.6021C150.265 73.2588 126.337 104.221 86.5875 108.679C71.4494 110.393 63.4898 104.515 61.4876 102.31C59.3878 100.008 59.0948 99.9095 58.3135 100.35C57.0439 101.036 57.8252 103.094 58.3135 104.319C59.4855 107.405 64.3687 112.892 72.6702 115.635C79.9463 118.036 97.7213 119.359 119.208 111.03C143.282 101.673 162.082 75.7083 156.564 54.0056C150.949 31.9109 114.422 24.6603 79.8974 36.9569C59.339 44.3055 37.0714 55.7692 21.0544 70.8093C2.00978 88.6418 -1.01783 104.221 0.251811 110.687C4.69556 133.762 36.3878 148.802 49.0842 159.923C48.4494 160.266 47.8634 160.609 47.3262 160.903C40.978 164.038 16.806 176.726 10.7508 190.15C3.91424 205.337 11.8251 216.262 17.099 217.731C33.409 222.288 50.1097 214.106 59.1437 200.634C68.1288 187.161 67.0545 169.672 62.9038 161.686L62.7573 161.392L67.7382 158.453C70.9611 156.542 74.1352 154.779 76.9187 153.26C75.356 157.522 74.2329 162.568 73.6469 169.917C72.9632 178.539 76.4792 189.709 81.1183 194.118C83.1692 196.029 85.6108 196.078 87.1246 196.078C92.4962 196.078 94.9378 191.62 97.6236 186.28C100.944 179.764 103.874 172.219 103.874 172.219C103.874 172.219 100.212 192.648 110.222 192.648C113.885 192.648 117.547 187.896 119.208 185.447V185.496C119.208 185.496 119.305 185.349 119.501 185.006C119.891 184.418 120.087 184.075 120.087 184.075V183.977C121.551 181.43 124.823 175.6 129.706 165.949C136.006 153.505 142.061 137.926 142.061 137.926C142.061 137.926 142.647 141.747 144.454 148.018C145.528 151.741 147.872 155.808 149.679 159.776C148.214 161.833 147.335 163.009 147.335 163.009L147.384 163.058C146.212 164.626 144.893 166.292 143.526 167.957C138.545 173.934 132.588 180.744 131.806 182.703C130.878 185.006 131.074 186.72 132.881 188.092C134.199 189.072 136.543 189.268 139.033 189.072C143.526 188.778 146.651 187.651 148.214 186.965C150.656 186.084 153.439 184.761 156.125 182.801C161.008 179.176 163.987 174.032 163.694 167.173C163.547 163.401 162.327 159.678 160.813 156.15C161.252 155.514 161.692 154.877 162.131 154.191C169.847 142.874 175.804 130.431 175.804 130.431C175.804 130.431 176.39 134.252 178.197 140.523C179.125 143.707 180.98 147.185 182.641 150.615C175.414 156.542 170.872 163.401 169.31 167.908C166.428 176.237 168.675 180.009 172.923 180.891C174.828 181.283 177.562 180.401 179.613 179.519C182.152 178.686 185.229 177.265 188.061 175.159C192.944 171.533 197.632 166.487 197.388 159.678C197.242 156.542 196.412 153.456 195.288 150.517C201.441 147.969 209.401 146.499 219.509 147.724C241.24 150.272 245.537 163.891 244.707 169.574C243.877 175.257 239.335 178.392 237.821 179.372C236.308 180.303 235.819 180.646 235.966 181.332C236.161 182.36 236.845 182.311 238.163 182.115C239.97 181.821 249.59 177.461 249.981 166.977C250.567 153.505 237.821 138.808 215.212 138.955ZM47.6192 195.637C40.4409 203.524 30.3326 206.513 26.0353 203.965C21.3962 201.271 23.203 189.66 32.0417 181.283C37.4133 176.188 44.3963 171.484 48.9865 168.594C50.012 167.957 51.5747 167.026 53.4303 165.9C53.7233 165.704 53.9186 165.606 53.9186 165.606C54.2604 165.41 54.6511 165.165 55.0418 164.92C58.3135 176.873 55.1883 187.357 47.6192 195.637ZM100.114 159.825C97.6236 165.949 92.3497 181.674 89.1756 180.793C86.441 180.058 84.7807 168.153 88.6384 156.395C90.5917 150.468 94.7425 143.413 97.1841 140.67C101.14 136.26 105.437 134.791 106.511 136.603C107.781 138.955 101.677 156.004 100.114 159.825ZM143.428 180.597C142.354 181.136 141.377 181.527 140.938 181.234C140.596 181.038 141.377 180.303 141.377 180.303C141.377 180.303 146.798 174.473 148.946 171.778C150.167 170.211 151.632 168.398 153.195 166.34V166.928C153.195 173.983 146.456 178.686 143.428 180.597ZM176.83 172.954C176.048 172.366 176.146 170.554 178.783 164.871C179.809 162.617 182.152 158.845 186.206 155.269C186.694 156.738 186.987 158.159 186.938 159.482C186.889 168.3 180.639 171.582 176.83 172.954Z" fill="#CF649A"/>
</svg>
