<svg width="498" height="250" viewBox="0 0 498 250" fill="none" xmlns="http://www.w3.org/2000/svg">
<path fill-rule="evenodd" clip-rule="evenodd" d="M12.7214 85.7273H76.329V149.364H12.7214V85.7273Z" fill="white"/>
<path d="M144.402 146.478C140.781 146.493 137.18 145.932 133.735 144.817C130.43 143.744 127.394 141.976 124.83 139.63L129.489 131.746C131.861 133.383 134.394 134.773 137.049 135.895C139.27 136.862 141.668 137.358 144.09 137.349C145.744 137.349 147.092 137.037 148.024 136.414C148.956 135.895 149.37 134.963 149.37 133.82C149.37 132.783 148.854 131.746 147.611 131.122C145.665 130.188 143.614 129.491 141.501 129.048L134.25 126.661C132.285 125.831 130.733 125 129.489 124.068C128.324 123.296 127.393 122.218 126.798 120.953C126.236 119.643 125.954 118.23 125.972 116.804C125.941 114.789 126.363 112.792 127.205 110.961C128.047 109.129 129.288 107.51 130.838 106.221C132.285 104.977 134.148 104.042 136.219 103.316C138.292 102.591 140.57 102.279 142.952 102.279C146.164 102.279 149.163 102.693 151.958 103.523C154.757 104.459 157.448 106.015 160.037 108.296L154.964 116.079C152.959 114.642 150.807 113.425 148.543 112.448C146.779 111.682 144.875 111.292 142.952 111.303C141.606 111.303 140.363 111.513 139.431 112.136C138.394 112.655 137.981 113.587 137.981 114.835C137.981 116.075 138.499 116.909 139.533 117.53C140.57 118.153 142.64 118.777 145.436 119.502C148.031 120.158 150.588 120.953 153.1 121.889C155.167 122.716 156.828 123.651 158.173 124.587C160.717 126.464 162.126 129.519 161.9 132.678C161.9 136.932 160.348 140.251 157.136 142.742C154.032 145.234 149.888 146.478 144.402 146.478ZM195.657 143.468C193.898 144.196 191.828 144.922 189.551 145.545C187.27 146.166 184.993 146.583 182.611 146.583C180.954 146.583 179.504 146.376 178.053 145.959C176.644 145.547 175.339 144.84 174.224 143.885C173.188 143.054 172.361 141.81 171.737 140.461C171.037 138.786 170.685 136.985 170.704 135.17V112.862H165.316V103.11H170.802V89.5137H183.641V103.005H192.34V112.859H183.641V130.705C183.641 132.055 183.953 133.092 184.678 133.817C185.403 134.336 186.335 134.645 187.372 134.645C188.406 134.645 189.439 134.543 190.374 134.129C191.408 133.817 192.34 133.505 193.065 133.092L195.552 143.465H195.654L195.657 143.468ZM219.888 146.478C216.593 146.536 213.319 145.936 210.258 144.715C207.592 143.658 205.181 142.048 203.182 139.992C201.182 137.935 199.641 135.478 198.659 132.783C196.624 127.365 196.624 121.392 198.659 115.974C199.641 113.278 201.182 110.822 203.182 108.765C205.181 106.709 207.592 105.099 210.258 104.042C213.057 102.903 216.263 102.279 219.888 102.279C223.005 102.133 226.116 102.659 229.011 103.823C231.906 104.987 234.516 106.761 236.665 109.025C238.63 110.994 240.08 113.38 241.117 115.974C243.237 121.411 243.237 127.447 241.117 132.885C240.129 135.549 238.597 137.977 236.618 140.014C234.639 142.052 232.256 143.654 229.623 144.718C226.529 145.953 223.219 146.55 219.888 146.478ZM210.57 124.482C210.57 127.804 211.397 130.499 213.159 132.471C215.022 134.546 217.299 135.583 219.993 135.583C221.277 135.608 222.55 135.341 223.716 134.802C224.881 134.262 225.91 133.466 226.723 132.471C227.55 131.434 228.173 130.397 228.691 128.943C229.207 127.594 229.413 126.038 229.413 124.482C229.413 121.058 228.482 118.36 226.723 116.39C225.91 115.396 224.882 114.598 223.716 114.059C222.55 113.519 221.277 113.251 219.993 113.275C218.712 113.273 217.445 113.55 216.282 114.088C215.12 114.626 214.088 115.412 213.26 116.39C212.433 117.428 211.708 118.465 211.193 119.916C210.725 121.391 210.515 122.935 210.57 124.482ZM276.117 114.211C273.01 114.211 270.11 114.73 267.521 115.767C265.24 116.538 263.299 118.079 262.031 120.126V145.752H249.087V103.11H260.998V111.618C262.448 108.713 264.312 106.431 266.691 104.872C268.971 103.211 271.353 102.381 273.942 102.279H275.287L276.114 102.381L276.117 114.211ZM281.81 152.081C283.611 152.708 285.496 153.058 287.401 153.118C288.956 153.118 290.2 152.6 291.132 151.559C291.959 150.525 292.684 148.45 293.409 145.752L277.253 103.11H290.61L300.45 134.546L309.044 103.11H321.161L304.903 152.6C303.677 156.651 300.974 160.095 297.33 162.247C293.687 164.399 289.367 165.103 285.229 164.22C284.054 164.003 282.907 163.655 281.81 163.182V152.081ZM351.81 146.481C348.598 146.481 345.704 145.854 343.319 144.403C340.898 143.07 338.892 141.095 337.521 138.695V145.752H326.234V86.405H339.28V110.062C340.668 107.626 342.693 105.614 345.137 104.243C347.582 102.872 350.354 102.193 353.156 102.279C355.849 102.279 358.333 102.798 360.614 104.042C362.891 105.079 364.754 106.74 366.513 108.713C369.026 112.208 370.675 116.249 371.323 120.506C371.972 124.762 371.602 129.111 370.244 133.197C369.267 135.787 367.828 138.178 365.998 140.254C364.201 142.228 362.01 143.803 359.565 144.875C357.121 145.947 354.479 146.496 351.81 146.481ZM348.185 135.583C350.236 135.587 352.237 134.948 353.908 133.758C355.579 132.567 356.836 130.884 357.503 128.943C358.25 126.887 358.462 124.675 358.118 122.515C357.774 120.356 356.886 118.319 355.538 116.597C354.741 115.544 353.706 114.694 352.518 114.117C351.331 113.54 350.023 113.252 348.703 113.275C346.738 113.275 344.874 114.004 343.112 115.353C341.408 116.829 340.063 118.673 339.178 120.746V129.671C339.995 131.4 341.284 132.863 342.896 133.891C344.508 134.919 346.378 135.47 348.29 135.481L348.185 135.583ZM378.007 86.405H390.951V130.495C390.951 133.817 392.3 135.373 395.095 135.373C396.571 135.376 398.031 135.023 399.341 134.336L401.1 143.986C397.474 145.577 393.565 146.423 389.606 146.475C385.879 146.475 382.978 145.437 381.013 143.57C378.939 141.495 377.905 138.797 377.905 135.061V86.405H378.007ZM425.538 146.478C422.243 146.536 418.969 145.936 415.908 144.715C413.226 143.664 410.797 142.058 408.78 140.002C406.763 137.945 405.203 135.485 404.204 132.783C402.734 128.779 402.362 124.454 403.127 120.258C403.892 116.061 405.766 112.147 408.555 108.92C410.627 106.831 413.091 105.174 415.806 104.042C418.598 102.903 421.811 102.279 425.433 102.279C428.549 102.133 431.661 102.659 434.556 103.823C437.451 104.987 440.061 106.761 442.209 109.025C444.28 110.994 445.625 113.38 446.662 115.974C448.189 119.969 448.59 124.307 447.823 128.514C447.056 132.722 445.149 136.639 442.311 139.837C440.287 141.981 437.811 143.647 435.063 144.715C432.002 145.936 428.728 146.536 425.433 146.478H425.538ZM416.114 124.482C416.114 127.804 416.941 130.499 418.703 132.471C420.567 134.546 422.844 135.583 425.538 135.583C426.821 135.6 428.091 135.33 429.256 134.791C430.42 134.253 431.449 133.46 432.268 132.471C433.095 131.434 433.718 130.397 434.236 128.943C434.755 127.594 434.961 126.038 434.961 124.482C434.961 121.058 434.03 118.36 432.268 116.39C431.455 115.396 430.427 114.598 429.261 114.059C428.095 113.519 426.822 113.251 425.538 113.275C424.257 113.273 422.991 113.551 421.829 114.089C420.667 114.627 419.636 115.412 418.808 116.39C417.981 117.428 417.253 118.465 416.735 119.916C416.219 121.37 416.114 122.821 416.114 124.482ZM483.316 145.752L472.239 128.529L467.681 133.302V145.752H454.737V86.405H467.681V120.746L482.076 103.11H495.847L480.523 121.472L497.093 145.749H483.319L483.316 145.752Z" fill="#141A2F"/>
<path d="M51.7701 121.405H31.209V131.084H51.2772C52.4635 131.084 53.5512 130.6 54.4417 129.827C55.2304 129.051 55.7265 127.889 55.7265 126.439C55.754 125.19 55.3719 123.966 54.6388 122.954C53.8469 121.984 52.9564 121.405 51.7701 121.405ZM52.4635 109.689C53.354 109.11 53.7483 107.85 53.7483 106.205C53.7483 104.754 53.354 103.689 52.6607 103.011C51.9449 102.395 51.0347 102.053 50.0909 102.044H31.2058V110.755H49.6965C50.6825 110.755 51.6716 110.272 52.4635 109.689Z" fill="#0AB3AF"/>
<path d="M85.161 73H4.61791C2.05134 73 0 75.0459 0 77.5023V157.939C0 160.398 2.05134 161.932 4.51614 161.932H16.4171V178L31.1932 162.034H85.1642C87.6258 162.034 89.1651 160.5 89.1651 157.942V77.6041C89.1651 75.1477 87.6258 73.1018 85.0624 73.1018L85.1578 73H85.161ZM71.6222 138.189C70.5649 140.047 69.0453 141.599 67.211 142.695C65.2614 143.92 63.1083 145.049 60.6435 145.558C58.1819 146.172 55.5135 146.685 52.7434 146.685H16.4171V89.3736H57.6666C59.718 89.3736 61.4608 89.7841 63.1051 90.7036C64.6412 91.5245 66.0787 92.6477 67.2078 93.9809C69.5058 96.7741 70.7417 100.291 70.6967 103.908C70.6967 106.568 69.9779 109.126 68.6421 111.583C67.2579 114.055 65.0938 115.999 62.4881 117.11C65.7703 118.029 68.3368 119.668 70.2832 122.019C72.131 124.475 73.0565 127.651 73.0565 131.641C73.0565 134.199 72.5413 136.35 71.5172 138.189H71.619H71.6222Z" fill="#0AB3AF"/>
</svg>
