<svg width="608" height="250" viewBox="0 0 608 250" fill="none" xmlns="http://www.w3.org/2000/svg">
<path fill-rule="evenodd" clip-rule="evenodd" d="M63.5578 88C46.8746 88 36.4503 96.2914 32.2777 112.874C38.5342 104.583 45.8326 101.474 54.173 103.546C58.9316 104.727 62.3344 108.16 66.0977 111.96C72.2316 118.147 79.3315 125.309 94.8355 125.309C111.516 125.309 121.943 117.017 126.113 100.437C119.859 108.728 112.561 111.837 104.22 109.763C99.4592 108.581 96.0564 105.149 92.2932 101.351C86.1592 95.1587 79.0618 88 63.5578 88ZM32.2777 125.309C15.5969 125.309 5.17019 133.6 1 150.183C7.25652 141.891 14.555 138.783 22.8929 140.854C27.6539 142.036 31.0568 145.468 34.82 149.268C40.9539 155.456 48.0514 162.617 63.5578 162.617C80.2386 162.617 90.6653 154.328 94.8355 137.746C88.579 146.037 81.2805 149.146 72.9401 147.074C68.1815 145.89 64.7787 142.458 61.0155 138.66C54.8815 132.472 47.7817 125.309 32.2777 125.309Z" fill="#38BDF8"/>
<path fill-rule="evenodd" clip-rule="evenodd" d="M188.661 119.442H177.744V140.445C177.744 146.047 181.441 145.959 188.661 145.608V154.098C174.045 155.848 168.234 151.823 168.234 140.445V119.442H160.134V110.339H168.234V98.586L177.744 95.7838V110.339H188.661V119.442ZM230.275 110.339H239.782V154.098H230.275V147.797C226.928 152.433 221.733 155.235 214.867 155.235C202.893 155.235 192.944 145.172 192.944 132.217C192.944 119.18 202.893 109.202 214.867 109.202C221.733 109.202 226.928 112.001 230.275 116.554V110.339ZM216.364 146.221C224.288 146.221 230.275 140.357 230.275 132.217C230.275 124.078 224.288 118.216 216.364 118.216C208.441 118.216 202.454 124.08 202.454 132.217C202.454 140.357 208.441 146.221 216.364 146.221ZM255.629 103.776C252.285 103.776 249.557 100.976 249.557 97.7378C249.565 96.1328 250.208 94.5962 251.346 93.4645C252.484 92.3328 254.024 91.6981 255.629 91.6995C257.235 91.6975 258.776 92.3319 259.914 93.4636C261.053 94.5954 261.697 96.1323 261.705 97.7378C261.705 100.974 258.976 103.776 255.629 103.776ZM250.876 154.098V110.339H260.386V154.098H250.876ZM271.391 154.098V90.2064H280.898V154.095H271.391V154.098ZM342.618 110.339H352.655L338.832 154.098H329.499L320.342 124.605L311.097 154.098H301.766L287.942 110.339H297.979L306.52 140.531L315.765 110.339H324.834L333.988 140.531L342.618 110.339ZM364.452 103.776C361.105 103.776 358.377 100.976 358.377 97.7378C358.384 96.1323 359.028 94.5954 360.167 93.4636C361.305 92.3319 362.846 91.6975 364.452 91.6995C366.057 91.6975 367.598 92.3319 368.737 93.4636C369.875 94.5954 370.519 96.1323 370.527 97.7378C370.527 100.974 367.798 103.776 364.452 103.776ZM359.698 154.098V110.339H369.205V154.098H359.698ZM403.366 109.202C413.227 109.202 420.27 115.853 420.27 127.231V154.095H410.763V128.192C410.763 121.54 406.889 118.042 400.902 118.042C394.651 118.042 389.72 121.717 389.72 130.643V154.098H380.211V110.339H389.72V115.941C392.626 111.391 397.379 109.202 403.366 109.202ZM465.348 92.837H474.858V154.095H465.348V147.795C462.004 152.433 456.809 155.233 449.942 155.233C437.968 155.233 428.02 145.169 428.02 132.215C428.02 119.177 437.968 109.199 449.942 109.199C456.809 109.199 462.004 111.999 465.348 116.551V92.837ZM451.437 146.221C459.361 146.221 465.348 140.357 465.348 132.217C465.348 124.078 459.361 118.216 451.437 118.216C443.514 118.216 437.527 124.08 437.527 132.217C437.527 140.357 443.514 146.221 451.437 146.221ZM506.729 155.235C493.433 155.235 483.485 145.172 483.485 132.217C483.485 119.18 493.433 109.202 506.729 109.202C515.356 109.202 522.841 113.663 526.361 120.491L518.173 125.218C516.236 121.104 511.924 118.478 506.64 118.478C498.893 118.478 492.995 124.343 492.995 132.217C492.995 140.094 498.893 145.959 506.64 145.959C511.924 145.959 516.236 143.245 518.349 139.219L526.538 143.858C522.841 150.771 515.356 155.235 506.729 155.235ZM542.208 122.416C542.208 130.381 565.893 125.566 565.893 141.759C565.893 150.511 558.232 155.235 548.725 155.235C539.921 155.235 533.581 151.296 530.764 144.995L538.953 140.271C540.36 144.208 543.883 146.571 548.725 146.571C552.951 146.571 556.207 145.172 556.207 141.668C556.207 133.882 532.524 138.258 532.524 122.592C532.524 114.365 539.656 109.202 548.636 109.202C555.856 109.202 561.843 112.528 564.925 118.304L556.913 122.766C555.327 119.354 552.245 117.777 548.636 117.777C545.202 117.777 542.208 119.265 542.208 122.416ZM582.797 122.416C582.797 130.381 606.48 125.566 606.48 141.759C606.48 150.511 598.821 155.235 589.311 155.235C580.507 155.235 574.17 151.296 571.351 144.995L579.539 140.271C580.949 144.208 584.469 146.571 589.311 146.571C593.538 146.571 596.796 145.172 596.796 141.668C596.796 133.882 573.113 138.258 573.113 122.592C573.113 114.365 580.243 109.202 589.225 109.202C596.443 109.202 602.43 112.528 605.511 118.304L597.5 122.766C595.916 119.354 592.834 117.777 589.225 117.777C585.791 117.777 582.797 119.265 582.797 122.416Z" fill="black"/>
</svg>
