<svg width="250" height="250" viewBox="0 0 250 250" fill="none" xmlns="http://www.w3.org/2000/svg">
<path d="M98.9766 236.82L109.031 207.875H113.93L101.297 242H97.8047L98.9766 236.82ZM89.5781 207.875L99.5391 236.82L100.781 242H97.2891L84.6797 207.875H89.5781ZM132.727 236.141V216.641H137.086V242H132.938L132.727 236.141ZM133.547 230.797L135.352 230.75C135.352 232.438 135.172 234 134.812 235.438C134.469 236.859 133.906 238.094 133.125 239.141C132.344 240.188 131.32 241.008 130.055 241.602C128.789 242.18 127.25 242.469 125.438 242.469C124.203 242.469 123.07 242.289 122.039 241.93C121.023 241.57 120.148 241.016 119.414 240.266C118.68 239.516 118.109 238.539 117.703 237.336C117.312 236.133 117.117 234.688 117.117 233V216.641H121.453V233.047C121.453 234.188 121.578 235.133 121.828 235.883C122.094 236.617 122.445 237.203 122.883 237.641C123.336 238.062 123.836 238.359 124.383 238.531C124.945 238.703 125.523 238.789 126.117 238.789C127.961 238.789 129.422 238.438 130.5 237.734C131.578 237.016 132.352 236.055 132.82 234.852C133.305 233.633 133.547 232.281 133.547 230.797ZM154.219 242.469C152.453 242.469 150.852 242.172 149.414 241.578C147.992 240.969 146.766 240.117 145.734 239.023C144.719 237.93 143.938 236.633 143.391 235.133C142.844 233.633 142.57 231.992 142.57 230.211V229.227C142.57 227.164 142.875 225.328 143.484 223.719C144.094 222.094 144.922 220.719 145.969 219.594C147.016 218.469 148.203 217.617 149.531 217.039C150.859 216.461 152.234 216.172 153.656 216.172C155.469 216.172 157.031 216.484 158.344 217.109C159.672 217.734 160.758 218.609 161.602 219.734C162.445 220.844 163.07 222.156 163.477 223.672C163.883 225.172 164.086 226.812 164.086 228.594V230.539H145.148V227H159.75V226.672C159.688 225.547 159.453 224.453 159.047 223.391C158.656 222.328 158.031 221.453 157.172 220.766C156.312 220.078 155.141 219.734 153.656 219.734C152.672 219.734 151.766 219.945 150.938 220.367C150.109 220.773 149.398 221.383 148.805 222.195C148.211 223.008 147.75 224 147.422 225.172C147.094 226.344 146.93 227.695 146.93 229.227V230.211C146.93 231.414 147.094 232.547 147.422 233.609C147.766 234.656 148.258 235.578 148.898 236.375C149.555 237.172 150.344 237.797 151.266 238.25C152.203 238.703 153.266 238.93 154.453 238.93C155.984 238.93 157.281 238.617 158.344 237.992C159.406 237.367 160.336 236.531 161.133 235.484L163.758 237.57C163.211 238.398 162.516 239.188 161.672 239.938C160.828 240.688 159.789 241.297 158.555 241.766C157.336 242.234 155.891 242.469 154.219 242.469Z" fill="url(#paint0_linear_405_37)"/>
<path d="M21.0449 6.70975C20.8272 5.84662 21.4474 6.01312 21.912 6.01255C25.0429 6.00876 28.1738 6.01058 31.3047 6.01058C41.509 6.01058 51.7133 6.01058 62.0757 6.13817C62.5129 6.83865 62.7571 7.4319 63.0763 7.98148C83.1946 42.6208 103.319 77.2566 123.445 111.891C123.757 112.427 124.109 112.939 124.564 113.656C125.004 112.962 125.327 112.492 125.61 112C142.968 81.8845 160.327 51.7701 177.672 21.6472C180.662 16.454 183.588 11.2237 186.543 6.01058C199.927 6.01058 213.312 6.00706 226.696 6.0253C227.161 6.02593 227.627 6.24363 228 6.60938C223.13 15.0944 218.349 23.3278 213.577 31.5665C204.266 47.6417 194.961 63.7205 185.651 79.7964C180.24 89.1408 174.819 98.4802 169.41 107.826C164.175 116.87 158.955 125.922 153.717 134.965C148.422 144.108 143.108 153.24 137.813 162.382C133.449 169.917 129.099 177.46 124.743 185C124.743 185 124.569 185 124.433 184.89C121.629 180.152 118.97 175.52 116.291 170.899C108.779 157.942 101.249 144.995 93.7432 132.034C87.2848 120.881 80.8603 109.708 74.4037 98.5542C68.1512 87.7526 61.8763 76.9639 55.6121 66.1691C51.0669 58.3366 46.517 50.5069 41.9804 42.6695C38.025 35.8361 34.1022 28.9837 30.1332 22.1583C27.1298 16.9936 24.0762 11.8582 21.0449 6.70975Z" fill="#41B883"/>
<path d="M190 6C187.031 11.5209 183.92 17.06 180.741 22.5597C162.298 54.4609 143.84 86.3531 125.383 118.246C125.081 118.768 124.739 119.265 124.271 120C123.786 119.241 123.412 118.698 123.081 118.131C101.68 81.452 80.282 44.7714 58.8899 8.08725C58.5505 7.50524 58.2909 6.87695 58 6.13513C71.379 6 84.7521 6 98.3535 6.11674C98.6371 6.34389 98.6859 6.45804 98.7483 6.56419C106.944 20.4974 115.14 34.4311 123.349 48.3566C123.575 48.7404 123.951 49.0364 124.384 49.5131C124.856 48.8236 125.232 48.3444 125.534 47.8226C128.036 43.4968 130.517 39.1589 133.019 34.8326C138.577 25.2193 144.144 15.6106 149.707 6C163.08 6 176.453 6 190 6Z" fill="#35495E"/>
<defs>
<linearGradient id="paint0_linear_405_37" x1="125" y1="204.5" x2="125" y2="242" gradientUnits="userSpaceOnUse">
<stop stop-color="#35495E"/>
<stop offset="1" stop-color="#41B883"/>
</linearGradient>
</defs>
</svg>
