<?xml version="1.0" standalone="no"?>
<!DOCTYPE svg PUBLIC "-//W3C//DTD SVG 20010904//EN"
 "http://www.w3.org/TR/2001/REC-SVG-20010904/DTD/svg10.dtd">
<svg version="1.0" xmlns="http://www.w3.org/2000/svg"
 width="864.000000pt" height="864.000000pt" viewBox="0 0 864.000000 864.000000"
 preserveAspectRatio="xMidYMid meet">
<metadata>
Created by potrace 1.14, written by Peter Selinger 2001-2017
</metadata>
<g transform="translate(0.000000,864.000000) scale(0.100000,-0.100000)"
fill="#000000" stroke="none">
<path d="M3369 7955 c-3 -2 -36 -6 -74 -9 -72 -6 -141 -14 -185 -22 -14 -3
-45 -7 -70 -10 -61 -8 -85 -12 -85 -14 0 -1 -7 -3 -15 -5 -136 -27 -192 -40
-280 -65 -58 -17 -112 -32 -120 -35 -79 -21 -370 -134 -442 -171 -15 -8 -31
-15 -35 -16 -5 0 -30 -13 -58 -28 -27 -15 -86 -46 -130 -70 -44 -23 -87 -49
-96 -56 -8 -8 -19 -14 -23 -14 -23 0 -339 -224 -451 -319 -168 -143 -325 -298
-440 -436 -22 -26 -52 -61 -67 -79 -15 -17 -28 -34 -28 -38 0 -4 -7 -13 -15
-22 -33 -32 -191 -258 -208 -296 -4 -8 -16 -28 -27 -45 -30 -46 -122 -214
-149 -270 -13 -28 -27 -57 -32 -65 -5 -8 -14 -26 -20 -40 -5 -14 -17 -38 -25
-54 -8 -16 -14 -34 -14 -40 -1 -6 -9 -29 -20 -51 -11 -22 -19 -43 -20 -46 0
-4 -8 -24 -17 -45 -9 -22 -18 -45 -19 -52 -1 -8 -6 -21 -10 -30 -4 -9 -8 -21
-9 -27 -2 -5 -14 -47 -29 -92 -31 -99 -74 -269 -80 -315 -3 -18 -6 -34 -7 -35
-3 -5 -16 -78 -24 -138 -2 -11 -6 -33 -9 -50 -3 -16 -8 -52 -11 -80 -3 -27 -9
-77 -13 -110 -8 -72 -8 -611 1 -675 3 -25 9 -70 12 -100 4 -30 8 -66 10 -80 3
-14 7 -41 10 -60 2 -19 7 -46 11 -60 3 -14 8 -41 10 -60 3 -19 7 -43 10 -52 3
-10 8 -30 10 -45 12 -66 59 -229 106 -368 44 -132 177 -451 199 -481 5 -6 27
-46 50 -90 74 -140 283 -455 353 -530 6 -7 25 -29 41 -50 17 -20 44 -53 60
-72 29 -34 305 -310 335 -337 14 -11 131 -108 155 -127 27 -22 129 -97 175
-128 28 -19 57 -39 64 -45 6 -5 23 -16 36 -24 14 -8 54 -33 90 -55 102 -62
177 -103 280 -152 52 -25 116 -57 142 -70 27 -13 48 -21 48 -18 0 2 17 -4 38
-14 44 -22 248 -95 312 -112 25 -7 50 -15 55 -18 6 -4 18 -8 27 -9 9 -2 70
-16 135 -32 65 -16 134 -32 153 -35 57 -8 104 -16 129 -22 13 -3 46 -7 75 -10
28 -3 67 -7 86 -10 86 -12 145 -14 463 -19 270 -4 337 -3 337 8 0 10 360 13
1893 13 1040 1 1917 4 1947 7 239 27 459 159 608 365 36 49 110 198 117 234 3
11 9 35 14 52 23 71 33 248 18 336 -3 19 -8 56 -12 83 -5 26 -12 50 -16 53 -5
3 -9 13 -9 22 0 10 -9 35 -20 57 -11 22 -20 45 -20 52 0 7 -4 13 -10 13 -5 0
-10 6 -10 13 0 21 -85 136 -150 204 -33 34 -60 59 -60 55 0 -4 -4 -2 -8 3 -4
6 -23 22 -42 35 -19 13 -37 27 -40 30 -3 3 -39 22 -80 42 -89 43 -192 74 -275
84 -33 4 -955 8 -2050 9 -1526 1 -2002 4 -2039 14 -78 19 -179 77 -239 138
-117 118 -168 278 -143 452 12 78 76 200 142 266 64 65 179 130 249 141 22 4
337 7 700 8 586 2 669 4 740 20 44 10 90 24 103 32 12 8 22 12 22 8 0 -3 11 1
25 10 13 9 29 16 35 16 16 0 140 84 193 130 50 44 147 162 147 178 0 6 4 12 9
14 17 7 82 162 101 242 19 77 33 270 21 281 -2 3 -5 15 -6 28 -4 53 -17 108
-41 173 -14 38 -28 77 -31 87 -3 9 -9 17 -14 17 -5 0 -9 5 -9 11 0 6 -20 41
-45 77 -114 170 -325 314 -510 348 -11 2 -41 7 -66 12 -26 5 -329 9 -675 10
-346 0 -645 3 -665 6 -61 8 -152 45 -207 83 -91 62 -145 133 -203 268 -20 48
-28 169 -14 245 9 52 43 149 59 167 6 7 29 37 51 67 64 87 204 169 309 182 23
3 943 5 2046 6 1103 0 2010 3 2015 6 6 4 21 8 35 9 71 9 269 84 278 106 2 4 9
7 14 7 16 0 110 72 166 128 124 121 225 315 249 477 21 144 1 334 -47 450 -32
79 -49 109 -95 180 -52 78 -119 149 -200 211 -42 32 -161 104 -171 103 -5 -1
-53 16 -89 32 -87 38 -77 37 -2406 38 -1235 0 -2248 -1 -2250 -4z"/>
<path d="M6978 5205 c-2 -2 -19 -7 -38 -10 -135 -23 -303 -103 -397 -188 -68
-61 -78 -72 -112 -115 -62 -79 -85 -119 -134 -232 -23 -52 -48 -167 -52 -240
-2 -36 -5 -67 -6 -70 -1 -3 -1 -8 -1 -11 1 -3 4 -33 7 -65 25 -267 165 -496
395 -647 44 -29 155 -81 195 -92 17 -5 35 -9 40 -11 65 -19 106 -24 210 -27
380 -13 727 244 841 622 7 25 11 48 8 52 -2 4 0 10 4 13 25 15 19 309 -8 380
-5 14 -6 26 -3 26 4 0 2 5 -5 12 -7 7 -12 18 -12 25 0 7 -11 37 -25 68 -13 30
-23 56 -23 58 5 7 -104 151 -151 200 -111 116 -284 211 -441 242 -38 8 -286
16 -292 10z"/>
</g>
</svg>
