<?xml version="1.0" standalone="no"?>
<!DOCTYPE svg PUBLIC "-//W3C//DTD SVG 20010904//EN"
 "http://www.w3.org/TR/2001/REC-SVG-20010904/DTD/svg10.dtd">
<svg version="1.0" xmlns="http://www.w3.org/2000/svg"
 width="1000.000000pt" height="1000.000000pt" viewBox="0 0 1000.000000 1000.000000"
 preserveAspectRatio="xMidYMid meet">
<metadata>
Created by potrace 1.14, written by Peter Selinger 2001-2017
</metadata>
<g transform="translate(0.000000,1000.000000) scale(0.100000,-0.100000)"
fill="#000000" stroke="none">
<path d="M1806 5858 c-28 -46 -959 -1664 -969 -1685 -8 -18 -6 -27 8 -43 18
-20 30 -20 1430 -20 1355 0 1413 1 1428 18 10 10 17 23 17 28 0 5 -222 394
-494 864 -470 814 -495 855 -524 858 -29 3 -32 -2 -212 -315 -101 -175 -191
-330 -200 -345 l-16 -27 -189 327 c-103 180 -195 335 -203 345 -21 24 -59 21
-76 -5z m226 -427 c98 -170 180 -315 183 -322 5 -14 -484 -874 -508 -894 -8
-6 -141 -8 -378 -5 l-367 5 441 763 c242 419 443 762 446 762 3 0 86 -139 183
-309z m1049 -338 c205 -357 403 -700 440 -763 l67 -115 -366 -5 c-238 -3 -371
-1 -379 5 -27 23 -513 879 -508 894 12 30 360 631 366 631 3 0 174 -291 380
-647z m-566 -500 c118 -204 215 -374 215 -377 0 -3 -205 -6 -455 -6 -250 0
-455 3 -455 6 0 5 404 709 437 763 15 24 16 24 30 5 8 -10 110 -186 228 -391z"/>
<path d="M4061 5794 c-21 -26 -21 -33 -21 -791 0 -813 0 -809 47 -827 24 -10
65 24 75 62 5 17 7 368 6 780 -3 696 -4 750 -21 775 -23 35 -59 35 -86 1z"/>
<path d="M5975 5670 l-270 -5 -3 -26 c-3 -26 -1 -27 58 -31 103 -7 95 45 95
-604 l0 -566 -24 -19 c-16 -13 -39 -19 -77 -19 -54 0 -54 0 -54 -31 l0 -31
363 5 c397 4 418 7 541 69 85 43 134 78 203 146 169 166 243 374 215 599 -35
272 -180 455 -403 508 -67 15 -103 16 -644 5z m525 -139 c196 -67 339 -209
385 -386 18 -69 20 -211 4 -287 -52 -250 -275 -408 -573 -408 -107 0 -214 18
-265 45 l-31 16 0 513 0 514 83 6 c45 4 100 8 122 10 89 9 211 -2 275 -23z"/>
<path d="M4497 5663 c-4 -3 -7 -17 -7 -30 0 -21 4 -23 49 -23 34 0 56 -6 75
-21 l26 -20 0 -567 c0 -312 -4 -573 -8 -580 -10 -15 -66 -32 -109 -32 -29 0
-33 -3 -33 -25 l0 -25 507 2 507 3 32 127 c26 106 29 128 17 132 -26 10 -31 7
-53 -39 -22 -45 -67 -87 -130 -121 -32 -17 -59 -19 -283 -19 -235 0 -249 1
-263 19 -11 16 -14 71 -14 283 l0 263 210 0 c197 0 211 -1 230 -20 15 -15 20
-33 20 -75 0 -55 0 -55 30 -55 l30 0 -2 193 -3 192 -27 3 c-28 3 -28 3 -28
-57 0 -101 1 -101 -250 -101 l-210 0 0 238 c0 230 1 240 21 258 19 18 39 19
248 19 194 0 230 -2 257 -17 44 -24 91 -81 105 -128 10 -33 17 -40 37 -40 l25
0 -7 127 c-4 70 -9 130 -12 135 -6 10 -978 11 -987 1z"/>
<path d="M7177 5664 c-4 -4 -7 -18 -7 -31 0 -21 4 -23 58 -23 104 0 97 44 100
-584 2 -367 0 -553 -8 -578 -9 -31 -17 -39 -48 -48 -20 -5 -52 -10 -69 -10
-28 0 -33 -3 -33 -25 l0 -25 240 0 240 0 0 24 c0 21 -5 24 -62 29 -106 9 -98
-40 -98 613 0 654 -8 604 101 604 60 0 60 0 57 28 l-3 27 -231 3 c-127 1 -233
-1 -237 -4z"/>
<path d="M7807 5663 c-4 -3 -7 -16 -7 -29 0 -20 6 -22 65 -26 50 -3 70 -9 90
-28 l25 -23 0 -548 c0 -301 -3 -555 -6 -564 -10 -26 -59 -45 -119 -45 -54 0
-55 0 -55 -30 l0 -30 231 0 230 0 -3 28 c-3 26 -5 27 -77 33 -120 9 -111 -34
-111 537 0 285 4 482 9 477 5 -6 190 -253 411 -550 222 -297 404 -542 406
-544 2 -2 20 4 39 15 l35 19 0 598 c0 371 4 605 10 617 13 24 62 40 127 40 53
0 54 0 51 28 l-3 27 -225 0 -225 0 -3 -27 c-3 -27 -2 -28 48 -28 65 0 118 -22
125 -52 3 -13 4 -228 3 -478 l-3 -454 -388 522 -389 522 -142 0 c-79 0 -146
-3 -149 -7z"/>
</g>
</svg>
