<?xml version="1.0" standalone="no"?>
<!DOCTYPE svg PUBLIC "-//W3C//DTD SVG 20010904//EN"
 "http://www.w3.org/TR/2001/REC-SVG-20010904/DTD/svg10.dtd">
<svg version="1.0" xmlns="http://www.w3.org/2000/svg"
 width="896.000000pt" height="896.000000pt" viewBox="0 0 896.000000 896.000000"
 preserveAspectRatio="xMidYMid meet">
<metadata>
Created by potrace 1.14, written by Peter Selinger 2001-2017
</metadata>
<g transform="translate(0.000000,896.000000) scale(0.100000,-0.100000)"
fill="#000000" stroke="none">
<path d="M3569 8256 c-2 -2 -42 -7 -89 -10 -97 -7 -121 -9 -273 -31 -23 -4
-87 -16 -142 -27 -55 -11 -104 -21 -110 -22 -5 -1 -16 -5 -22 -9 -7 -5 -13 -6
-13 -3 0 5 -27 -2 -190 -50 -110 -33 -260 -87 -347 -125 -23 -11 -45 -19 -49
-19 -23 0 -481 -245 -504 -270 -3 -3 -36 -25 -73 -49 -38 -24 -83 -56 -102
-70 -18 -14 -46 -35 -61 -46 -28 -20 -129 -101 -151 -120 -6 -5 -37 -32 -69
-60 -77 -68 -204 -194 -289 -289 -38 -43 -75 -84 -80 -90 -9 -10 -60 -73 -118
-148 -47 -60 -167 -237 -167 -247 0 -6 -4 -11 -10 -11 -5 0 -10 -7 -10 -15 0
-8 -4 -15 -9 -15 -5 0 -13 -10 -17 -22 -3 -13 -14 -34 -24 -48 -9 -14 -34 -56
-55 -95 -20 -38 -41 -74 -46 -79 -5 -6 -9 -18 -9 -28 0 -10 -4 -18 -10 -18 -5
0 -9 -3 -8 -7 1 -5 -13 -39 -31 -78 -54 -116 -68 -148 -87 -200 -9 -27 -22
-56 -27 -62 -5 -7 -6 -13 -2 -13 4 0 2 -6 -4 -13 -6 -8 -12 -22 -14 -33 -2
-10 -7 -26 -10 -34 -3 -8 -13 -40 -22 -70 -10 -30 -19 -62 -22 -70 -4 -8 -8
-26 -10 -40 -2 -14 -8 -27 -14 -28 -5 -2 -7 -7 -5 -11 3 -4 -3 -40 -14 -79
-10 -40 -16 -72 -13 -72 3 0 -2 -12 -12 -26 -9 -15 -12 -23 -6 -20 12 8 15 -6
4 -18 -4 -3 -8 -12 -9 -19 -3 -19 -15 -99 -20 -137 -3 -19 -7 -42 -9 -50 -4
-14 -14 -98 -20 -165 -2 -16 -3 -34 -4 -38 0 -5 -7 -5 -13 -1 -10 6 -10 5 0
-8 11 -14 10 -127 -2 -147 -3 -4 -1 -13 4 -21 4 -7 4 -24 -1 -38 -7 -18 -6
-28 3 -34 7 -4 8 -8 3 -8 -6 0 -10 -25 -10 -60 0 -33 4 -60 9 -60 5 0 4 -6 -2
-12 -5 -7 -6 -22 -2 -33 4 -11 4 -34 -1 -52 -4 -18 -4 -33 0 -33 3 0 7 -28 9
-63 4 -72 10 -162 12 -162 2 0 12 -106 14 -142 0 -17 4 -29 9 -26 4 2 8 -15 9
-39 2 -55 4 -70 11 -88 4 -8 8 -28 11 -45 2 -16 5 -30 6 -30 1 0 4 -11 6 -25
3 -14 10 -43 16 -65 6 -22 12 -49 13 -60 2 -11 8 -33 14 -48 6 -16 9 -32 6
-37 -3 -5 1 -10 7 -13 10 -3 9 -8 -2 -22 -8 -10 -10 -16 -3 -12 13 8 22 -2 29
-35 7 -30 10 -40 17 -58 30 -72 54 -149 50 -154 -4 -3 -2 -6 4 -6 6 0 14 -12
18 -27 6 -26 22 -67 47 -120 6 -11 7 -27 3 -34 -5 -8 -4 -10 3 -5 14 8 36 -40
28 -61 -3 -7 -1 -12 5 -10 12 2 16 -3 61 -98 18 -38 35 -72 38 -75 3 -3 12
-18 20 -35 8 -16 18 -32 21 -35 3 -3 18 -27 33 -55 47 -85 81 -135 91 -135 6
0 3 -5 -5 -10 -13 -9 -13 -10 0 -10 12 0 133 -162 135 -180 0 -2 9 -14 20 -25
69 -73 99 -112 100 -130 1 -11 7 -21 13 -21 7 -1 17 -2 23 -3 6 0 9 -8 5 -16
-3 -8 -1 -14 3 -12 5 1 23 -13 41 -32 29 -30 32 -36 20 -55 -13 -21 -13 -21 9
-2 20 18 27 13 22 -17 -1 -5 2 -6 7 -3 10 6 62 -40 62 -54 0 -6 7 -10 15 -10
16 0 21 -15 8 -23 -5 -2 -3 -3 3 -1 14 3 140 -115 136 -128 -1 -5 1 -7 6 -4 9
6 46 -21 100 -72 18 -17 37 -32 40 -32 4 0 21 -13 38 -30 18 -16 35 -26 38
-23 3 4 6 -1 6 -10 0 -14 13 -23 23 -15 6 5 45 -37 41 -44 -3 -4 2 -5 10 -2 9
4 18 0 22 -9 3 -9 12 -13 20 -10 8 3 14 1 14 -5 0 -5 32 -29 71 -53 40 -24 80
-52 90 -61 11 -10 19 -15 19 -11 0 3 8 -1 18 -10 10 -10 22 -14 25 -10 4 3 7
0 7 -7 0 -7 3 -10 6 -7 4 4 15 -3 25 -14 9 -11 21 -21 26 -22 4 -1 7 -6 5 -11
-2 -5 4 -4 12 4 11 8 16 9 16 1 0 -6 7 -11 15 -11 8 0 15 -4 15 -10 0 -5 9
-10 20 -10 11 0 20 -5 20 -11 0 -5 4 -7 10 -4 5 3 10 1 10 -4 0 -6 5 -10 12
-9 7 2 12 -2 13 -9 0 -6 4 -15 9 -20 6 -5 6 -2 1 6 -6 11 -4 13 11 7 10 -5 31
-13 47 -18 15 -5 27 -14 27 -20 0 -5 4 -7 9 -4 5 4 22 0 38 -8 15 -8 46 -23
68 -33 22 -10 43 -22 47 -28 4 -5 8 -7 8 -3 0 4 13 2 30 -3 16 -6 28 -15 25
-19 -3 -4 5 -6 16 -3 13 4 27 0 33 -8 6 -8 22 -14 36 -14 16 0 24 -5 22 -14
-3 -12 0 -12 12 -1 11 8 16 9 16 1 0 -6 3 -10 8 -9 16 4 72 -14 72 -23 0 -6 4
-8 8 -5 11 7 100 -20 120 -36 13 -10 14 -10 8 -1 -4 7 -3 13 3 13 5 0 13 -5
16 -10 3 -6 19 -10 36 -10 16 0 29 -3 29 -7 0 -5 16 -9 36 -10 21 -1 44 -5 53
-9 9 -4 27 -8 41 -10 14 -1 25 -3 25 -4 0 -1 14 -4 30 -6 17 -3 49 -7 73 -10
23 -3 42 -11 42 -18 0 -6 5 -4 10 4 5 8 10 11 10 5 0 -5 21 -11 47 -13 26 -1
51 -8 55 -15 5 -7 8 -8 8 -1 0 6 10 10 23 8 12 -1 30 -3 40 -3 12 -1 16 -5 11
-13 -6 -10 -4 -10 7 -2 8 7 38 9 76 6 54 -4 61 -7 58 -23 -2 -11 0 -17 6 -14
5 4 7 11 4 16 -12 19 26 21 48 3 14 -12 17 -13 9 -3 -9 13 -9 16 3 16 8 0 15
-5 15 -11 0 -6 5 -4 11 4 8 12 12 12 16 2 4 -9 8 -10 18 -2 10 8 15 8 20 -1 6
-8 10 -7 16 2 7 11 9 11 9 1 0 -7 5 -10 11 -7 14 10 59 14 59 6 0 -9 43 -7 58
3 7 4 12 3 12 -2 0 -6 14 -7 34 -2 19 4 40 4 47 -1 7 -4 19 -3 26 3 9 7 13 7
13 0 0 -6 13 -7 34 -2 18 4 40 3 49 -1 9 -5 18 -6 21 -1 3 5 20 7 38 6 18 -1
36 3 40 9 3 6 16 11 27 12 12 1 17 -3 14 -9 -5 -8 -3 -8 8 0 8 6 54 10 102 9
63 0 84 2 73 10 -8 5 -23 16 -33 22 -13 9 -14 12 -3 10 8 -1 18 -6 22 -12 5
-6 8 -5 8 3 0 6 5 12 11 12 5 0 7 -6 3 -12 -6 -10 -4 -10 8 0 13 10 17 10 21
0 4 -10 6 -10 6 0 1 16 31 16 31 0 0 -9 3 -9 12 0 16 16 31 15 22 0 -5 -9 -2
-9 9 1 14 11 17 11 17 0 0 -11 2 -11 10 1 7 11 10 11 10 2 0 -8 5 -10 13 -5
18 12 87 12 80 0 -4 -6 -1 -7 7 -2 19 12 123 14 137 3 7 -6 18 -6 25 -2 19 12
70 12 92 1 12 -6 16 -6 12 1 -4 6 2 10 14 9 11 -1 20 -5 20 -10 0 -5 6 -5 13
0 16 13 47 12 47 -1 0 -6 5 -4 10 4 7 11 10 11 10 2 0 -8 5 -10 13 -5 18 12
67 11 67 -1 0 -6 5 -5 12 2 16 16 31 15 22 0 -5 -9 -2 -9 9 1 14 11 17 11 17
0 0 -11 2 -11 10 1 7 11 10 11 10 2 0 -8 5 -10 13 -5 18 12 87 12 80 0 -4 -6
-1 -7 7 -2 19 12 123 14 137 3 7 -6 18 -6 25 -2 19 12 70 12 92 1 12 -6 16 -6
12 1 -4 6 2 10 14 9 11 -1 20 -5 20 -10 0 -5 6 -5 13 0 16 13 47 12 47 -1 0
-6 5 -4 10 4 7 11 10 11 10 2 0 -8 5 -10 13 -5 17 11 131 10 139 -2 5 -6 8 -5
8 3 0 6 5 12 11 12 5 0 7 -6 3 -12 -5 -9 -2 -9 9 1 11 9 17 10 17 2 0 -6 5
-11 11 -11 5 0 7 5 3 11 -8 14 58 8 68 -6 5 -6 8 -5 8 3 0 6 5 12 11 12 5 0 7
-6 3 -12 -6 -10 -4 -10 7 -1 7 7 18 13 24 13 5 0 3 -5 -5 -10 -8 -5 -10 -10
-4 -10 6 0 14 3 18 7 11 12 56 11 56 -1 0 -6 5 -5 12 2 16 16 31 15 22 0 -5
-9 -2 -9 9 1 14 11 17 11 17 0 0 -11 2 -11 10 1 7 11 10 11 10 2 0 -8 5 -10
13 -5 18 12 87 12 80 0 -4 -6 -1 -7 7 -2 20 12 123 14 138 2 7 -6 17 -6 25 0
17 13 43 10 39 -6 -1 -7 2 -10 8 -6 6 3 8 11 5 16 -8 12 12 11 37 -2 13 -7 18
-7 14 -1 -4 6 2 10 14 9 11 -1 20 -5 20 -9 0 -4 5 -8 11 -8 5 0 7 5 4 10 -3 6
1 10 10 10 10 0 13 -5 9 -12 -5 -9 -2 -9 9 1 14 11 17 11 17 0 0 -11 2 -11 10
1 8 13 10 13 10 1 0 -12 3 -12 12 -3 16 16 31 15 22 0 -5 -10 -4 -10 6 -1 10
9 16 7 30 -9 12 -15 19 -18 24 -9 4 7 2 10 -5 9 -6 -2 -13 2 -16 8 -5 14 69
13 79 -1 5 -6 8 -5 8 3 0 6 5 12 11 12 5 0 7 -6 3 -12 -5 -9 -2 -9 9 1 11 9
17 10 17 2 0 -6 5 -11 11 -11 5 0 7 5 3 11 -8 14 58 8 68 -6 5 -6 8 -5 8 3 0
6 5 12 11 12 5 0 7 -6 3 -12 -6 -10 -4 -10 7 0 7 6 18 12 24 12 5 0 3 -5 -5
-10 -8 -5 -10 -10 -4 -10 6 0 14 3 18 7 11 12 56 11 56 -1 0 -6 5 -5 12 2 16
16 31 15 22 0 -5 -9 -2 -9 9 1 14 11 17 11 17 0 0 -11 2 -11 10 1 7 11 10 11
10 2 0 -8 5 -10 13 -5 18 12 87 12 80 0 -4 -6 -1 -7 7 -2 19 12 123 14 137 3
7 -6 18 -6 25 -2 19 12 70 12 92 1 12 -6 16 -6 12 1 -4 6 2 10 14 9 11 -1 20
-5 20 -10 0 -5 6 -5 13 0 16 13 47 12 47 -1 0 -6 5 -4 10 4 7 11 10 11 10 2 0
-8 5 -10 12 -5 17 11 68 12 68 1 0 -4 5 -8 11 -8 5 0 7 4 4 10 -3 5 1 10 10
10 10 0 13 -5 9 -12 -5 -9 -2 -9 9 1 14 11 17 11 17 0 0 -11 2 -11 10 1 6 10
10 11 10 3 0 -7 5 -13 11 -13 5 0 7 5 4 10 -3 6 1 10 10 10 10 0 13 -5 9 -12
-5 -9 -2 -9 9 1 14 11 17 11 17 0 0 -10 3 -10 12 -1 15 15 32 16 22 1 -4 -8
-1 -8 12 -2 27 12 59 9 56 -6 -1 -7 2 -10 8 -6 6 3 8 11 4 16 -3 6 15 9 44 8
27 -1 54 1 59 4 13 8 36 -17 25 -28 -4 -5 -1 -5 6 -1 10 6 10 11 2 21 -11 13
7 19 115 41 11 2 38 13 59 24 31 15 42 17 48 7 6 -9 8 -8 8 3 0 9 17 24 38 35
41 22 43 23 88 60 18 14 37 25 43 25 6 0 11 5 11 11 0 6 7 9 14 6 10 -4 13 -1
9 9 -3 8 1 14 11 14 9 0 15 6 14 13 -2 6 3 11 10 9 6 -1 12 2 12 7 0 5 6 16
13 23 7 7 25 30 41 50 16 21 32 35 37 32 5 -3 6 3 2 12 -5 13 -3 15 7 9 9 -6
11 -4 5 5 -4 7 -2 16 6 21 8 4 14 16 14 26 0 10 5 17 10 16 6 -1 12 8 12 19 1
12 7 24 13 28 7 4 11 10 11 14 -2 11 12 61 20 71 8 11 20 58 22 88 1 9 4 17 7
17 12 0 18 213 7 300 -7 61 -45 187 -71 237 -9 18 -16 35 -16 38 1 3 -22 38
-49 78 -150 215 -354 343 -611 383 -25 4 -949 8 -2055 9 l-2010 2 -73 26 c-41
14 -82 33 -91 41 -10 9 -22 16 -28 16 -17 0 -131 118 -145 150 -7 17 -16 30
-19 30 -6 0 -12 15 -23 50 -1 3 -4 10 -7 15 -8 13 -21 74 -17 78 2 2 -3 11
-11 20 -7 10 -9 17 -3 17 6 0 7 13 2 35 -5 22 -4 35 2 35 7 0 7 5 1 13 -8 11
-10 29 -3 42 1 3 4 14 5 25 1 11 4 22 5 25 1 3 3 8 4 13 16 60 30 96 51 126
14 20 25 40 25 44 0 4 9 14 19 22 11 7 18 17 15 22 -3 4 0 9 5 9 6 1 17 2 24
3 6 1 11 10 9 20 -3 14 1 17 12 13 9 -4 16 -1 16 6 0 17 38 39 52 31 6 -4 8
-3 5 3 -8 12 20 26 34 18 5 -4 6 1 3 10 -4 9 -3 15 2 14 5 -1 18 1 29 5 80 30
139 41 128 23 -4 -7 1 -6 10 2 9 7 17 10 17 6 0 -4 6 -2 13 4 8 6 17 8 21 4 9
-9 1184 -10 1199 -1 6 4 19 2 29 -3 10 -5 18 -6 18 -1 0 4 9 8 20 9 13 1 18
-3 14 -10 -3 -7 1 -4 9 6 8 9 17 17 20 17 4 0 4 -8 0 -17 -4 -13 -1 -11 11 4
10 13 24 20 36 18 11 -2 20 2 21 8 0 7 4 3 9 -8 8 -18 9 -19 9 -1 1 12 6 16
16 12 8 -3 15 -2 15 2 0 4 24 17 53 30 28 13 64 30 80 38 15 8 32 12 39 8 7
-4 8 -3 4 4 -4 7 11 23 36 39 24 15 55 40 70 55 15 17 32 26 41 22 8 -3 18 -1
22 5 3 7 0 8 -9 5 -22 -9 -20 3 7 30 12 12 33 37 47 55 14 18 31 39 38 47 7 8
10 14 5 14 -4 0 -3 4 3 8 8 6 47 77 49 92 0 3 8 19 17 36 10 17 19 43 22 57 2
15 7 30 9 34 3 5 8 26 12 48 4 22 9 51 11 65 5 26 5 193 1 242 -2 15 -6 30
-10 34 -4 4 -7 17 -7 28 0 26 -50 157 -80 211 -62 111 -157 215 -258 283 -52
36 -120 75 -132 77 -3 0 -15 6 -27 13 -12 6 -30 13 -40 15 -10 1 -23 6 -29 9
-6 4 -26 10 -44 13 -18 3 -37 8 -41 10 -20 13 -202 18 -779 20 -623 2 -636 2
-694 23 -114 42 -235 138 -268 213 -7 16 -16 29 -20 29 -5 0 -8 9 -8 20 0 11
-5 20 -12 20 -6 0 -9 3 -5 6 3 4 0 19 -9 35 -8 16 -12 29 -9 29 3 0 1 8 -4 18
-7 13 -7 22 1 30 8 8 8 13 -3 17 -15 6 -17 56 -6 145 6 50 29 120 39 120 4 0
7 3 6 8 -4 12 24 72 33 72 5 0 9 6 9 13 0 7 23 35 50 62 42 42 52 47 61 35 8
-12 9 -10 4 7 -5 18 -1 24 19 29 14 3 23 10 20 15 -3 5 4 9 15 9 12 0 21 5 21
12 0 6 3 8 7 5 3 -4 12 -2 20 4 10 9 13 8 13 -2 1 -9 4 -8 11 4 6 9 14 15 19
12 5 -3 11 -1 15 5 3 5 13 10 21 10 8 0 13 -4 9 -9 -3 -5 -1 -13 5 -16 6 -4
10 -3 9 2 -4 20 2 31 21 36 10 3 21 0 23 -6 2 -6 9 -7 17 -2 23 14 94 11 108
-5 8 -8 11 -10 8 -3 -8 15 10 26 27 16 17 -11 31 -10 39 2 5 6 8 5 8 -3 0 -8
5 -10 12 -6 22 14 49 12 44 -2 -3 -7 -1 -16 5 -19 5 -4 9 -3 8 2 -4 24 7 28
80 28 50 0 77 -4 73 -10 -3 -5 2 -4 11 4 12 9 17 10 17 2 0 -7 5 -9 11 -6 16
10 69 12 70 3 1 -4 2 -12 3 -17 0 -5 4 -13 8 -16 4 -4 5 5 2 20 -4 25 -3 27
11 15 8 -7 15 -8 15 -3 0 5 9 9 19 9 11 0 17 -5 13 -11 -3 -5 1 -4 10 2 8 7
18 9 22 5 11 -10 30 -9 38 3 5 6 8 5 8 -3 0 -8 5 -10 12 -6 22 14 49 12 44 -2
-3 -7 -1 -16 5 -19 5 -4 9 -3 8 2 -4 24 7 28 80 28 50 0 77 -4 73 -10 -3 -5 2
-4 11 4 12 9 17 10 17 2 0 -7 5 -9 11 -6 16 10 69 12 70 3 1 -4 2 -12 3 -17 0
-5 4 -13 8 -16 4 -4 5 5 2 20 -4 25 -3 27 11 15 8 -7 15 -8 15 -3 0 5 9 9 19
9 11 0 17 -5 13 -11 -3 -5 1 -4 10 2 8 7 18 9 22 5 11 -10 30 -9 38 3 5 6 8 5
8 -3 0 -8 5 -10 12 -6 22 14 49 12 44 -2 -3 -7 -1 -16 5 -19 5 -4 9 -3 8 2 -4
24 7 28 80 28 50 0 77 -4 73 -10 -3 -5 2 -4 11 4 12 9 17 10 17 2 0 -7 5 -9
11 -6 16 10 69 12 70 3 1 -4 2 -12 3 -17 0 -5 4 -13 8 -16 4 -4 5 5 2 20 -4
25 -3 27 11 15 8 -7 15 -8 15 -3 0 5 9 9 19 9 11 0 17 -5 13 -11 -3 -5 1 -4
10 2 8 7 18 9 22 5 11 -10 30 -9 38 3 5 6 8 5 8 -3 0 -8 5 -10 12 -6 22 14 49
12 44 -2 -3 -7 -1 -16 5 -19 5 -4 9 -3 8 2 -4 24 7 28 80 28 50 0 77 -4 73
-10 -3 -5 2 -4 11 4 12 9 17 10 17 2 0 -7 5 -9 11 -6 16 10 69 12 70 3 1 -4 2
-12 3 -17 0 -5 4 -13 8 -16 4 -4 5 5 2 20 -4 25 -3 27 11 15 8 -7 15 -8 15 -3
0 5 9 9 19 9 11 0 17 -5 13 -11 -3 -5 1 -4 10 2 8 7 18 9 22 5 11 -10 30 -9
38 3 5 6 8 5 8 -3 0 -8 5 -10 12 -6 22 14 49 12 44 -2 -3 -7 -1 -16 5 -19 5
-4 9 -3 8 2 -4 24 7 28 80 28 50 0 77 -4 73 -10 -3 -5 2 -4 11 4 12 9 17 10
17 2 0 -7 5 -9 11 -6 16 10 69 12 70 3 1 -4 2 -12 3 -17 0 -5 4 -13 8 -16 4
-4 5 5 2 20 -4 25 -3 27 11 15 8 -7 15 -8 15 -3 0 5 9 9 19 9 11 0 17 -5 13
-11 -3 -5 1 -4 10 2 8 7 18 9 22 5 11 -10 30 -9 38 3 5 6 8 5 8 -3 0 -8 5 -10
12 -6 22 14 49 12 44 -2 -3 -7 -1 -16 5 -19 5 -4 9 -3 8 2 -4 24 7 28 80 28
50 0 77 -4 73 -10 -3 -5 2 -4 11 4 12 9 17 10 17 2 0 -7 5 -9 11 -6 16 10 69
12 70 3 1 -4 2 -12 3 -17 0 -5 4 -13 8 -16 4 -4 5 5 2 20 -4 25 -3 27 11 15 8
-7 15 -8 15 -3 0 5 9 9 19 9 11 0 17 -5 13 -11 -3 -5 1 -4 10 2 8 7 18 9 22 5
11 -10 30 -9 38 3 5 6 8 5 8 -3 0 -8 5 -10 12 -6 22 14 49 12 44 -2 -3 -7 -1
-16 5 -19 5 -4 9 -3 8 2 -4 24 7 28 80 28 50 0 77 -4 73 -10 -3 -5 2 -4 11 4
12 9 17 10 17 2 0 -7 5 -9 11 -6 16 10 69 12 70 3 1 -4 2 -12 3 -17 0 -5 4
-13 8 -16 4 -4 5 5 2 20 -4 25 -3 27 11 15 8 -7 15 -9 15 -4 0 5 16 9 35 9 26
0 34 -4 30 -14 -4 -11 -3 -12 10 -1 8 7 15 9 15 4 0 -5 5 -2 10 6 7 11 10 11
10 2 0 -8 5 -10 12 -6 22 14 49 12 44 -2 -3 -7 -1 -16 5 -19 5 -4 9 -3 8 2 -4
22 4 28 39 28 20 0 43 -7 50 -15 9 -11 12 -12 10 -1 -2 7 5 15 15 16 13 2 17
-1 13 -11 -4 -11 0 -11 19 2 18 12 25 13 25 4 0 -9 3 -10 13 -1 10 8 17 7 25
-1 7 -7 12 -8 12 -2 0 5 16 9 35 9 26 0 34 -4 30 -14 -4 -11 -2 -11 8 -3 8 7
17 9 20 5 4 -3 7 -1 7 7 0 10 4 10 17 -1 9 -8 14 -9 10 -3 -4 7 6 11 26 13 18
0 41 2 52 4 11 1 19 -3 18 -9 -1 -6 5 -11 12 -11 11 0 12 4 4 14 -8 9 -7 14 4
19 9 3 21 3 27 -1 5 -3 10 -1 10 6 0 7 3 9 7 6 3 -4 12 -2 20 4 10 9 13 8 13
-2 0 -9 3 -10 8 -3 7 11 32 22 43 20 3 0 13 5 22 13 10 7 17 10 17 5 0 -5 4
-4 8 1 4 6 23 18 42 27 52 26 91 50 120 76 14 13 37 31 53 40 15 9 27 22 27
29 0 7 6 13 14 13 8 0 18 9 21 20 3 11 13 20 21 20 8 0 12 5 9 10 -3 6 2 14
12 18 10 4 18 14 18 22 0 8 6 14 13 12 8 -1 11 1 8 6 -3 5 6 25 20 45 14 20
21 37 17 37 -4 0 0 5 10 11 9 6 15 14 12 20 -4 5 -1 9 4 9 6 0 10 3 9 8 0 4 3
16 7 27 31 76 43 114 38 119 -4 3 -2 6 3 6 6 0 11 10 12 23 2 41 13 112 19
127 8 20 3 105 -12 217 -4 24 -6 44 -5 45 2 6 -59 166 -75 199 -59 115 -193
266 -301 337 -21 13 -172 90 -179 91 -3 1 -6 1 -7 2 -2 0 -10 2 -18 4 -8 2
-49 13 -90 24 -73 19 -122 19 -2306 20 -1227 0 -2233 -1 -2235 -3z"/>
<path d="M8656 6858 c3 -5 10 -6 15 -3 13 9 11 12 -6 12 -8 0 -12 -4 -9 -9z"/>
<path d="M8575 6780 c3 -5 8 -10 11 -10 2 0 4 5 4 10 0 6 -5 10 -11 10 -5 0
-7 -4 -4 -10z"/>
<path d="M8386 6618 c3 -5 10 -6 15 -3 13 9 11 12 -6 12 -8 0 -12 -4 -9 -9z"/>
<path d="M8446 6622 c-3 -5 1 -9 9 -9 8 0 12 4 9 9 -3 4 -7 8 -9 8 -2 0 -6 -4
-9 -8z"/>
<path d="M8413 6575 c0 -8 4 -12 9 -9 5 3 6 10 3 15 -9 13 -12 11 -12 -6z"/>
<path d="M8295 6540 c3 -5 8 -10 11 -10 2 0 4 5 4 10 0 6 -5 10 -11 10 -5 0
-7 -4 -4 -10z"/>
<path d="M8355 6540 c-3 -5 -1 -10 4 -10 6 0 11 5 11 10 0 6 -2 10 -4 10 -3 0
-8 -4 -11 -10z"/>
<path d="M8165 6519 c-3 -4 2 -6 10 -5 21 3 28 13 10 13 -9 0 -18 -4 -20 -8z"/>
<path d="M8239 6513 c-13 -16 -12 -17 4 -4 9 7 17 15 17 17 0 8 -8 3 -21 -13z"/>
<path d="M8153 6485 c0 -8 4 -12 9 -9 5 3 6 10 3 15 -9 13 -12 11 -12 -6z"/>
<path d="M4147 6479 c7 -7 15 -10 18 -7 3 3 -2 9 -12 12 -14 6 -15 5 -6 -5z"/>
<path d="M4393 6473 c0 -9 4 -10 14 -2 7 6 13 12 13 14 0 1 -6 2 -13 2 -8 0
-14 -6 -14 -14z"/>
<path d="M4500 6486 c0 -2 8 -10 18 -17 15 -13 16 -12 3 4 -13 16 -21 21 -21
13z"/>
<path d="M4873 6473 c0 -9 4 -10 14 -2 7 6 13 12 13 14 0 1 -6 2 -13 2 -8 0
-14 -6 -14 -14z"/>
<path d="M4980 6486 c0 -2 8 -10 18 -17 15 -13 16 -12 3 4 -13 16 -21 21 -21
13z"/>
<path d="M5353 6473 c0 -9 4 -10 14 -2 7 6 13 12 13 14 0 1 -6 2 -13 2 -8 0
-14 -6 -14 -14z"/>
<path d="M5460 6486 c0 -2 8 -10 18 -17 15 -13 16 -12 3 4 -13 16 -21 21 -21
13z"/>
<path d="M5833 6473 c0 -9 4 -10 14 -2 7 6 13 12 13 14 0 1 -6 2 -13 2 -8 0
-14 -6 -14 -14z"/>
<path d="M5940 6486 c0 -2 8 -10 18 -17 15 -13 16 -12 3 4 -13 16 -21 21 -21
13z"/>
<path d="M6313 6473 c0 -9 4 -10 14 -2 7 6 13 12 13 14 0 1 -6 2 -13 2 -8 0
-14 -6 -14 -14z"/>
<path d="M6420 6486 c0 -2 8 -10 18 -17 15 -13 16 -12 3 4 -13 16 -21 21 -21
13z"/>
<path d="M6793 6473 c0 -9 4 -10 14 -2 7 6 13 12 13 14 0 1 -6 2 -13 2 -8 0
-14 -6 -14 -14z"/>
<path d="M6900 6486 c0 -2 8 -10 18 -17 15 -13 16 -12 3 4 -13 16 -21 21 -21
13z"/>
<path d="M7273 6473 c0 -9 4 -10 14 -2 7 6 13 12 13 14 0 1 -6 2 -13 2 -8 0
-14 -6 -14 -14z"/>
<path d="M7380 6486 c0 -2 8 -10 18 -17 15 -13 16 -12 3 4 -13 16 -21 21 -21
13z"/>
<path d="M7550 6475 c5 -7 6 -16 2 -21 -4 -5 -3 -5 2 -1 15 12 15 34 0 34 -9
0 -11 -4 -4 -12z"/>
<path d="M7766 6482 c-3 -5 1 -9 9 -9 8 0 12 4 9 9 -3 4 -7 8 -9 8 -2 0 -6 -4
-9 -8z"/>
<path d="M3950 6466 c0 -2 7 -7 16 -10 8 -3 12 -2 9 4 -6 10 -25 14 -25 6z"/>
<path d="M8210 6466 c0 -2 7 -7 16 -10 8 -3 12 -2 9 4 -6 10 -25 14 -25 6z"/>
<path d="M3910 6456 c0 -2 8 -10 18 -17 15 -13 16 -12 3 4 -13 16 -21 21 -21
13z"/>
<path d="M4150 6456 c0 -2 8 -10 18 -17 15 -13 16 -12 3 4 -13 16 -21 21 -21
13z"/>
<path d="M4256 6438 c3 -5 10 -6 15 -3 13 9 11 12 -6 12 -8 0 -12 -4 -9 -9z"/>
<path d="M4736 6438 c3 -5 10 -6 15 -3 13 9 11 12 -6 12 -8 0 -12 -4 -9 -9z"/>
<path d="M5216 6438 c3 -5 10 -6 15 -3 13 9 11 12 -6 12 -8 0 -12 -4 -9 -9z"/>
<path d="M5696 6438 c3 -5 10 -6 15 -3 13 9 11 12 -6 12 -8 0 -12 -4 -9 -9z"/>
<path d="M6176 6438 c3 -5 10 -6 15 -3 13 9 11 12 -6 12 -8 0 -12 -4 -9 -9z"/>
<path d="M6656 6438 c3 -5 10 -6 15 -3 13 9 11 12 -6 12 -8 0 -12 -4 -9 -9z"/>
<path d="M7136 6438 c3 -5 10 -6 15 -3 13 9 11 12 -6 12 -8 0 -12 -4 -9 -9z"/>
<path d="M8019 6448 c-5 -18 -6 -38 -1 -34 7 8 12 36 6 36 -2 0 -4 -1 -5 -2z"/>
<path d="M8126 6442 c-3 -5 1 -9 9 -9 8 0 12 4 9 9 -3 4 -7 8 -9 8 -2 0 -6 -4
-9 -8z"/>
<path d="M7973 6425 c0 -8 4 -12 9 -9 5 3 6 10 3 15 -9 13 -12 11 -12 -6z"/>
<path d="M4295 6420 c3 -5 8 -10 11 -10 2 0 4 5 4 10 0 6 -5 10 -11 10 -5 0
-7 -4 -4 -10z"/>
<path d="M4535 6420 c3 -5 8 -10 11 -10 2 0 4 5 4 10 0 6 -5 10 -11 10 -5 0
-7 -4 -4 -10z"/>
<path d="M4775 6420 c3 -5 8 -10 11 -10 2 0 4 5 4 10 0 6 -5 10 -11 10 -5 0
-7 -4 -4 -10z"/>
<path d="M5015 6420 c3 -5 8 -10 11 -10 2 0 4 5 4 10 0 6 -5 10 -11 10 -5 0
-7 -4 -4 -10z"/>
<path d="M5255 6420 c3 -5 8 -10 11 -10 2 0 4 5 4 10 0 6 -5 10 -11 10 -5 0
-7 -4 -4 -10z"/>
<path d="M5495 6420 c3 -5 8 -10 11 -10 2 0 4 5 4 10 0 6 -5 10 -11 10 -5 0
-7 -4 -4 -10z"/>
<path d="M5735 6420 c3 -5 8 -10 11 -10 2 0 4 5 4 10 0 6 -5 10 -11 10 -5 0
-7 -4 -4 -10z"/>
<path d="M5975 6420 c3 -5 8 -10 11 -10 2 0 4 5 4 10 0 6 -5 10 -11 10 -5 0
-7 -4 -4 -10z"/>
<path d="M6215 6420 c3 -5 8 -10 11 -10 2 0 4 5 4 10 0 6 -5 10 -11 10 -5 0
-7 -4 -4 -10z"/>
<path d="M6455 6420 c3 -5 8 -10 11 -10 2 0 4 5 4 10 0 6 -5 10 -11 10 -5 0
-7 -4 -4 -10z"/>
<path d="M6695 6420 c3 -5 8 -10 11 -10 2 0 4 5 4 10 0 6 -5 10 -11 10 -5 0
-7 -4 -4 -10z"/>
<path d="M6935 6420 c3 -5 8 -10 11 -10 2 0 4 5 4 10 0 6 -5 10 -11 10 -5 0
-7 -4 -4 -10z"/>
<path d="M7175 6420 c3 -5 8 -10 11 -10 2 0 4 5 4 10 0 6 -5 10 -11 10 -5 0
-7 -4 -4 -10z"/>
<path d="M7415 6420 c3 -5 8 -10 11 -10 2 0 4 5 4 10 0 6 -5 10 -11 10 -5 0
-7 -4 -4 -10z"/>
<path d="M7655 6420 c3 -5 8 -10 11 -10 2 0 4 5 4 10 0 6 -5 10 -11 10 -5 0
-7 -4 -4 -10z"/>
<path d="M3830 6376 c0 -2 8 -10 18 -17 15 -13 16 -12 3 4 -13 16 -21 21 -21
13z"/>
<path d="M4473 6355 c0 -8 4 -12 9 -9 5 3 6 10 3 15 -9 13 -12 11 -12 -6z"/>
<path d="M4953 6355 c0 -8 4 -12 9 -9 5 3 6 10 3 15 -9 13 -12 11 -12 -6z"/>
<path d="M5433 6355 c0 -8 4 -12 9 -9 5 3 6 10 3 15 -9 13 -12 11 -12 -6z"/>
<path d="M5913 6355 c0 -8 4 -12 9 -9 5 3 6 10 3 15 -9 13 -12 11 -12 -6z"/>
<path d="M6393 6355 c0 -8 4 -12 9 -9 5 3 6 10 3 15 -9 13 -12 11 -12 -6z"/>
<path d="M6873 6355 c0 -8 4 -12 9 -9 5 3 6 10 3 15 -9 13 -12 11 -12 -6z"/>
<path d="M7353 6355 c0 -8 4 -12 9 -9 5 3 6 10 3 15 -9 13 -12 11 -12 -6z"/>
<path d="M3696 6258 c3 -4 11 -5 19 -1 21 7 19 12 -4 10 -11 0 -18 -5 -15 -9z"/>
<path d="M3626 6218 c3 -5 10 -6 15 -3 13 9 11 12 -6 12 -8 0 -12 -4 -9 -9z"/>
<path d="M7135 5503 c-157 -32 -286 -86 -387 -161 -66 -50 -128 -109 -128
-122 0 -5 -4 -10 -9 -10 -15 0 -92 -119 -130 -203 -57 -122 -74 -201 -76 -352
-1 -71 2 -136 8 -142 5 -7 7 -13 4 -13 -3 0 3 -32 14 -71 92 -331 369 -577
704 -625 113 -17 266 -5 375 27 174 52 357 187 455 334 30 46 88 150 90 165 1
3 11 35 23 73 12 37 25 89 29 115 9 58 8 223 0 277 -10 59 -58 208 -74 226 -7
8 -13 21 -13 27 0 23 -95 149 -159 212 -116 115 -251 192 -386 222 -5 1 -34 7
-63 14 -49 12 -232 16 -277 7z"/>
<path d="M5810 4019 c0 -5 5 -7 10 -4 6 3 10 8 10 11 0 2 -4 4 -10 4 -5 0 -10
-5 -10 -11z"/>
<path d="M5715 3960 c3 -5 8 -10 11 -10 2 0 4 5 4 10 0 6 -5 10 -11 10 -5 0
-7 -4 -4 -10z"/>
<path d="M5713 3927 c0 -8 6 -14 14 -14 9 0 10 4 2 14 -6 7 -12 13 -14 13 -1
0 -2 -6 -2 -13z"/>
<path d="M5799 3893 c-13 -16 -12 -17 4 -4 9 7 17 15 17 17 0 8 -8 3 -21 -13z"/>
<path d="M5716 3882 c-3 -5 1 -9 9 -9 8 0 12 4 9 9 -3 4 -7 8 -9 8 -2 0 -6 -4
-9 -8z"/>
<path d="M5595 3820 c3 -5 8 -10 11 -10 2 0 4 5 4 10 0 6 -5 10 -11 10 -5 0
-7 -4 -4 -10z"/>
<path d="M5399 3793 c-13 -16 -12 -17 4 -4 9 7 17 15 17 17 0 8 -8 3 -21 -13z"/>
<path d="M4394 3786 c1 -8 5 -18 8 -22 4 -3 5 1 4 10 -1 8 -5 18 -8 22 -4 3
-5 -1 -4 -10z"/>
<path d="M4634 3786 c1 -8 5 -18 8 -22 4 -3 5 1 4 10 -1 8 -5 18 -8 22 -4 3
-5 -1 -4 -10z"/>
<path d="M4874 3786 c1 -8 5 -18 8 -22 4 -3 5 1 4 10 -1 8 -5 18 -8 22 -4 3
-5 -1 -4 -10z"/>
<path d="M5035 3791 c-3 -5 -2 -12 3 -15 5 -3 9 1 9 9 0 17 -3 19 -12 6z"/>
<path d="M3915 3781 c-3 -5 -2 -12 3 -15 5 -3 9 1 9 9 0 17 -3 19 -12 6z"/>
<path d="M3996 3782 c-2 -4 -1 -14 4 -22 7 -11 9 -9 7 8 -1 24 -3 26 -11 14z"/>
<path d="M4033 3769 c-2 -23 3 -25 10 -4 4 8 3 16 -1 19 -4 3 -9 -4 -9 -15z"/>
<path d="M4066 3778 c3 -5 10 -6 15 -3 13 9 11 12 -6 12 -8 0 -12 -4 -9 -9z"/>
<path d="M4270 3778 c0 -4 4 -8 9 -8 6 0 12 4 15 8 3 5 -1 9 -9 9 -8 0 -15 -4
-15 -9z"/>
<path d="M4513 3769 c-2 -23 3 -25 10 -4 4 8 3 16 -1 19 -4 3 -9 -4 -9 -15z"/>
<path d="M4547 3779 c7 -7 15 -10 18 -7 3 3 -2 9 -12 12 -14 6 -15 5 -6 -5z"/>
<path d="M4750 3778 c0 -4 4 -8 9 -8 6 0 12 4 15 8 3 5 -1 9 -9 9 -8 0 -15 -4
-15 -9z"/>
<path d="M5536 3782 c-3 -5 1 -9 9 -9 8 0 12 4 9 9 -3 4 -7 8 -9 8 -2 0 -6 -4
-9 -8z"/>
<path d="M4476 3767 c3 -10 9 -15 12 -12 3 3 0 11 -7 18 -10 9 -11 8 -5 -6z"/>
<path d="M5193 3765 c0 -8 4 -12 9 -9 5 3 6 10 3 15 -9 13 -12 11 -12 -6z"/>
<path d="M4145 3760 c-3 -6 1 -7 9 -4 18 7 21 14 7 14 -6 0 -13 -4 -16 -10z"/>
<path d="M4580 3766 c0 -2 8 -10 18 -17 15 -13 16 -12 3 4 -13 16 -21 21 -21
13z"/>
<path d="M5159 3753 c-13 -16 -12 -17 4 -4 9 7 17 15 17 17 0 8 -8 3 -21 -13z"/>
<path d="M3907 3739 c7 -7 15 -10 18 -7 3 3 -2 9 -12 12 -14 6 -15 5 -6 -5z"/>
<path d="M5335 3740 c3 -5 8 -10 11 -10 2 0 4 5 4 10 0 6 -5 10 -11 10 -5 0
-7 -4 -4 -10z"/>
<path d="M5370 3740 c0 -5 5 -10 11 -10 5 0 7 5 4 10 -3 6 -8 10 -11 10 -2 0
-4 -4 -4 -10z"/>
<path d="M4990 3736 c0 -2 8 -10 18 -17 15 -13 16 -12 3 4 -13 16 -21 21 -21
13z"/>
<path d="M3850 3719 c0 -5 5 -7 10 -4 6 3 10 8 10 11 0 2 -4 4 -10 4 -5 0 -10
-5 -10 -11z"/>
<path d="M4219 3728 c-5 -18 -6 -38 -1 -34 7 8 12 36 6 36 -2 0 -4 -1 -5 -2z"/>
<path d="M4250 3720 c0 -5 5 -10 11 -10 5 0 7 5 4 10 -3 6 -8 10 -11 10 -2 0
-4 -4 -4 -10z"/>
<path d="M4699 3728 c-5 -18 -6 -38 -1 -34 7 8 12 36 6 36 -2 0 -4 -1 -5 -2z"/>
<path d="M4730 3720 c0 -5 5 -10 11 -10 5 0 7 5 4 10 -3 6 -8 10 -11 10 -2 0
-4 -4 -4 -10z"/>
<path d="M3955 3699 c-3 -4 2 -6 10 -5 21 3 28 13 10 13 -9 0 -18 -4 -20 -8z"/>
<path d="M4533 3695 c0 -8 4 -12 9 -9 5 3 6 10 3 15 -9 13 -12 11 -12 -6z"/>
<path d="M5215 3701 c-3 -5 -2 -12 3 -15 5 -3 9 1 9 9 0 17 -3 19 -12 6z"/>
<path d="M4470 3696 c0 -2 8 -10 18 -17 15 -13 16 -12 3 4 -13 16 -21 21 -21
13z"/>
<path d="M3787 3679 c7 -7 15 -10 18 -7 3 3 -2 9 -12 12 -14 6 -15 5 -6 -5z"/>
<path d="M3790 3641 c0 -6 4 -13 10 -16 6 -3 7 1 4 9 -7 18 -14 21 -14 7z"/>
<path d="M3669 3603 c-13 -16 -12 -17 4 -4 16 13 21 21 13 21 -2 0 -10 -8 -17
-17z"/>
<path d="M3646 3558 c3 -5 10 -6 15 -3 13 9 11 12 -6 12 -8 0 -12 -4 -9 -9z"/>
<path d="M3635 3529 c-4 -6 -5 -12 -2 -15 2 -3 7 2 10 11 7 17 1 20 -8 4z"/>
<path d="M1055 2200 c-3 -5 -1 -10 4 -10 6 0 11 5 11 10 0 6 -2 10 -4 10 -3 0
-8 -4 -11 -10z"/>
<path d="M1255 1980 c3 -5 8 -10 11 -10 2 0 4 5 4 10 0 6 -5 10 -11 10 -5 0
-7 -4 -4 -10z"/>
<path d="M1193 1965 c0 -8 4 -12 9 -9 5 3 6 10 3 15 -9 13 -12 11 -12 -6z"/>
<path d="M1295 1951 c-3 -5 -2 -12 3 -15 5 -3 9 1 9 9 0 17 -3 19 -12 6z"/>
<path d="M1335 1900 c-3 -5 -1 -10 4 -10 6 0 11 5 11 10 0 6 -2 10 -4 10 -3 0
-8 -4 -11 -10z"/>
<path d="M1370 1859 c0 -5 5 -7 10 -4 6 3 10 8 10 11 0 2 -4 4 -10 4 -5 0 -10
-5 -10 -11z"/>
<path d="M1413 1835 c0 -8 4 -12 9 -9 5 3 6 10 3 15 -9 13 -12 11 -12 -6z"/>
<path d="M1466 1802 c-3 -5 1 -9 9 -9 8 0 12 4 9 9 -3 4 -7 8 -9 8 -2 0 -6 -4
-9 -8z"/>
<path d="M1666 1622 c-3 -5 1 -9 9 -9 8 0 12 4 9 9 -3 4 -7 8 -9 8 -2 0 -6 -4
-9 -8z"/>
<path d="M1786 1558 c3 -5 10 -6 15 -3 13 9 11 12 -6 12 -8 0 -12 -4 -9 -9z"/>
<path d="M1830 1536 c0 -2 8 -10 18 -17 15 -13 16 -12 3 4 -13 16 -21 21 -21
13z"/>
<path d="M8756 1513 c-6 -14 -5 -15 5 -6 7 7 10 15 7 18 -3 3 -9 -2 -12 -12z"/>
<path d="M1830 1501 c0 -6 4 -13 10 -16 6 -3 7 1 4 9 -7 18 -14 21 -14 7z"/>
<path d="M1955 1440 c-3 -5 -1 -10 4 -10 6 0 11 5 11 10 0 6 -2 10 -4 10 -3 0
-8 -4 -11 -10z"/>
<path d="M2025 1400 c-3 -6 1 -7 9 -4 18 7 21 14 7 14 -6 0 -13 -4 -16 -10z"/>
<path d="M2070 1358 c0 -4 4 -8 9 -8 6 0 12 4 15 8 3 5 -1 9 -9 9 -8 0 -15 -4
-15 -9z"/>
<path d="M2150 1317 c0 -2 6 -10 14 -16 11 -9 16 -9 22 1 4 7 4 10 -1 6 -4 -4
-14 -3 -22 3 -7 6 -13 9 -13 6z"/>
<path d="M2216 1298 c3 -5 10 -6 15 -3 13 9 11 12 -6 12 -8 0 -12 -4 -9 -9z"/>
<path d="M2256 1302 c-2 -4 9 -8 25 -8 33 -2 33 4 1 11 -12 2 -24 1 -26 -3z"/>
<path d="M2340 1279 c0 -5 5 -7 10 -4 6 3 10 8 10 11 0 2 -4 4 -10 4 -5 0 -10
-5 -10 -11z"/>
<path d="M2270 1259 c0 -5 5 -7 10 -4 6 3 10 8 10 11 0 2 -4 4 -10 4 -5 0 -10
-5 -10 -11z"/>
<path d="M2377 1235 c-4 -8 -3 -16 1 -19 4 -3 9 4 9 15 2 23 -3 25 -10 4z"/>
<path d="M8435 1140 c3 -5 8 -10 11 -10 2 0 4 5 4 10 0 6 -5 10 -11 10 -5 0
-7 -4 -4 -10z"/>
<path d="M2673 1127 c0 -8 6 -14 14 -14 9 0 10 4 2 14 -6 7 -12 13 -14 13 -1
0 -2 -6 -2 -13z"/>
<path d="M2585 1120 c-3 -6 1 -7 9 -4 18 7 21 14 7 14 -6 0 -13 -4 -16 -10z"/>
<path d="M8335 1100 c3 -5 8 -10 11 -10 2 0 4 5 4 10 0 6 -5 10 -11 10 -5 0
-7 -4 -4 -10z"/>
<path d="M8366 1102 c-3 -5 1 -9 9 -9 8 0 12 4 9 9 -3 4 -7 8 -9 8 -2 0 -6 -4
-9 -8z"/>
<path d="M8190 1081 c0 -6 4 -13 10 -16 6 -3 7 1 4 9 -7 18 -14 21 -14 7z"/>
<path d="M8154 1066 c1 -8 5 -18 8 -22 4 -3 5 1 4 10 -1 8 -5 18 -8 22 -4 3
-5 -1 -4 -10z"/>
<path d="M3140 1046 c0 -2 8 -10 18 -17 15 -13 16 -12 3 4 -13 16 -21 21 -21
13z"/>
<path d="M5750 1045 c0 -7 30 -13 34 -7 3 4 -4 9 -15 9 -10 1 -19 0 -19 -2z"/>
<path d="M6673 1025 c0 -8 4 -12 9 -9 5 3 6 10 3 15 -9 13 -12 11 -12 -6z"/>
<path d="M7793 1025 c0 -8 4 -12 9 -9 5 3 6 10 3 15 -9 13 -12 11 -12 -6z"/>
<path d="M7955 1031 c-3 -5 -2 -12 3 -15 5 -3 9 1 9 9 0 17 -3 19 -12 6z"/>
<path d="M3055 1020 c3 -5 8 -10 11 -10 2 0 4 5 4 10 0 6 -5 10 -11 10 -5 0
-7 -4 -4 -10z"/>
<path d="M4590 1026 c0 -2 7 -7 16 -10 8 -3 12 -2 9 4 -6 10 -25 14 -25 6z"/>
<path d="M5230 1026 c0 -2 7 -7 16 -10 8 -3 12 -2 9 4 -6 10 -25 14 -25 6z"/>
<path d="M6190 1026 c0 -2 7 -7 16 -10 8 -3 12 -2 9 4 -6 10 -25 14 -25 6z"/>
<path d="M7150 1026 c0 -2 7 -7 16 -10 8 -3 12 -2 9 4 -6 10 -25 14 -25 6z"/>
<path d="M5775 1009 c-4 -6 -5 -12 -2 -15 2 -3 7 2 10 11 7 17 1 20 -8 4z"/>
<path d="M5976 1007 c3 -10 9 -15 12 -12 3 3 0 11 -7 18 -10 9 -11 8 -5 -6z"/>
<path d="M6735 1009 c-4 -6 -5 -12 -2 -15 2 -3 7 2 10 11 7 17 1 20 -8 4z"/>
<path d="M6936 1007 c3 -10 9 -15 12 -12 3 3 0 11 -7 18 -10 9 -11 8 -5 -6z"/>
<path d="M3399 993 c-13 -16 -12 -17 4 -4 16 13 21 21 13 21 -2 0 -10 -8 -17
-17z"/>
<path d="M4697 995 c-4 -8 -3 -16 1 -19 4 -3 9 4 9 15 2 23 -3 25 -10 4z"/>
<path d="M4936 998 c3 -5 10 -6 15 -3 13 9 11 12 -6 12 -8 0 -12 -4 -9 -9z"/>
<path d="M5337 995 c-4 -8 -3 -16 1 -19 4 -3 9 4 9 15 2 23 -3 25 -10 4z"/>
<path d="M5576 998 c3 -5 10 -6 15 -3 13 9 11 12 -6 12 -8 0 -12 -4 -9 -9z"/>
<path d="M6297 995 c-4 -8 -3 -16 1 -19 4 -3 9 4 9 15 2 23 -3 25 -10 4z"/>
<path d="M6535 1000 c3 -5 8 -10 11 -10 2 0 4 5 4 10 0 6 -5 10 -11 10 -5 0
-7 -4 -4 -10z"/>
<path d="M7257 995 c-4 -8 -3 -16 1 -19 4 -3 9 4 9 15 2 23 -3 25 -10 4z"/>
<path d="M7496 998 c3 -5 10 -6 15 -3 13 9 11 12 -6 12 -8 0 -12 -4 -9 -9z"/>
<path d="M8186 1002 c-3 -5 1 -9 9 -9 8 0 12 4 9 9 -3 4 -7 8 -9 8 -2 0 -6 -4
-9 -8z"/>
<path d="M7775 991 c-3 -5 -2 -12 3 -15 5 -3 9 1 9 9 0 17 -3 19 -12 6z"/>
<path d="M3787 979 c7 -7 15 -10 18 -7 3 3 -2 9 -12 12 -14 6 -15 5 -6 -5z"/>
<path d="M6695 980 c-3 -5 -1 -10 4 -10 6 0 11 5 11 10 0 6 -2 10 -4 10 -3 0
-8 -4 -11 -10z"/>
<path d="M7810 980 c0 -5 5 -10 11 -10 5 0 7 5 4 10 -3 6 -8 10 -11 10 -2 0
-4 -4 -4 -10z"/>
<path d="M8074 982 c4 -3 14 -7 22 -8 9 -1 13 0 10 4 -4 3 -14 7 -22 8 -9 1
-13 0 -10 -4z"/>
<path d="M4275 971 c-3 -5 -2 -12 3 -15 5 -3 9 1 9 9 0 17 -3 19 -12 6z"/>
<path d="M4355 969 c-4 -6 -5 -12 -2 -15 2 -3 7 2 10 11 7 17 1 20 -8 4z"/>
<path d="M3946 962 c-3 -5 1 -9 9 -9 8 0 12 4 9 9 -3 4 -7 8 -9 8 -2 0 -6 -4
-9 -8z"/>
<path d="M7896 962 c-3 -5 1 -9 9 -9 8 0 12 4 9 9 -3 4 -7 8 -9 8 -2 0 -6 -4
-9 -8z"/>
<path d="M3533 945 c0 -8 4 -12 9 -9 5 3 6 10 3 15 -9 13 -12 11 -12 -6z"/>
<path d="M3456 941 c-3 -5 2 -15 12 -22 15 -12 16 -12 5 2 -7 9 -10 19 -6 22
3 4 4 7 0 7 -3 0 -8 -4 -11 -9z"/>
<path d="M3566 942 c-3 -5 1 -9 9 -9 8 0 12 4 9 9 -3 4 -7 8 -9 8 -2 0 -6 -4
-9 -8z"/>
<path d="M3790 945 c0 -7 30 -13 34 -7 3 4 -4 9 -15 9 -10 1 -19 0 -19 -2z"/>
<path d="M4095 940 c3 -5 8 -10 11 -10 2 0 4 5 4 10 0 6 -5 10 -11 10 -5 0 -7
-4 -4 -10z"/>
<path d="M4173 935 c0 -8 4 -12 9 -9 5 3 6 10 3 15 -9 13 -12 11 -12 -6z"/>
<path d="M4256 941 c-3 -5 2 -15 12 -22 15 -12 16 -12 5 2 -7 9 -10 19 -6 22
3 4 4 7 0 7 -3 0 -8 -4 -11 -9z"/>
<path d="M4415 941 c-3 -5 -2 -12 3 -15 5 -3 9 1 9 9 0 17 -3 19 -12 6z"/>
<path d="M4475 940 c3 -5 8 -10 11 -10 2 0 4 5 4 10 0 6 -5 10 -11 10 -5 0 -7
-4 -4 -10z"/>
<path d="M6015 941 c-3 -5 -2 -12 3 -15 5 -3 9 1 9 9 0 17 -3 19 -12 6z"/>
<path d="M6975 941 c-3 -5 -2 -12 3 -15 5 -3 9 1 9 9 0 17 -3 19 -12 6z"/>
<path d="M7035 940 c3 -5 8 -10 11 -10 2 0 4 5 4 10 0 6 -5 10 -11 10 -5 0 -7
-4 -4 -10z"/>
<path d="M3756 918 c3 -5 10 -6 15 -3 13 9 11 12 -6 12 -8 0 -12 -4 -9 -9z"/>
</g>
</svg>
