<?xml version="1.0" standalone="no"?>
<!DOCTYPE svg PUBLIC "-//W3C//DTD SVG 20010904//EN"
 "http://www.w3.org/TR/2001/REC-SVG-20010904/DTD/svg10.dtd">
<svg version="1.0" xmlns="http://www.w3.org/2000/svg"
 width="700.000000pt" height="700.000000pt" viewBox="0 0 700.000000 700.000000"
 preserveAspectRatio="xMidYMid meet">
<metadata>
Created by potrace 1.14, written by Peter Selinger 2001-2017
</metadata>
<g transform="translate(0.000000,700.000000) scale(0.100000,-0.100000)"
fill="#000000" stroke="none">
<path d="M3298 6995 c-2 -2 -41 -6 -88 -9 -150 -12 -279 -29 -380 -52 -14 -3
-38 -7 -55 -10 -55 -9 -299 -75 -305 -82 -3 -4 -16 -8 -30 -10 -23 -2 -157
-48 -225 -77 -16 -7 -46 -18 -65 -26 -144 -52 -548 -274 -543 -298 2 -6 -4 -8
-14 -4 -9 4 -21 0 -27 -9 -6 -8 -17 -17 -23 -19 -27 -9 -282 -205 -283 -217 0
-6 -6 -11 -12 -10 -7 2 -12 -3 -10 -10 1 -6 -2 -11 -7 -10 -15 5 -111 -83
-104 -95 3 -5 1 -7 -5 -3 -6 3 -19 -5 -30 -19 -11 -14 -23 -25 -26 -25 -4 0
-29 -24 -56 -52 -130 -137 -170 -184 -166 -195 3 -7 0 -10 -7 -8 -7 2 -25 -14
-42 -36 -16 -22 -37 -48 -46 -57 -42 -45 -99 -134 -93 -144 4 -6 3 -8 -4 -4
-13 8 -89 -103 -187 -274 -67 -118 -163 -309 -168 -334 -1 -6 -4 -13 -7 -16
-4 -3 -16 -32 -29 -65 -39 -101 -73 -190 -75 -200 -2 -5 -6 -17 -9 -25 -5 -15
-29 -94 -61 -203 -9 -31 -14 -62 -11 -67 3 -6 1 -10 -4 -10 -6 0 -10 -3 -9 -7
1 -5 -3 -30 -9 -58 -13 -57 -49 -267 -57 -335 -33 -269 -25 -721 17 -960 2
-14 10 -58 16 -98 9 -50 16 -70 24 -65 8 4 8 2 0 -9 -7 -8 -10 -17 -7 -20 3
-4 8 -21 11 -40 2 -18 9 -35 14 -36 5 -2 7 -8 4 -13 -7 -10 42 -200 53 -209 4
-3 9 -16 10 -30 6 -45 64 -200 75 -200 6 0 8 -3 5 -6 -8 -7 21 -94 31 -94 4 0
8 -6 8 -14 0 -24 25 -76 34 -70 5 3 7 -1 4 -8 -9 -25 214 -438 237 -438 5 0 6
-4 3 -10 -3 -5 -1 -10 4 -10 6 0 11 -6 11 -13 0 -7 9 -23 20 -35 11 -12 20
-24 20 -27 0 -13 73 -104 80 -100 4 3 7 -1 6 -8 -2 -20 157 -216 172 -211 7 2
10 -1 7 -6 -13 -20 271 -301 415 -410 18 -14 38 -30 44 -35 6 -6 27 -22 46
-35 19 -13 40 -29 46 -35 29 -26 55 -45 61 -45 3 0 21 -11 39 -25 18 -14 37
-25 43 -25 6 0 11 -5 11 -11 0 -5 5 -7 10 -4 6 3 10 2 10 -4 0 -9 133 -90 155
-94 5 -1 14 -7 20 -14 5 -6 62 -37 125 -68 63 -32 127 -63 141 -71 69 -36 354
-142 399 -149 3 0 10 -3 16 -7 11 -7 261 -74 311 -83 16 -3 38 -7 50 -9 11 -3
43 -8 70 -12 26 -3 57 -8 68 -11 19 -3 43 -7 120 -18 17 -3 68 -7 115 -11 47
-3 103 -7 125 -9 22 -1 46 2 54 9 12 8 13 8 7 -2 -6 -10 35 -11 201 -7 114 2
219 6 233 9 14 2 56 7 95 11 38 4 74 9 78 12 5 3 26 7 46 9 84 8 162 23 271
50 52 14 102 26 111 28 9 3 49 14 90 27 41 12 79 24 84 25 6 1 48 17 95 34 47
17 99 36 115 42 17 6 34 15 40 19 5 5 17 9 27 9 10 0 18 5 18 10 0 6 3 9 8 8
14 -4 52 13 52 23 0 6 4 8 9 5 8 -5 260 118 271 133 3 3 17 12 33 20 15 8 27
18 27 22 0 5 7 6 15 3 8 -4 15 -2 15 3 0 4 20 19 45 33 25 14 45 28 45 31 0 4
9 9 21 12 13 4 18 10 13 18 -4 8 -3 10 4 5 9 -5 183 109 202 133 3 3 22 19 43
35 21 15 52 41 68 57 16 16 32 29 34 29 3 0 20 15 38 32 19 18 57 54 86 80 28
26 51 52 51 58 0 5 4 10 10 10 13 0 96 91 92 102 -1 5 1 7 6 4 5 -3 24 13 43
36 19 22 39 46 46 53 7 7 9 15 6 19 -4 3 0 6 8 6 8 0 39 35 69 77 30 41 60 81
66 87 22 23 123 176 116 176 -4 0 -2 4 4 8 21 13 114 173 108 184 -4 6 -3 8 3
5 19 -12 222 422 257 553 4 14 11 34 16 45 5 11 23 67 40 125 28 99 35 123 46
178 2 12 7 34 10 50 4 15 7 39 8 55 0 15 5 27 10 27 4 0 6 15 4 34 -2 19 0 32
4 30 4 -3 9 3 9 13 6 73 7 88 9 88 2 0 4 14 15 95 4 32 8 77 20 240 2 33 -1
61 -8 69 -9 12 -9 13 0 7 10 -5 11 35 8 181 -3 103 -7 206 -10 228 -2 22 -7
60 -9 85 -7 63 -15 122 -20 145 -2 11 -7 40 -11 65 -9 62 -54 269 -65 300 -10
31 -44 143 -45 150 -4 22 -32 102 -59 163 -9 21 -16 42 -16 47 0 5 -12 35 -26
67 -15 32 -28 63 -29 69 -4 18 -124 256 -155 309 -17 28 -35 60 -40 73 -5 12
-14 22 -20 22 -6 0 -9 4 -6 9 3 5 -1 14 -9 21 -8 7 -15 17 -15 22 0 16 -171
258 -236 335 -11 12 -34 40 -53 62 -19 22 -39 37 -44 34 -6 -3 -7 -1 -3 6 6
10 -55 84 -102 125 -7 6 -21 19 -30 30 -74 82 -193 187 -204 180 -6 -4 -8 -3
-5 3 5 8 -34 53 -47 53 -2 0 -23 18 -47 40 -24 22 -47 40 -51 40 -4 0 -22 14
-40 30 -18 17 -38 30 -45 30 -7 0 -13 3 -13 8 0 4 -18 18 -40 32 -22 14 -40
28 -40 32 0 5 -6 8 -14 8 -7 0 -19 7 -26 15 -7 9 -15 13 -17 11 -3 -2 -14 5
-25 16 -11 11 -26 17 -34 14 -7 -3 -13 -1 -11 5 1 6 -11 18 -28 28 -16 9 -59
33 -94 54 -35 21 -70 36 -78 33 -8 -3 -12 -2 -8 3 4 8 -36 29 -239 127 -16 8
-33 14 -38 14 -4 0 -27 8 -51 19 -23 10 -58 24 -77 31 -19 7 -44 16 -55 20
-21 9 -88 30 -108 34 -7 2 -25 8 -42 15 -16 7 -44 13 -61 14 -18 1 -30 5 -28
8 4 7 -260 68 -321 74 -22 2 -40 4 -40 5 0 1 -7 3 -15 5 -47 10 -82 15 -140
20 -36 4 -73 9 -84 12 -14 4 -16 2 -10 -8 6 -11 4 -11 -9 0 -14 11 -70 14
-262 16 -134 1 -246 1 -247 0z m627 -234 c3 -5 2 -12 -3 -15 -5 -3 -9 1 -9 9
0 17 3 19 12 6z m721 -136 c-1 -8 -5 -17 -8 -21 -5 -4 -4 16 1 34 3 9 9 -1 7
-13z m161 -40 c0 -8 -4 -12 -9 -9 -5 3 -6 10 -3 15 9 13 12 11 12 -6z m263
-61 c0 -8 -19 -13 -24 -6 -3 5 1 9 9 9 8 0 15 -2 15 -3z m-3306 -90 c3 -8 2
-12 -4 -9 -6 3 -10 10 -10 16 0 14 7 11 14 -7z m642 -140 c1 -9 0 -13 -4 -10
-3 4 -7 14 -8 22 -1 9 0 13 4 10 3 -4 7 -14 8 -22z m1118 -20 c3 -8 2 -12 -4
-9 -6 3 -10 10 -10 16 0 14 7 11 14 -7z m723 1 c0 -8 -4 -12 -9 -9 -5 3 -6 10
-3 15 9 13 12 11 12 -6z m-960 -160 c0 -8 -4 -12 -9 -9 -5 3 -6 10 -3 15 9 13
12 11 12 -6z m-1357 -59 c0 -2 -8 -10 -17 -17 -16 -13 -17 -12 -4 4 13 16 21
21 21 13z m3676 -71 c-1 -8 -5 -17 -8 -21 -5 -4 -4 16 1 34 3 9 9 -1 7 -13z
m-3521 -154 c3 -5 2 -12 -3 -15 -5 -3 -9 1 -9 9 0 17 3 19 12 6z m163 -36 c-3
-3 -9 2 -12 12 -6 14 -5 15 5 6 7 -7 10 -15 7 -18z m-1203 6 c3 -5 2 -12 -3
-15 -5 -3 -9 1 -9 9 0 17 3 19 12 6z m2321 -27 c1 -9 0 -13 -4 -10 -3 4 -7 14
-8 22 -1 9 0 13 4 10 3 -4 7 -14 8 -22z m409 -54 c-3 -5 -12 -10 -18 -10 -7 0
-6 4 3 10 19 12 23 12 15 0z m393 -85 c-3 -3 -9 2 -12 12 -6 14 -5 15 5 6 7
-7 10 -15 7 -18z m-2081 -20 c0 -8 -4 -12 -9 -9 -5 3 -6 10 -3 15 9 13 12 11
12 -6z m318 -44 c3 -5 2 -12 -3 -15 -5 -3 -9 1 -9 9 0 17 3 19 12 6z m1705 -7
c0 -8 -19 -13 -24 -6 -3 5 1 9 9 9 8 0 15 -2 15 -3z m540 2 c0 -3 -4 -8 -10
-11 -5 -3 -10 -1 -10 4 0 6 5 11 10 11 6 0 10 -2 10 -4z m1385 -5 c-9 -8 -36
-10 -30 -2 2 4 11 8 20 8 8 0 13 -3 10 -6z m-429 -107 c1 -9 0 -13 -4 -10 -3
4 -7 14 -8 22 -1 9 0 13 4 10 3 -4 7 -14 8 -22z m-79 -139 c0 -8 -4 -12 -9 -9
-5 3 -6 10 -3 15 9 13 12 11 12 -6z m-3440 -20 c0 -8 -4 -12 -9 -9 -5 3 -6 10
-3 15 9 13 12 11 12 -6z m-723 -133 c3 -5 -1 -9 -9 -9 -8 0 -12 4 -9 9 3 4 7
8 9 8 2 0 6 -4 9 -8z m4562 -137 c-1 -8 -5 -17 -8 -21 -5 -4 -4 16 1 34 3 9 9
-1 7 -13z m320 -11 c1 -9 0 -13 -4 -10 -3 4 -7 14 -8 22 -1 9 0 13 4 10 3 -4
7 -14 8 -22z m-4642 -20 c3 -8 2 -12 -4 -9 -6 3 -10 10 -10 16 0 14 7 11 14
-7z m243 -159 c0 -8 -4 -12 -9 -9 -5 3 -6 10 -3 15 9 13 12 11 12 -6z m3920
-50 c0 -8 -4 -12 -9 -9 -5 3 -6 10 -3 15 9 13 12 11 12 -6z m-5121 -51 c1 -9
0 -13 -4 -10 -3 4 -7 14 -8 22 -1 9 0 13 4 10 3 -4 7 -14 8 -22z m6079 -23 c3
-5 2 -12 -3 -15 -5 -3 -9 1 -9 9 0 17 3 19 12 6z m-3595 -187 c0 -8 -19 -13
-24 -6 -3 5 1 9 9 9 8 0 15 -2 15 -3z m1604 -2 c3 -5 -1 -9 -9 -9 -8 0 -12 4
-9 9 3 4 7 8 9 8 2 0 6 -4 9 -8z m486 2 c0 -8 -19 -13 -24 -6 -3 5 1 9 9 9 8
0 15 -2 15 -3z m-4094 -19 c-1 -8 -5 -17 -8 -21 -5 -4 -4 16 1 34 3 9 9 -1 7
-13z m-871 -65 c-3 -5 -12 -10 -18 -10 -7 0 -6 4 3 10 19 12 23 12 15 0z
m3861 -162 c3 -4 -1 -5 -10 -4 -8 1 -18 5 -22 8 -3 4 1 5 10 4 8 -1 18 -5 22
-8z m-3712 -76 c3 -5 -1 -9 -9 -9 -8 0 -12 4 -9 9 3 4 7 8 9 8 2 0 6 -4 9 -8z
m1450 0 c3 -5 -1 -9 -9 -9 -8 0 -12 4 -9 9 3 4 7 8 9 8 2 0 6 -4 9 -8z m1276
2 c0 -8 -19 -13 -24 -6 -3 5 1 9 9 9 8 0 15 -2 15 -3z m-2370 -80 c0 -8 -19
-13 -24 -6 -3 5 1 9 9 9 8 0 15 -2 15 -3z m4846 -70 c1 -9 0 -13 -4 -10 -3 4
-7 14 -8 22 -1 9 0 13 4 10 3 -4 7 -14 8 -22z m-5441 -143 c3 -5 2 -12 -3 -15
-5 -3 -9 1 -9 9 0 17 3 19 12 6z m5600 -80 c3 -5 2 -12 -3 -15 -5 -3 -9 1 -9
9 0 17 3 19 12 6z m-4371 -29 c3 -5 -1 -9 -9 -9 -8 0 -12 4 -9 9 3 4 7 8 9 8
2 0 6 -4 9 -8z m3493 -77 c0 -8 -4 -12 -9 -9 -5 3 -6 10 -3 15 9 13 12 11 12
-6z m-3837 -1 c0 -8 -19 -13 -24 -6 -3 5 1 9 9 9 8 0 15 -2 15 -3z m4644 -2
c3 -5 -1 -9 -9 -9 -8 0 -12 4 -9 9 3 4 7 8 9 8 2 0 6 -4 9 -8z m-3607 -27 c0
-8 -4 -12 -9 -9 -5 3 -6 10 -3 15 9 13 12 11 12 -6z m4588 -54 c-9 -8 -36 -10
-30 -2 2 4 11 8 20 8 8 0 13 -3 10 -6z m-2029 -96 c-1 -8 -5 -17 -8 -21 -5 -4
-4 16 1 34 3 9 9 -1 7 -13z m-3441 -73 c-3 -3 -11 0 -18 7 -9 10 -8 11 6 5 10
-3 15 -9 12 -12z m882 -97 c0 -8 -4 -12 -9 -9 -5 3 -6 10 -3 15 9 13 12 11 12
-6z m-723 -133 c3 -5 -1 -9 -9 -9 -8 0 -12 4 -9 9 3 4 7 8 9 8 2 0 6 -4 9 -8z
m2002 -148 c1 -9 0 -13 -4 -10 -3 4 -7 14 -8 22 -1 9 0 13 4 10 3 -4 7 -14 8
-22z m561 -9 c0 -8 -4 -12 -9 -9 -5 3 -6 10 -3 15 9 13 12 11 12 -6z m-3606
-18 c-10 -9 -11 -8 -5 6 3 10 9 15 12 12 3 -3 0 -11 -7 -18z m1539 17 c0 -8
-19 -13 -24 -6 -3 5 1 9 9 9 8 0 15 -2 15 -3z m4545 -253 c3 -5 2 -12 -3 -15
-5 -3 -9 1 -9 9 0 17 3 19 12 6z m-391 -69 c3 -5 -1 -9 -9 -9 -8 0 -12 4 -9 9
3 4 7 8 9 8 2 0 6 -4 9 -8z m-2539 -81 c-9 -8 -36 -10 -30 -2 2 4 11 8 20 8 8
0 13 -3 10 -6z m2771 -107 c1 -9 0 -13 -4 -10 -3 4 -7 14 -8 22 -1 9 0 13 4
10 3 -4 7 -14 8 -22z m-5502 -52 c3 -5 -1 -9 -9 -9 -8 0 -12 4 -9 9 3 4 7 8 9
8 2 0 6 -4 9 -8z m1092 -4 c3 -4 -1 -5 -10 -4 -8 1 -18 5 -22 8 -3 4 1 5 10 4
8 -1 18 -5 22 -8z m1404 6 c0 -8 -19 -13 -24 -6 -3 5 1 9 9 9 8 0 15 -2 15 -3z
m687 -89 c0 -8 -4 -12 -9 -9 -5 3 -6 10 -3 15 9 13 12 11 12 -6z m1148 -74
c-9 -8 -36 -10 -30 -2 2 4 11 8 20 8 8 0 13 -3 10 -6z m-1310 -70 c3 -5 2 -12
-3 -15 -5 -3 -9 1 -9 9 0 17 3 19 12 6z m-635 -7 c0 -8 -19 -13 -24 -6 -3 5 1
9 9 9 8 0 15 -2 15 -3z m2476 -150 c1 -9 0 -13 -4 -10 -3 4 -7 14 -8 22 -1 9
0 13 4 10 3 -4 7 -14 8 -22z m-4561 -173 c3 -5 2 -12 -3 -15 -5 -3 -9 1 -9 9
0 17 3 19 12 6z m482 -6 c0 -8 -4 -12 -9 -9 -5 3 -6 10 -3 15 9 13 12 11 12
-6z m4320 0 c0 -8 -4 -12 -9 -9 -5 3 -6 10 -3 15 9 13 12 11 12 -6z m-77 -155
c0 -5 -4 -10 -10 -10 -5 0 -10 5 -10 10 0 6 5 10 10 10 6 0 10 -4 10 -10z
m400 4 c0 -8 -19 -13 -24 -6 -3 5 1 9 9 9 8 0 15 -2 15 -3z m-5454 -86 c3 -4
-1 -5 -10 -4 -8 1 -18 5 -22 8 -3 4 1 5 10 4 8 -1 18 -5 22 -8z m729 -47 c3
-5 2 -12 -3 -15 -5 -3 -9 1 -9 9 0 17 3 19 12 6z m-560 -180 c3 -5 2 -12 -3
-15 -5 -3 -9 1 -9 9 0 17 3 19 12 6z m4831 -93 c3 -4 -1 -5 -10 -4 -8 1 -18 5
-22 8 -3 4 1 5 10 4 8 -1 18 -5 22 -8z m-2350 -93 c-1 -8 -5 -17 -8 -21 -5 -4
-4 16 1 34 3 9 9 -1 7 -13z m320 0 c-1 -8 -5 -17 -8 -21 -5 -4 -4 16 1 34 3 9
9 -1 7 -13z m1938 -63 c3 -5 -1 -9 -9 -9 -8 0 -12 4 -9 9 3 4 7 8 9 8 2 0 6
-4 9 -8z m-3299 -71 c3 -5 2 -12 -3 -15 -5 -3 -9 1 -9 9 0 17 3 19 12 6z m989
-89 c3 -5 -1 -9 -9 -9 -8 0 -12 4 -9 9 3 4 7 8 9 8 2 0 6 -4 9 -8z m922 -4 c3
-4 -1 -5 -10 -4 -8 1 -18 5 -22 8 -3 4 1 5 10 4 8 -1 18 -5 22 -8z m-2949 -13
c0 -8 -4 -12 -9 -9 -5 3 -6 10 -3 15 9 13 12 11 12 -6z m3127 -223 c3 -5 -1
-9 -9 -9 -8 0 -12 4 -9 9 3 4 7 8 9 8 2 0 6 -4 9 -8z m-818 -84 c3 -4 -1 -5
-10 -4 -8 1 -18 5 -22 8 -3 4 1 5 10 4 8 -1 18 -5 22 -8z m1114 6 c0 -8 -19
-13 -24 -6 -3 5 1 9 9 9 8 0 15 -2 15 -3z m-2785 -53 c3 -5 2 -12 -3 -15 -5
-3 -9 1 -9 9 0 17 3 19 12 6z m105 -107 c0 -8 -19 -13 -24 -6 -3 5 1 9 9 9 8
0 15 -2 15 -3z m2616 -59 c-1 -8 -5 -17 -8 -21 -5 -4 -4 16 1 34 3 9 9 -1 7
-13z m320 -11 c1 -9 0 -13 -4 -10 -3 4 -7 14 -8 22 -1 9 0 13 4 10 3 -4 7 -14
8 -22z m-1201 -3 c3 -5 2 -12 -3 -15 -5 -3 -9 1 -9 9 0 17 3 19 12 6z m-638
-166 c0 -8 -4 -12 -9 -9 -5 3 -6 10 -3 15 9 13 12 11 12 -6z"/>
</g>
</svg>
