<svg width="1191" height="648" viewBox="0 0 1191 648" fill="none" xmlns="http://www.w3.org/2000/svg">
<path d="M599.322 648C922.271 648 1184.07 630.658 1184.07 609.267C1184.07 587.875 922.271 570.533 599.322 570.533C276.372 570.533 14.5699 587.875 14.5699 609.267C14.5699 630.658 276.372 648 599.322 648Z" fill="#F2F2F2"/>
<path d="M576.909 185.239C481.638 185.239 413.233 246.397 413.233 389.098C413.233 550.827 481.638 593.637 576.909 593.637C672.181 593.637 744.661 546.75 744.661 389.098C744.661 220.575 672.181 185.239 576.909 185.239ZM577.536 539.954C511.548 539.954 477.074 501.22 477.074 389.203C477.074 290.364 512.959 238.242 578.947 238.242C644.935 238.242 680.82 272.479 680.82 389.203C680.82 498.396 643.523 539.954 577.536 539.954Z" fill="#506578"/>
<path d="M356.184 480.835H316.793V364.774C316.793 358.61 314.346 352.698 309.99 348.339C305.633 343.98 299.724 341.531 293.563 341.531H284.333C281.283 341.531 278.262 342.132 275.443 343.301C272.625 344.469 270.064 346.181 267.907 348.339C265.75 350.497 264.039 353.06 262.871 355.88C261.704 358.7 261.103 361.722 261.103 364.774V480.835H149.994C147.709 480.835 145.462 480.244 143.472 479.119C141.481 477.994 139.816 476.374 138.636 474.415C137.456 472.456 136.802 470.226 136.738 467.94C136.674 465.653 137.201 463.389 138.269 461.367L255.865 238.672C257.331 235.895 258.219 232.85 258.477 229.721C258.735 226.591 258.356 223.442 257.363 220.463C256.371 217.484 254.785 214.737 252.702 212.388C250.619 210.039 248.082 208.137 245.245 206.796L238.303 203.516C232.912 200.969 226.75 200.593 221.09 202.466C215.43 204.338 210.707 208.316 207.896 213.576L64.4725 482.027C62.0302 486.598 60.7524 491.701 60.7524 496.885V496.885C60.7524 501.024 61.5672 505.122 63.1502 508.946C64.7332 512.77 67.0535 516.244 69.9786 519.171C72.9036 522.098 76.3761 524.419 80.1979 526.003C84.0196 527.587 88.1157 528.402 92.2524 528.402H261.103V601.792C261.103 605.45 261.823 609.073 263.222 612.454C264.622 615.834 266.673 618.905 269.259 621.492C271.844 624.079 274.914 626.132 278.292 627.532C281.671 628.932 285.291 629.653 288.948 629.653H288.948C292.605 629.653 296.226 628.932 299.604 627.532C302.982 626.132 306.052 624.079 308.638 621.492C311.223 618.905 313.275 615.834 314.674 612.454C316.073 609.073 316.793 605.45 316.793 601.792V528.402H356.184C362.489 528.402 368.535 525.897 372.993 521.436C377.45 516.976 379.955 510.927 379.955 504.619V504.619C379.955 498.311 377.45 492.262 372.993 487.801C368.535 483.341 362.489 480.835 356.184 480.835V480.835Z" fill="#102A42" fill-opacity="0.9"/>
<path d="M1085.6 480.835H1046.21V364.774C1046.21 358.61 1043.76 352.698 1039.4 348.339C1035.04 343.98 1029.14 341.531 1022.97 341.531H1013.74C1010.69 341.531 1007.67 342.132 1004.85 343.301C1002.04 344.469 999.476 346.181 997.318 348.339C995.161 350.497 993.45 353.06 992.283 355.88C991.115 358.7 990.514 361.722 990.514 364.774V480.835H879.406C877.12 480.835 874.873 480.244 872.883 479.119C870.893 477.994 869.227 476.374 868.047 474.415C866.868 472.456 866.214 470.226 866.15 467.94C866.085 465.653 866.613 463.389 867.68 461.367L985.276 238.672C986.742 235.895 987.631 232.851 987.889 229.721C988.146 226.591 987.767 223.442 986.775 220.463C985.782 217.484 984.197 214.737 982.114 212.388C980.031 210.039 977.494 208.137 974.656 206.796L967.714 203.516C962.324 200.969 956.161 200.593 950.502 202.466C944.842 204.338 940.118 208.316 937.308 213.576L793.884 482.027C791.442 486.598 790.164 491.701 790.164 496.885V496.885C790.164 505.244 793.483 513.26 799.39 519.171C805.298 525.082 813.31 528.402 821.664 528.402H990.514V601.792C990.514 609.181 993.448 616.267 998.67 621.492C1003.89 626.717 1010.97 629.653 1018.36 629.653V629.653C1025.74 629.653 1032.83 626.717 1038.05 621.492C1043.27 616.267 1046.2 609.181 1046.2 601.792V528.402H1085.6C1091.9 528.402 1097.95 525.897 1102.4 521.436C1106.86 516.976 1109.37 510.927 1109.37 504.619V504.619C1109.37 498.311 1106.86 492.262 1102.4 487.801C1097.95 483.341 1091.9 480.835 1085.6 480.835Z" fill="#102A42" fill-opacity="0.9"/>
<path d="M367.051 467.244H327.66V351.184C327.66 348.131 327.059 345.109 325.892 342.289C324.724 339.469 323.013 336.907 320.856 334.748C318.699 332.59 316.138 330.878 313.32 329.71C310.501 328.542 307.48 327.94 304.43 327.94H295.2C289.039 327.94 283.13 330.389 278.773 334.748C274.417 339.107 271.969 345.019 271.969 351.184V467.244H160.861C158.575 467.244 156.328 466.653 154.338 465.528C152.348 464.404 150.682 462.783 149.502 460.824C148.323 458.866 147.669 456.635 147.604 454.349C147.54 452.063 148.067 449.799 149.135 447.777L266.731 225.081C268.197 222.305 269.086 219.26 269.343 216.13C269.601 213.001 269.222 209.851 268.23 206.872C267.237 203.893 265.651 201.146 263.569 198.798C261.486 196.449 258.949 194.546 256.111 193.205L249.169 189.925C243.779 187.379 237.616 187.002 231.956 188.875C226.297 190.748 221.573 194.725 218.763 199.985L75.339 468.436C72.8967 473.007 71.6189 478.111 71.6189 483.294V483.294C71.6189 491.653 74.9376 499.67 80.845 505.58C86.7524 511.491 94.7645 514.812 103.119 514.812H271.969V588.201C271.969 591.86 272.69 595.483 274.089 598.863C275.488 602.243 277.539 605.315 280.125 607.902C282.711 610.489 285.78 612.541 289.159 613.941C292.537 615.341 296.158 616.062 299.815 616.062H299.815C307.2 616.062 314.282 613.127 319.504 607.902C324.726 602.677 327.66 595.59 327.66 588.201V514.812H367.051C370.172 514.812 373.263 514.196 376.147 513.001C379.031 511.806 381.652 510.054 383.859 507.846C386.066 505.637 387.817 503.015 389.012 500.13C390.206 497.244 390.821 494.151 390.821 491.028V491.028C390.821 487.905 390.206 484.812 389.012 481.926C387.817 479.041 386.066 476.419 383.859 474.211C381.652 472.002 379.031 470.25 376.147 469.055C373.264 467.86 370.173 467.244 367.051 467.244V467.244Z" stroke="#506578" stroke-miterlimit="10"/>
<path d="M1105.97 467.244H1066.58V351.184C1066.58 345.019 1064.13 339.107 1059.78 334.748C1055.42 330.389 1049.51 327.94 1043.35 327.94H1034.12C1031.07 327.94 1028.05 328.542 1025.23 329.71C1022.41 330.878 1019.85 332.59 1017.69 334.748C1015.54 336.907 1013.82 339.469 1012.66 342.289C1011.49 345.109 1010.89 348.131 1010.89 351.184V467.244H899.781C897.495 467.244 895.248 466.653 893.258 465.528C891.268 464.404 889.602 462.783 888.422 460.824C887.242 458.866 886.588 456.635 886.524 454.349C886.46 452.063 886.987 449.799 888.055 447.777L1005.65 225.081C1007.12 222.305 1008.01 219.26 1008.26 216.13C1008.52 213.001 1008.14 209.851 1007.15 206.872C1006.16 203.893 1004.57 201.146 1002.49 198.798C1000.41 196.449 997.869 194.546 995.031 193.205L988.089 189.925C982.698 187.379 976.536 187.002 970.876 188.875C965.216 190.748 960.493 194.725 957.682 199.985L814.259 468.436C811.816 473.007 810.539 478.111 810.539 483.294C810.539 491.653 813.857 499.67 819.765 505.58C825.672 511.491 833.684 514.812 842.038 514.812H1010.89V588.201C1010.89 595.59 1013.82 602.677 1019.04 607.902C1024.27 613.127 1031.35 616.062 1038.73 616.062V616.062C1046.12 616.062 1053.2 613.127 1058.42 607.902C1063.65 602.677 1066.58 595.59 1066.58 588.201V514.812H1105.97C1109.09 514.812 1112.18 514.196 1115.07 513.001C1117.95 511.806 1120.57 510.054 1122.78 507.846C1124.99 505.637 1126.74 503.015 1127.93 500.13C1129.13 497.244 1129.74 494.151 1129.74 491.028V491.028C1129.74 484.72 1127.24 478.671 1122.78 474.211C1118.32 469.75 1112.27 467.245 1105.97 467.244V467.244Z" stroke="#506578" stroke-miterlimit="10"/>
<path d="M598.642 173.007C503.371 173.007 434.966 234.165 434.966 376.867C434.966 538.595 503.37 581.406 598.642 581.406C693.914 581.406 766.394 534.518 766.394 376.867C766.394 208.343 693.914 173.007 598.642 173.007ZM599.269 527.723C533.281 527.723 498.807 488.988 498.807 376.971C498.807 278.133 534.692 226.011 600.68 226.011C666.668 226.011 702.553 260.248 702.553 376.971C702.553 486.164 665.256 527.723 599.269 527.723V527.723Z" stroke="#506578" stroke-miterlimit="10"/>
<path d="M1116.14 465.344C1119.5 466.565 1123.1 466.989 1126.65 466.583C1130.2 466.177 1133.6 464.952 1136.6 463.003C1139.6 461.055 1142.1 458.437 1143.91 455.356C1145.72 452.274 1146.79 448.814 1147.04 445.248C1147.29 441.681 1146.71 438.106 1145.34 434.804C1143.97 431.501 1141.85 428.563 1139.15 426.219C1136.45 423.875 1133.25 422.189 1129.79 421.296C1126.33 420.403 1122.71 420.326 1119.22 421.072L1119.79 432.953L1114.17 422.771C1108.66 425.363 1104.4 430.039 1102.33 435.773C1101.6 437.781 1101.15 439.883 1101 442.017C1100.65 447.023 1101.94 452.009 1104.67 456.218C1107.4 460.427 1111.43 463.631 1116.14 465.344V465.344Z" fill="#57B894"/>
<path d="M1143.94 603.148C1141.96 593.043 1150.55 584.085 1159.04 578.263C1167.53 572.44 1177.45 566.719 1180.34 556.837C1184.51 542.636 1172.11 529.63 1162.46 518.415C1155.3 510.091 1149.15 500.948 1144.14 491.177C1142.13 487.259 1140.29 483.163 1139.76 478.792C1139 472.497 1141.02 466.233 1143.06 460.228C1149.84 440.225 1157.09 420.39 1164.82 400.722" stroke="#506578" stroke-miterlimit="10"/>
<path d="M1117.09 462.285C1120.45 463.506 1124.05 463.93 1127.6 463.524C1131.15 463.118 1134.55 461.893 1137.55 459.944C1140.55 457.996 1143.05 455.378 1144.86 452.297C1146.67 449.215 1147.74 445.755 1147.99 442.189C1148.24 438.622 1147.66 435.047 1146.29 431.745C1144.92 428.442 1142.8 425.503 1140.1 423.159C1137.4 420.815 1134.2 419.131 1130.74 418.237C1127.28 417.344 1123.66 417.267 1120.17 418.013L1120.74 429.894L1115.12 419.712C1109.61 422.304 1105.35 426.98 1103.28 432.714C1102.55 434.722 1102.1 436.824 1101.95 438.958C1101.6 443.964 1102.89 448.95 1105.62 453.159C1108.35 457.368 1112.38 460.572 1117.09 462.285V462.285Z" stroke="#506578" stroke-miterlimit="10"/>
<path d="M1141.12 396.619C1142.44 392.981 1144.65 389.733 1147.55 387.175C1150.46 384.617 1153.95 382.83 1157.73 381.981L1159.63 393.276L1163.15 381.413C1168.04 381.486 1172.78 383.111 1176.69 386.055C1180.59 388.999 1183.46 393.109 1184.88 397.791C1186.3 402.473 1186.2 407.486 1184.58 412.105C1182.97 416.725 1179.93 420.712 1175.91 423.49C1171.88 426.269 1167.08 427.696 1162.19 427.565C1157.3 427.434 1152.58 425.752 1148.71 422.762C1144.84 419.772 1142.02 415.628 1140.65 410.929C1139.29 406.23 1139.45 401.219 1141.12 396.619H1141.12Z" fill="#57B894"/>
<path d="M1142.39 392.54C1143.71 388.902 1145.92 385.654 1148.82 383.096C1151.72 380.538 1155.22 378.752 1158.99 377.902L1160.89 389.198L1164.42 377.334C1169.31 377.407 1174.05 379.033 1177.95 381.976C1181.86 384.92 1184.73 389.03 1186.15 393.712C1187.57 398.395 1187.46 403.408 1185.85 408.027C1184.24 412.646 1181.2 416.633 1177.17 419.412C1173.15 422.19 1168.35 423.617 1163.46 423.487C1158.57 423.356 1153.85 421.674 1149.98 418.683C1146.11 415.693 1143.28 411.549 1141.92 406.85C1140.56 402.151 1140.72 397.14 1142.39 392.54H1142.39Z" stroke="#506578" stroke-miterlimit="10"/>
<path d="M1158.41 518.643C1163.73 520.576 1169.58 520.481 1174.84 518.375C1180.1 516.27 1184.4 512.301 1186.93 507.227C1189.45 502.152 1190.02 496.325 1188.53 490.858C1187.03 485.39 1183.58 480.664 1178.83 477.58L1176.12 486.696L1174.2 475.268C1174.18 475.259 1174.16 475.251 1174.14 475.245C1171.29 474.21 1168.27 473.745 1165.24 473.88C1162.21 474.014 1159.24 474.744 1156.5 476.027C1153.75 477.311 1151.28 479.123 1149.24 481.361C1147.19 483.599 1145.61 486.218 1144.58 489.068C1143.54 491.919 1143.08 494.945 1143.22 497.975C1143.35 501.004 1144.08 503.977 1145.37 506.723C1146.65 509.47 1148.46 511.936 1150.7 513.982C1152.94 516.027 1155.56 517.611 1158.41 518.643H1158.41Z" fill="#57B894"/>
<path d="M1159.51 514.512C1164.83 516.445 1170.68 516.35 1175.94 514.244C1181.2 512.139 1185.5 508.17 1188.03 503.095C1190.55 498.021 1191.12 492.194 1189.62 486.726C1188.13 481.259 1184.68 476.533 1179.92 473.449L1177.22 482.565L1175.3 471.137C1175.28 471.128 1175.26 471.12 1175.24 471.114C1172.39 470.078 1169.37 469.614 1166.34 469.749C1163.31 469.883 1160.34 470.613 1157.59 471.896C1154.85 473.18 1152.38 474.992 1150.34 477.23C1148.29 479.468 1146.71 482.086 1145.67 484.937C1144.64 487.788 1144.18 490.814 1144.31 493.844C1144.45 496.873 1145.18 499.846 1146.46 502.592C1147.75 505.339 1149.56 507.805 1151.8 509.851C1154.04 511.896 1156.66 513.48 1159.51 514.512H1159.51Z" stroke="#506578" stroke-miterlimit="10"/>
<path d="M1134.39 556.979C1135.3 562.192 1137.98 566.932 1141.98 570.403C1145.97 573.874 1151.04 575.866 1156.32 576.044C1161.61 576.222 1166.8 574.576 1171.02 571.381C1175.23 568.187 1178.23 563.638 1179.49 558.498C1180.76 553.359 1180.21 547.94 1177.96 543.152C1175.71 538.364 1171.87 534.497 1167.11 532.2C1162.34 529.902 1156.93 529.315 1151.78 530.535C1146.64 531.756 1142.06 534.71 1138.83 538.902L1149.11 554.382L1135.07 546.166C1133.98 549.664 1133.75 553.372 1134.39 556.979V556.979Z" fill="#57B894"/>
<path d="M1135.34 553.92C1136.25 559.133 1138.93 563.873 1142.93 567.344C1146.92 570.815 1151.99 572.807 1157.27 572.985C1162.56 573.163 1167.75 571.517 1171.97 568.322C1176.18 565.128 1179.18 560.579 1180.44 555.439C1181.71 550.3 1181.16 544.881 1178.91 540.093C1176.66 535.305 1172.82 531.438 1168.06 529.14C1163.29 526.843 1157.88 526.256 1152.73 527.476C1147.59 528.696 1143.01 531.651 1139.79 535.843L1150.06 551.323L1136.02 543.107C1134.93 546.605 1134.7 550.313 1135.34 553.92V553.92Z" stroke="#506578" stroke-miterlimit="10"/>
<path d="M9.98511 521.576C12.1914 522.379 14.5539 522.658 16.8863 522.391C19.2186 522.124 21.4572 521.319 23.4255 520.039C25.3938 518.759 27.038 517.039 28.2286 515.014C29.4192 512.99 30.1235 510.716 30.2861 508.373C30.4488 506.03 30.0652 503.681 29.1657 501.511C28.2662 499.342 26.8753 497.411 25.1028 495.871C23.3302 494.331 21.2243 493.223 18.9512 492.637C16.678 492.05 14.2997 491.999 12.0038 492.489L12.3832 500.295L8.6919 493.605C5.06912 495.308 2.27038 498.381 0.910697 502.148C0.427817 503.467 0.134262 504.849 0.0387892 506.251C-0.194206 509.54 0.650728 512.815 2.44555 515.581C4.24037 518.347 6.88726 520.451 9.98511 521.576V521.576Z" fill="#57B894"/>
<path d="M28.2495 612.117C26.9465 605.478 32.5928 599.592 38.17 595.766C43.7472 591.941 50.2638 588.182 52.1668 581.69C54.9017 572.359 46.7553 563.814 40.4147 556.445C35.7107 550.977 31.671 544.969 28.3802 538.549C26.9495 536.028 25.975 533.273 25.5017 530.412C25.0017 526.276 26.3297 522.161 27.6677 518.216C32.1246 505.073 36.8899 492.041 41.9636 479.119" stroke="#506578" stroke-miterlimit="10"/>
<path d="M10.6094 519.567C12.8157 520.369 15.1782 520.648 17.5105 520.381C19.8429 520.114 22.0815 519.309 24.0498 518.029C26.0181 516.749 27.6623 515.029 28.8528 513.004C30.0434 510.98 30.7477 508.707 30.9104 506.363C31.073 504.02 30.6894 501.671 29.7899 499.501C28.8904 497.332 27.4996 495.401 25.727 493.861C23.9544 492.321 21.8486 491.214 19.5755 490.627C17.3023 490.04 14.924 489.99 12.628 490.479L13.0075 498.286L9.31617 491.596C5.69339 493.299 2.89464 496.371 1.53496 500.138C1.05209 501.458 0.758539 502.839 0.663061 504.241C0.430051 507.53 1.27498 510.806 3.0698 513.571C4.86463 516.337 7.51152 518.442 10.6094 519.567V519.567Z" stroke="#506578" stroke-miterlimit="10"/>
<path d="M26.3969 476.423C27.2627 474.033 28.7159 471.899 30.6226 470.218C32.5293 468.537 34.8281 467.364 37.3072 466.806L38.5552 474.227L40.8691 466.433C44.0819 466.48 47.1963 467.548 49.7629 469.482C52.3294 471.417 54.2152 474.117 55.1481 477.193C56.0809 480.27 56.0124 483.563 54.9526 486.598C53.8927 489.633 51.8963 492.252 49.2516 494.078C46.6069 495.904 43.4507 496.841 40.2388 496.755C37.0269 496.669 33.9254 495.564 31.3821 493.599C28.8388 491.635 26.9853 488.912 26.0892 485.825C25.1932 482.738 25.3009 479.445 26.3969 476.423V476.423Z" fill="#57B894"/>
<path d="M27.2293 473.743C28.0951 471.353 29.5483 469.219 31.455 467.538C33.3617 465.858 35.6605 464.684 38.1395 464.126L39.3876 471.547L41.7015 463.753C44.9143 463.801 48.0287 464.869 50.5953 466.803C53.1618 468.737 55.0476 471.437 55.9804 474.514C56.9133 477.59 56.8448 480.883 55.7849 483.918C54.7251 486.953 52.7287 489.573 50.084 491.398C47.4393 493.224 44.2831 494.162 41.0712 494.076C37.8593 493.99 34.7577 492.884 32.2144 490.92C29.6712 488.955 27.8177 486.233 26.9216 483.145C26.0256 480.058 26.1333 476.766 27.2293 473.743V473.743Z" stroke="#506578" stroke-miterlimit="10"/>
<path d="M37.7539 556.596C41.2529 557.865 45.0966 557.803 48.5523 556.419C52.0081 555.036 54.8342 552.429 56.4921 549.094C58.1501 545.76 58.5238 541.932 57.5421 538.34C56.5603 534.747 54.2918 531.642 51.169 529.616L49.391 535.606L48.1302 528.097C48.1177 528.091 48.1048 528.086 48.0916 528.082C46.2201 527.401 44.2327 527.096 42.2432 527.184C40.2536 527.272 38.3009 527.751 36.4966 528.594C34.6923 529.438 33.0717 530.629 31.7276 532.099C30.3835 533.569 29.3421 535.29 28.663 537.163C27.9838 539.036 27.6803 541.025 27.7697 543.016C27.8591 545.006 28.3396 546.959 29.1839 548.764C30.0281 550.569 31.2195 552.189 32.69 553.533C34.1605 554.877 35.8813 555.917 37.7539 556.596V556.596Z" fill="#57B894"/>
<path d="M38.4751 553.881C41.9741 555.151 45.8178 555.089 49.2736 553.705C52.7293 552.322 55.5555 549.714 57.2134 546.38C58.8713 543.046 59.245 539.218 58.2633 535.625C57.2816 532.033 55.0131 528.928 51.8902 526.902L50.1122 532.891L48.8514 525.383C48.839 525.377 48.8261 525.372 48.8129 525.368C46.9417 524.689 44.9552 524.385 42.9667 524.474C40.9782 524.563 39.0267 525.043 37.2236 525.887C33.5821 527.59 30.7661 530.672 29.3953 534.453C28.0244 538.234 28.2109 542.405 29.9137 546.049C31.6165 549.692 34.6961 552.51 38.4751 553.881V553.881Z" stroke="#506578" stroke-miterlimit="10"/>
<path d="M21.9733 581.782C22.575 585.208 24.3354 588.322 26.9593 590.602C29.5833 592.883 32.9112 594.192 36.3849 594.309C39.8587 594.426 43.2671 593.344 46.0384 591.245C48.8097 589.146 50.7755 586.158 51.6061 582.781C52.4366 579.404 52.0814 575.844 50.6001 572.698C49.1187 569.552 46.6012 567.011 43.4699 565.502C40.3385 563.993 36.7837 563.607 33.4016 564.408C30.0196 565.21 27.0159 567.151 24.8943 569.906L31.6479 580.077L22.42 574.678C21.7045 576.976 21.5513 579.413 21.9733 581.782V581.782Z" fill="#57B894"/>
<path d="M22.5976 579.773C23.1992 583.198 24.9596 586.312 27.5836 588.593C30.2075 590.873 33.5354 592.182 37.0092 592.299C40.483 592.416 43.8913 591.334 46.6627 589.235C49.434 587.137 51.3998 584.148 52.2303 580.771C53.0609 577.394 52.7057 573.834 51.2243 570.688C49.7429 567.542 47.2255 565.001 44.0941 563.492C40.9628 561.983 37.408 561.597 34.0259 562.399C30.6438 563.201 27.6401 565.142 25.5186 567.896L32.2721 578.067L23.0443 572.669C22.3288 574.967 22.1756 577.403 22.5976 579.773V579.773Z" stroke="#506578" stroke-miterlimit="10"/>
<path d="M533.145 378.348C543.553 378.348 551.99 367.424 551.99 353.947C551.99 340.471 543.553 329.546 533.145 329.546C522.737 329.546 514.3 340.471 514.3 353.947C514.3 367.424 522.737 378.348 533.145 378.348Z" fill="#506578"/>
<path d="M635.684 378.903C646.092 378.903 654.53 367.978 654.53 354.502C654.53 341.025 646.092 330.1 635.684 330.1C625.277 330.1 616.839 341.025 616.839 354.502C616.839 367.978 625.277 378.903 635.684 378.903Z" fill="#506578"/>
<path d="M621.274 426.596C621.274 437.621 605.887 446.561 586.909 446.561C567.931 446.561 552.544 437.621 552.544 426.596C552.544 417.047 564.084 409.061 579.504 407.109C581.959 406.785 584.433 406.625 586.909 406.632C591.058 406.618 595.196 407.065 599.247 407.963C612.128 410.835 621.274 418.1 621.274 426.596Z" fill="#506578"/>
<path d="M537.579 372.803C547.987 372.803 556.424 361.878 556.424 348.401C556.424 334.925 547.987 324 537.579 324C527.171 324 518.734 334.925 518.734 348.401C518.734 361.878 527.171 372.803 537.579 372.803Z" stroke="#506578" stroke-miterlimit="10"/>
<path d="M640.119 373.357C650.526 373.357 658.964 362.432 658.964 348.956C658.964 335.479 650.526 324.555 640.119 324.555C629.711 324.555 621.273 335.479 621.273 348.956C621.273 362.432 629.711 373.357 640.119 373.357Z" stroke="#506578" stroke-miterlimit="10"/>
<path d="M591.343 441.015C610.322 441.015 625.708 432.077 625.708 421.051C625.708 410.024 610.322 401.086 591.343 401.086C572.364 401.086 556.979 410.024 556.979 421.051C556.979 432.077 572.364 441.015 591.343 441.015Z" stroke="#506578" stroke-miterlimit="10"/>
<path d="M599.657 409.626C599.666 411.021 599.143 412.367 598.194 413.389C597.746 413.878 597.201 414.27 596.594 414.538C595.988 414.807 595.332 414.947 594.669 414.95H583.583C582.217 414.903 580.926 414.316 579.991 413.318C579.056 412.321 578.554 410.993 578.595 409.626C578.589 408.545 578.906 407.487 579.504 406.586C581.957 406.241 584.432 406.07 586.909 406.077C591.063 406.064 595.204 406.54 599.247 407.497C599.52 408.173 599.66 408.897 599.657 409.626V409.626Z" fill="white"/>
<path d="M537.579 347.292C540.64 347.292 543.122 344.809 543.122 341.746C543.122 338.684 540.64 336.201 537.579 336.201C534.518 336.201 532.036 338.684 532.036 341.746C532.036 344.809 534.518 347.292 537.579 347.292Z" fill="white"/>
<path d="M640.673 347.292C643.734 347.292 646.215 344.809 646.215 341.746C646.215 338.684 643.734 336.201 640.673 336.201C637.612 336.201 635.13 338.684 635.13 341.746C635.13 344.809 637.612 347.292 640.673 347.292Z" fill="white"/>
<path opacity="0.3" d="M646.216 399.422C649.277 399.422 651.758 396.939 651.758 393.877C651.758 390.814 649.277 388.331 646.216 388.331C643.154 388.331 640.673 390.814 640.673 393.877C640.673 396.939 643.154 399.422 646.216 399.422Z" fill="#102A42" fill-opacity="0.9"/>
<path opacity="0.3" d="M510.974 399.422C514.035 399.422 516.517 396.939 516.517 393.877C516.517 390.814 514.035 388.331 510.974 388.331C507.913 388.331 505.432 390.814 505.432 393.877C505.432 396.939 507.913 399.422 510.974 399.422Z" fill="#102A42" fill-opacity="0.9"/>
</svg>
