<svg width="166" height="166" viewBox="0 0 166 166" fill="none" xmlns="http://www.w3.org/2000/svg">
<path d="M83.0372 165.854C128.856 165.854 166 128.732 166 82.9393C166 37.1469 128.856 0.0249023 83.0372 0.0249023C37.2181 0.0249023 0.0744324 37.1469 0.0744324 82.9393C0.0744324 128.732 37.2181 165.854 83.0372 165.854Z" fill="#506578"/>
<path d="M83.0375 43.2654L49.9636 119.527L53.051 122.613L83.0458 109.391L113.041 122.613L116.128 119.527L83.0375 43.2654Z" fill="#8F6EFF"/>
<path opacity="0.1" d="M83.0375 1.03732e-05C66.6207 -0.00819325 50.5702 4.84963 36.9161 13.959C23.262 23.0685 12.6178 36.0202 6.32963 51.1762C0.0414974 66.3321 -1.608 83.0114 1.58973 99.1044C4.78746 115.197 12.6888 129.981 24.2943 141.586C35.8999 153.19 50.6883 161.094 66.789 164.298C82.8898 167.502 99.5797 165.862 114.748 159.585C129.916 153.308 142.88 142.677 152.002 129.035C161.123 115.394 165.992 99.3548 165.992 82.9476C165.992 60.9557 157.253 39.864 141.698 24.3095C126.142 8.75497 105.042 0.0110063 83.0375 1.03732e-05V1.03732e-05ZM83.0375 154.797C68.8088 154.797 54.8997 150.579 43.0696 142.678C31.2394 134.777 22.0197 123.547 16.5765 110.408C11.1333 97.2692 9.71122 82.8123 12.4901 68.8657C15.269 54.9191 22.1241 42.1095 32.1882 32.0571C42.2523 22.0046 55.0733 15.161 69.0296 12.3917C82.9859 9.62252 97.4504 11.0521 110.594 16.4997C123.737 21.9473 134.968 31.1682 142.867 42.996C150.767 54.8238 154.978 68.7272 154.97 82.9476C154.968 102.013 147.388 120.296 133.899 133.777C120.409 147.257 102.114 154.83 83.0375 154.83V154.797Z" fill="black"/>
</svg>
