<svg width="1025" height="455" viewBox="0 0 1025 455" fill="none" xmlns="http://www.w3.org/2000/svg">
<path d="M924.377 187.701H323.136C320.583 187.701 318.135 188.739 316.33 190.587C314.525 192.434 313.51 194.94 313.51 197.553C313.51 200.166 314.525 202.672 316.33 204.519C318.135 206.367 320.583 207.405 323.136 207.405H340.167V443.095C340.167 445.708 341.181 448.214 342.986 450.061C344.791 451.909 347.239 452.947 349.792 452.947C352.345 452.947 354.794 451.909 356.599 450.061C358.404 448.214 359.418 445.708 359.418 443.095L359.564 207.405H842.121L886.614 443.095C886.614 445.708 887.628 448.214 889.434 450.061C891.239 451.909 893.687 452.947 896.24 452.947C898.793 452.947 901.241 451.909 903.047 450.061C904.852 448.214 905.866 445.708 905.866 443.095L908.666 207.405H924.377C926.93 207.405 929.378 206.367 931.183 204.519C932.989 202.672 934.003 200.166 934.003 197.553C934.003 194.94 932.989 192.434 931.183 190.587C929.378 188.739 926.93 187.701 924.377 187.701V187.701Z" fill="#8A8A8A"/>
<path d="M427.353 143.802V185.522H325.228C322.552 185.618 319.883 185.173 317.375 184.212C314.866 183.252 312.567 181.795 310.609 179.926C308.65 178.056 307.071 175.81 305.961 173.316C304.85 170.821 304.231 168.127 304.138 165.388C304.045 162.648 304.48 159.917 305.418 157.35C306.356 154.782 307.779 152.429 309.606 150.425C311.433 148.42 313.627 146.804 316.064 145.668C318.502 144.531 321.134 143.897 323.81 143.802C324.283 143.785 324.755 143.785 325.228 143.802L427.353 143.802Z" fill="#B1AFAF"/>
<path d="M429.862 185.201C429.862 185.627 429.696 186.035 429.403 186.336C429.109 186.637 428.71 186.806 428.294 186.806H323.409C317.715 186.802 312.256 184.484 308.231 180.362C304.206 176.239 301.945 170.65 301.945 164.822C301.945 158.995 304.206 153.405 308.231 149.283C312.256 145.161 317.715 142.843 323.409 142.839H428.294C428.5 142.838 428.705 142.879 428.895 142.96C429.086 143.04 429.259 143.158 429.405 143.307C429.551 143.456 429.667 143.634 429.746 143.828C429.825 144.023 429.866 144.232 429.866 144.444C429.866 144.655 429.825 144.864 429.746 145.059C429.667 145.254 429.551 145.431 429.405 145.58C429.259 145.729 429.086 145.847 428.895 145.927C428.705 146.008 428.5 146.049 428.294 146.048H323.409C318.549 146.056 313.89 148.037 310.456 151.557C307.022 155.077 305.094 159.848 305.094 164.822C305.094 169.797 307.022 174.568 310.456 178.088C313.89 181.608 318.549 183.589 323.409 183.597H428.294C428.71 183.597 429.109 183.766 429.403 184.067C429.696 184.368 429.862 184.776 429.862 185.201V185.201Z" fill="#07549B"/>
<path d="M427.353 153.43H317.608C317.525 153.43 317.445 153.397 317.386 153.338C317.327 153.278 317.294 153.197 317.293 153.112C317.292 153.027 317.324 152.945 317.382 152.885C317.44 152.824 317.519 152.789 317.602 152.788H427.353C427.436 152.789 427.515 152.823 427.573 152.883C427.631 152.943 427.664 153.024 427.664 153.109C427.664 153.194 427.631 153.275 427.573 153.335C427.515 153.395 427.436 153.429 427.353 153.43Z" fill="#8A8A8A"/>
<path d="M427.353 161.132H317.608C317.525 161.132 317.445 161.099 317.386 161.039C317.327 160.98 317.294 160.899 317.293 160.814C317.292 160.729 317.324 160.647 317.382 160.587C317.44 160.526 317.519 160.491 317.602 160.49H427.353C427.436 160.491 427.515 160.525 427.573 160.585C427.631 160.645 427.664 160.726 427.664 160.811C427.664 160.895 427.631 160.977 427.573 161.037C427.515 161.097 427.436 161.131 427.353 161.132Z" fill="#8A8A8A"/>
<path d="M427.353 168.834H317.608C317.525 168.835 317.445 168.801 317.386 168.742C317.327 168.682 317.294 168.601 317.293 168.516C317.292 168.431 317.324 168.35 317.382 168.289C317.44 168.228 317.519 168.193 317.602 168.192H427.353C427.436 168.193 427.515 168.227 427.573 168.288C427.631 168.348 427.664 168.429 427.664 168.513C427.664 168.598 427.631 168.679 427.573 168.739C427.515 168.799 427.436 168.833 427.353 168.834Z" fill="#8A8A8A"/>
<path d="M427.353 176.536H317.608C317.525 176.537 317.445 176.504 317.386 176.444C317.327 176.384 317.294 176.303 317.293 176.218C317.292 176.133 317.324 176.052 317.382 175.991C317.44 175.93 317.519 175.896 317.602 175.895H427.353C427.436 175.895 427.515 175.93 427.573 175.99C427.631 176.05 427.664 176.131 427.664 176.215C427.664 176.3 427.631 176.381 427.573 176.441C427.515 176.501 427.436 176.535 427.353 176.536Z" fill="#8A8A8A"/>
<path d="M408.102 99.8469V141.567H305.976C300.571 141.76 295.312 139.747 291.357 135.971C287.402 132.195 285.074 126.965 284.886 121.433C284.698 115.9 286.665 110.518 290.354 106.47C294.044 102.422 299.153 100.039 304.558 99.8469C305.031 99.83 305.504 99.83 305.976 99.8469H408.102Z" fill="#B1AFAF"/>
<path d="M410.61 141.246C410.61 141.672 410.445 142.08 410.151 142.381C409.857 142.682 409.458 142.851 409.043 142.851H304.157C298.461 142.851 292.998 140.535 288.97 136.412C284.942 132.289 282.679 126.698 282.679 120.868C282.679 115.037 284.942 109.446 288.97 105.323C292.998 101.2 298.461 98.884 304.157 98.884H409.043C409.248 98.884 409.452 98.9255 409.642 99.0062C409.833 99.0868 410.006 99.205 410.151 99.354C410.297 99.503 410.412 99.6799 410.491 99.8746C410.57 100.069 410.61 100.278 410.61 100.489C410.61 100.699 410.57 100.908 410.491 101.103C410.412 101.297 410.297 101.474 410.151 101.623C410.006 101.772 409.833 101.89 409.642 101.971C409.452 102.052 409.248 102.093 409.043 102.093H304.157C299.293 102.093 294.627 104.071 291.187 107.592C287.747 111.113 285.814 115.888 285.814 120.868C285.814 125.847 287.747 130.622 291.187 134.143C294.627 137.664 299.293 139.642 304.157 139.642H409.043C409.458 139.642 409.857 139.811 410.151 140.112C410.445 140.413 410.61 140.821 410.61 141.246Z" fill="#333643"/>
<path d="M408.102 109.475H298.357C298.274 109.475 298.194 109.442 298.135 109.382C298.076 109.323 298.042 109.242 298.041 109.157C298.041 109.072 298.073 108.99 298.131 108.929C298.189 108.869 298.268 108.834 298.351 108.833H408.102C408.184 108.834 408.263 108.868 408.321 108.928C408.38 108.988 408.412 109.069 408.412 109.154C408.412 109.238 408.38 109.319 408.321 109.379C408.263 109.44 408.184 109.474 408.102 109.475V109.475Z" fill="#8A8A8A"/>
<path d="M408.102 117.177H298.357C298.274 117.177 298.194 117.144 298.135 117.085C298.076 117.025 298.042 116.944 298.041 116.859C298.041 116.774 298.073 116.692 298.131 116.632C298.189 116.571 298.268 116.536 298.351 116.535H408.102C408.184 116.536 408.263 116.57 408.321 116.63C408.38 116.69 408.412 116.772 408.412 116.856C408.412 116.941 408.38 117.022 408.321 117.082C408.263 117.142 408.184 117.176 408.102 117.177Z" fill="#8A8A8A"/>
<path d="M408.102 124.879H298.357C298.274 124.88 298.194 124.846 298.135 124.787C298.076 124.727 298.042 124.646 298.041 124.561C298.041 124.476 298.073 124.395 298.131 124.334C298.189 124.273 298.268 124.238 298.351 124.237H408.102C408.184 124.238 408.263 124.272 408.321 124.332C408.38 124.393 408.412 124.474 408.412 124.558C408.412 124.643 408.38 124.724 408.321 124.784C408.263 124.844 408.184 124.878 408.102 124.879Z" fill="#8A8A8A"/>
<path d="M408.102 132.581H298.357C298.274 132.581 298.194 132.548 298.135 132.489C298.076 132.429 298.042 132.348 298.041 132.263C298.041 132.178 298.073 132.096 298.131 132.036C298.189 131.975 298.268 131.94 298.351 131.939H408.102C408.184 131.94 408.263 131.974 408.321 132.034C408.38 132.094 408.412 132.176 408.412 132.26C408.412 132.345 408.38 132.426 408.321 132.486C408.263 132.546 408.184 132.58 408.102 132.581V132.581Z" fill="#8A8A8A"/>
<path d="M526.905 335.332V298.956C526.905 297.348 526.281 295.806 525.17 294.669C524.059 293.532 522.552 292.893 520.981 292.893H386.22C384.649 292.893 383.143 293.532 382.032 294.669C380.921 295.806 380.297 297.348 380.297 298.956V335.332H526.905Z" fill="#8A8A8A"/>
<path d="M526.905 348.973H380.297V395.96H526.905V348.973Z" fill="#8A8A8A"/>
<path d="M380.297 409.601V445.978C380.297 447.585 380.921 449.128 382.032 450.264C383.143 451.401 384.649 452.04 386.22 452.04H520.981C522.552 452.04 524.059 451.401 525.17 450.264C526.281 449.128 526.905 447.585 526.905 445.978V409.601H380.297Z" fill="#8A8A8A"/>
<path d="M452.86 320.175C455.314 320.175 457.303 318.139 457.303 315.628C457.303 313.117 455.314 311.081 452.86 311.081C450.407 311.081 448.417 313.117 448.417 315.628C448.417 318.139 450.407 320.175 452.86 320.175Z" fill="#949494"/>
<path d="M452.86 380.803C455.314 380.803 457.303 378.767 457.303 376.256C457.303 373.744 455.314 371.708 452.86 371.708C450.407 371.708 448.417 373.744 448.417 376.256C448.417 378.767 450.407 380.803 452.86 380.803Z" fill="#949494"/>
<path d="M453.098 440.147C455.552 440.147 457.541 438.111 457.541 435.6C457.541 433.088 455.552 431.052 453.098 431.052C450.645 431.052 448.656 433.088 448.656 435.6C448.656 438.111 450.645 440.147 453.098 440.147Z" fill="#949494"/>
<path d="M510.283 251.416V293.136H408.158C402.755 293.325 397.499 291.31 393.547 287.535C389.595 283.759 387.269 278.532 387.081 273.002C386.893 267.472 388.858 262.092 392.544 258.044C396.23 253.997 401.335 251.612 406.738 251.416C407.211 251.399 407.684 251.399 408.158 251.416H510.283Z" fill="#B1AFAF"/>
<path d="M512.792 292.816C512.792 293.241 512.627 293.649 512.333 293.95C512.039 294.251 511.64 294.42 511.224 294.42H406.339C400.644 294.422 395.181 292.108 391.152 287.988C387.124 283.868 384.858 278.279 384.855 272.45C384.852 266.621 387.11 261.029 391.134 256.904C395.158 252.779 400.618 250.459 406.313 250.453H511.224C511.43 250.453 511.635 250.494 511.825 250.574C512.016 250.654 512.189 250.773 512.335 250.922C512.481 251.071 512.597 251.248 512.676 251.443C512.755 251.638 512.796 251.847 512.796 252.058C512.796 252.269 512.755 252.478 512.676 252.673C512.597 252.868 512.481 253.045 512.335 253.194C512.189 253.343 512.016 253.461 511.825 253.541C511.635 253.622 511.43 253.663 511.224 253.662H406.339C401.478 253.669 396.819 255.65 393.384 259.17C389.949 262.69 388.02 267.462 388.02 272.437C388.02 277.412 389.949 282.183 393.384 285.703C396.819 289.223 401.478 291.204 406.339 291.211H511.224C511.64 291.211 512.039 291.38 512.333 291.681C512.627 291.982 512.792 292.39 512.792 292.816V292.816Z" fill="#333643"/>
<path d="M510.283 261.044H400.538C400.455 261.044 400.375 261.011 400.316 260.951C400.257 260.892 400.223 260.811 400.223 260.726C400.222 260.641 400.254 260.559 400.312 260.498C400.37 260.438 400.449 260.403 400.532 260.402H510.283C510.366 260.403 510.445 260.437 510.503 260.497C510.561 260.557 510.594 260.638 510.594 260.723C510.594 260.807 510.561 260.888 510.503 260.949C510.445 261.009 510.366 261.043 510.283 261.044H510.283Z" fill="#8A8A8A"/>
<path d="M510.283 268.746H400.538C400.455 268.747 400.375 268.713 400.316 268.654C400.257 268.594 400.223 268.513 400.223 268.428C400.222 268.343 400.254 268.262 400.312 268.201C400.37 268.14 400.449 268.105 400.532 268.104H510.283C510.366 268.105 510.445 268.139 510.503 268.199C510.561 268.259 510.594 268.341 510.594 268.425C510.594 268.51 510.561 268.591 510.503 268.651C510.445 268.711 510.366 268.745 510.283 268.746H510.283Z" fill="#8A8A8A"/>
<path d="M510.283 276.448H400.538C400.455 276.449 400.375 276.416 400.316 276.356C400.257 276.297 400.223 276.215 400.223 276.13C400.222 276.046 400.254 275.964 400.312 275.903C400.37 275.842 400.449 275.808 400.532 275.807H510.283C510.366 275.807 510.445 275.842 510.503 275.902C510.561 275.962 510.594 276.043 510.594 276.128C510.594 276.212 510.561 276.293 510.503 276.353C510.445 276.413 510.366 276.448 510.283 276.448H510.283Z" fill="#8A8A8A"/>
<path d="M510.283 284.151H400.538C400.455 284.151 400.375 284.118 400.316 284.058C400.257 283.999 400.223 283.918 400.223 283.833C400.222 283.748 400.254 283.666 400.312 283.605C400.37 283.545 400.449 283.51 400.532 283.509H510.283C510.366 283.51 510.445 283.544 510.503 283.604C510.561 283.664 510.594 283.745 510.594 283.83C510.594 283.914 510.561 283.995 510.503 284.056C510.445 284.116 510.366 284.15 510.283 284.151H510.283Z" fill="#8A8A8A"/>
<path d="M390.342 85.929H343.813C343.371 85.9286 342.936 86.0323 342.54 86.2321L330.796 92.2494C330.409 92.4175 330.08 92.6983 329.848 93.0567C329.616 93.4152 329.493 93.8355 329.493 94.2652C329.493 94.695 329.616 95.1153 329.848 95.4737C330.08 95.8322 330.409 96.113 330.796 96.2811L342.54 102.298C342.936 102.498 343.371 102.602 343.813 102.602H390.342C390.983 102.639 391.613 102.417 392.096 101.983C392.578 101.549 392.874 100.938 392.919 100.282V88.2479C392.874 87.5922 392.578 86.9812 392.096 86.5471C391.613 86.1131 390.983 85.891 390.342 85.929V85.929Z" fill="#333643"/>
<path d="M392.919 88.248V100.283C392.874 100.938 392.578 101.549 392.096 101.983C391.613 102.417 390.983 102.64 390.342 102.602H381.072V85.929H390.342C390.983 85.891 391.613 86.1131 392.096 86.5472C392.578 86.9812 392.874 87.5923 392.919 88.248V88.248Z" fill="#07549B"/>
<path d="M111.384 321.741C117.375 323.896 123.808 324.436 130.063 323.309C136.317 322.181 142.182 319.424 147.093 315.303C159.601 304.558 163.522 286.857 166.713 270.466C169.859 254.306 173.004 238.146 176.15 221.986L156.392 235.911C142.183 245.925 127.654 256.259 117.815 270.764C107.977 285.268 103.683 305.068 111.587 320.763" fill="#828282"/>
<path d="M113.073 380.436C111.073 365.527 109.017 350.426 110.419 335.357C111.665 321.975 115.654 308.903 123.776 298.186C128.087 292.508 133.332 287.643 139.276 283.81C140.826 282.808 142.253 285.323 140.71 286.32C130.424 292.973 122.469 302.797 117.991 314.376C113.045 327.252 112.25 341.288 113.103 354.967C113.618 363.239 114.711 371.456 115.811 379.663C115.898 380.034 115.844 380.425 115.66 380.757C115.476 381.089 115.176 381.337 114.82 381.451C114.457 381.551 114.07 381.501 113.743 381.311C113.416 381.121 113.175 380.806 113.073 380.436L113.073 380.436Z" fill="#949494"/>
<path d="M132.335 354.054C134.904 358.051 138.436 361.304 142.591 363.498C146.745 365.692 151.381 366.755 156.053 366.583C168.06 366 178.07 357.423 187.08 349.28L213.732 325.196L196.093 324.332C183.408 323.711 170.396 323.131 158.314 327.135C146.232 331.138 135.089 340.774 132.88 353.574" fill="#828282"/>
<path d="M107.421 389.007C117.047 371.575 128.211 352.201 148.161 346.009C153.708 344.294 159.524 343.679 165.296 344.198C167.116 344.359 166.661 347.229 164.845 347.069C155.169 346.247 145.512 348.862 137.5 354.474C129.789 359.845 123.786 367.314 118.704 375.233C115.592 380.084 112.804 385.141 110.016 390.191C109.124 391.805 106.52 390.64 107.421 389.007L107.421 389.007Z" fill="#949494"/>
<path d="M91.999 407.355C92.3233 403.509 93.6725 399.827 95.8997 396.711C98.1269 393.596 101.147 391.165 104.63 389.685V379.607H121.144V390.002C124.456 391.556 127.307 393.98 129.405 397.028C131.503 400.077 132.774 403.64 133.088 407.355L136.971 453.556H88.1157L91.999 407.355Z" fill="#949494"/>
<path d="M653.624 186.754L648.711 184.637L645.341 159.43H600.462L596.809 184.534L592.414 186.783C592.203 186.891 592.035 187.068 591.935 187.286C591.835 187.504 591.811 187.75 591.865 187.984C591.919 188.218 592.048 188.427 592.233 188.576C592.417 188.725 592.645 188.807 592.88 188.807H653.219C653.46 188.807 653.694 188.721 653.88 188.565C654.067 188.409 654.195 188.192 654.242 187.95C654.29 187.708 654.255 187.457 654.142 187.239C654.029 187.021 653.846 186.85 653.624 186.754V186.754Z" fill="#828282"/>
<path d="M733.378 162.784H512.918C511.761 162.781 510.653 162.309 509.836 161.471C509.019 160.633 508.56 159.497 508.56 158.314V126.495H737.736V158.314C737.736 159.497 737.277 160.633 736.46 161.471C735.643 162.309 734.535 162.781 733.378 162.784V162.784Z" fill="#8A8A8A"/>
<path d="M737.966 141.533H508.359V5.38893C508.36 3.96017 508.915 2.59041 509.903 1.58014C510.89 0.569874 512.228 0.00159869 513.624 0H732.701C734.097 0.00159866 735.435 0.569876 736.422 1.58014C737.409 2.5904 737.965 3.96016 737.966 5.38893L737.966 141.533Z" fill="#333643"/>
<path d="M724.253 131.652H522.072C520.996 131.651 519.964 131.212 519.203 130.434C518.442 129.655 518.014 128.599 518.013 127.497V14.0359C518.014 12.9343 518.442 11.8783 519.203 11.0994C519.964 10.3205 520.996 9.88237 522.072 9.8811H724.253C725.329 9.88237 726.361 10.3205 727.122 11.0994C727.883 11.8783 728.311 12.9343 728.312 14.0359V127.497C728.311 128.599 727.883 129.655 727.122 130.434C726.361 131.212 725.329 131.651 724.253 131.652V131.652Z" fill="#949494"/>
<path d="M671.001 171.687C672.307 170.453 673.86 169.527 675.553 168.974C677.246 168.421 679.037 168.254 680.799 168.486C682.562 168.718 684.253 169.343 685.754 170.317C687.255 171.29 688.529 172.588 689.487 174.12L716.835 169.144L723.842 185.416L685.126 191.888C682.505 193.364 679.446 193.805 676.528 193.127C673.611 192.449 671.038 190.699 669.297 188.209C667.556 185.719 666.768 182.661 667.082 179.616C667.396 176.571 668.791 173.75 671.001 171.687V171.687Z" fill="#DB9797"/>
<path d="M696.321 192.463L724.831 192.1L728.44 192.05L786.445 191.302C786.445 191.302 802.197 175.921 815.913 160.086L813.99 145.854C812.115 131.887 805.345 119.093 794.942 109.853C775.297 123.288 763.905 149.88 763.905 149.88L727.94 158.684L724.342 159.565L701.995 165.031L696.321 192.463Z" fill="#07549B"/>
<path d="M842.268 279.938H789.05C789.05 282.272 730.876 284.166 730.876 284.166C729.592 285.155 728.423 286.289 727.389 287.548C724.284 291.339 722.587 296.131 722.597 301.078V304.46C722.599 310.066 724.776 315.442 728.649 319.406C732.522 323.37 737.774 325.598 743.252 325.6H842.268C847.744 325.595 852.995 323.367 856.867 319.403C860.74 315.44 862.918 310.065 862.922 304.46V301.078C862.915 295.473 860.736 290.101 856.864 286.138C852.993 282.175 847.743 279.946 842.268 279.938V279.938Z" fill="#919191"/>
<path d="M803.568 324.76H782.087V451.663H803.568V324.76Z" fill="#919191"/>
<path d="M720.949 450.891C720.949 453.266 753.5 451.81 793.653 451.81C833.807 451.81 866.358 453.266 866.358 450.891C866.358 448.515 833.807 429.677 793.653 429.677C753.5 429.677 720.949 448.515 720.949 450.891Z" fill="#919191"/>
<path d="M706.52 436.391L690.533 436.39L682.927 373.277L706.522 373.278L706.52 436.391Z" fill="#DB9797"/>
<path d="M710.596 452.252L659.048 452.25V451.582C659.048 446.136 661.162 440.913 664.925 437.062C668.688 433.211 673.791 431.047 679.112 431.047H679.113L710.597 431.048L710.596 452.252Z" fill="#333643"/>
<path d="M659.269 436.391L643.282 436.39L635.677 373.277L659.271 373.278L659.269 436.391Z" fill="#DB9797"/>
<path d="M663.346 452.252L611.798 452.25V451.582C611.798 446.136 613.912 440.913 617.675 437.062C621.437 433.211 626.541 431.047 631.862 431.047H631.863L663.347 431.048L663.346 452.252Z" fill="#333643"/>
<path d="M802.476 73.0422C817.827 73.0422 830.272 60.3047 830.272 44.5921C830.272 28.8796 817.827 16.1421 802.476 16.1421C787.124 16.1421 774.679 28.8796 774.679 44.5921C774.679 60.3047 787.124 73.0422 802.476 73.0422Z" fill="#DB9797"/>
<path d="M847.465 239.521C847.465 239.521 856.791 289.998 821.305 296.426C785.818 302.854 734.593 307.372 734.593 307.372L711.589 417.221L680.684 414.397C680.684 414.397 684.794 282.163 694.902 271.818C705.01 261.472 768.896 230.495 768.896 230.495L847.465 239.521Z" fill="#333643"/>
<path d="M778.157 218.366L762.637 234.301C762.637 234.301 650.573 252.776 646.249 279.268C639.723 319.263 632.013 406.237 632.013 406.237L665.706 403.65L678.919 304.785L732.828 292.234L794.161 258.023L778.157 218.366Z" fill="#333643"/>
<path d="M829.224 27.6096C826.48 22.3108 822.994 11.7504 817.456 9.79182C814.38 8.74803 811.201 8.05492 807.977 7.7251L798.563 11.4308L803.687 7.35248C802.689 7.29165 801.692 7.24193 800.696 7.20331L794.344 9.70359L797.594 7.11679C791.672 7.05459 785.56 7.68476 780.972 11.3742C777.06 14.5195 773.185 26.4345 772.558 31.485C771.888 36.3165 772.123 41.2344 773.249 45.9762L774.858 47.5416C775.42 46.2212 775.843 44.8428 776.12 43.4302C776.696 40.7908 777.804 38.3033 779.372 36.1263C780.94 33.9492 782.933 32.1303 785.226 30.7856L785.314 30.735C788.012 29.181 791.285 29.2526 794.379 29.3666L809.072 29.9078C812.607 30.038 816.414 30.2669 819.17 32.5365C820.921 34.2107 822.298 36.2527 823.207 38.5226C824.576 41.3515 827.252 52.0216 827.252 52.0216C827.252 52.0216 828.766 50.0075 829.492 51.5066C830.656 47.5954 831.363 43.5569 831.6 39.4755C831.831 35.376 831.013 31.2856 829.224 27.6096V27.6096Z" fill="#333643"/>
<path d="M926.445 57.0861C924.672 57.2056 922.946 57.7216 921.388 58.5977C919.831 59.4737 918.481 60.6886 917.432 62.1567C916.383 63.6249 915.661 65.3105 915.318 67.095C914.974 68.8794 915.017 70.7192 915.444 72.4848L893.091 89.3608L899.798 105.765L931.037 81.4791C933.888 80.5494 936.306 78.5818 937.834 75.9491C939.362 73.3164 939.893 70.2016 939.327 67.1948C938.761 64.1881 937.137 61.4983 934.762 59.6352C932.388 57.7721 929.429 56.8651 926.445 57.0861V57.0861Z" fill="#DB9797"/>
<path d="M922.847 91.5386L866.811 155.236C866.811 155.236 840.013 146.455 819.289 136.936L809.978 107.668C807.816 100.878 806.894 93.7393 807.256 86.6076C835.987 78.7829 869.403 107.898 869.403 107.898L911.349 74.2695L922.847 91.5386Z" fill="#07549B"/>
<path d="M792.093 244.226C782.096 240.691 771.758 237.036 760.608 235.664L760.129 235.605L760.261 235.13C771.804 193.65 768.923 167.115 763.266 127.256C762.063 118.658 763.609 109.893 767.673 102.269C771.736 94.6441 778.1 88.569 785.814 84.9502L785.883 84.9185L817.73 82.8473L817.802 82.8428L840.964 89.8149C844.296 90.8253 847.212 92.9259 849.266 95.7949C851.32 98.6638 852.398 102.143 852.335 105.699C852.084 118.807 852.617 133.442 853.18 148.936C854.444 183.697 855.751 219.64 848.335 242.961L848.296 243.084L848.197 243.163C841.379 248.846 832.837 251.917 824.045 251.846C813.649 251.846 803.04 248.096 792.093 244.226Z" fill="#07549B"/>
<path d="M1023.29 455H1.48089C1.08814 455 0.711469 454.84 0.433749 454.556C0.156029 454.272 0 453.886 0 453.484C0 453.082 0.156029 452.697 0.433749 452.413C0.711469 452.128 1.08814 451.969 1.48089 451.969H1023.29C1023.69 451.969 1024.06 452.128 1024.34 452.413C1024.62 452.697 1024.77 453.082 1024.77 453.484C1024.77 453.886 1024.62 454.272 1024.34 454.556C1024.06 454.84 1023.69 455 1023.29 455Z" fill="#8A8A8A"/>
</svg>
