<svg width="1000" height="444" viewBox="0 0 1000 444" fill="none" xmlns="http://www.w3.org/2000/svg">
<path d="M902.583 183H314.416C311.919 183 309.524 184.014 307.758 185.818C305.992 187.622 305 190.069 305 192.62C305 195.171 305.992 197.618 307.758 199.422C309.524 201.226 311.919 202.24 314.416 202.24H331.076V432.38C331.076 434.931 332.069 437.378 333.834 439.182C335.6 440.986 337.995 442 340.493 442C342.99 442 345.385 440.986 347.151 439.182C348.917 437.378 349.909 434.931 349.909 432.38L350.052 202.24H822.116L865.642 432.38C865.642 434.931 866.634 437.378 868.4 439.182C870.166 440.986 872.561 442 875.058 442C877.556 442 879.951 440.986 881.717 439.182C883.483 437.378 884.475 434.931 884.475 432.38L887.215 202.24H902.583C905.081 202.24 907.476 201.226 909.242 199.422C911.008 197.618 912 195.171 912 192.62C912 190.069 911.008 187.622 909.242 185.818C907.476 184.014 905.081 183 902.583 183V183Z" fill="#878787"/>
<path d="M417 141.012V180.988H316.721C314.093 181.079 311.473 180.653 309.01 179.733C306.546 178.812 304.289 177.417 302.366 175.625C300.443 173.834 298.892 171.682 297.802 169.291C296.712 166.901 296.104 164.32 296.012 161.695C295.921 159.071 296.348 156.453 297.269 153.993C298.19 151.533 299.588 149.279 301.381 147.358C303.175 145.437 305.33 143.889 307.723 142.8C310.116 141.711 312.701 141.103 315.329 141.012C315.793 140.996 316.257 140.996 316.721 141.012L417 141.012Z" fill="#B0AFAF"/>
<path d="M418.996 181.431C418.996 181.847 418.834 182.246 418.547 182.54C418.26 182.834 417.87 183 417.464 183H314.974C309.41 182.996 304.075 180.729 300.142 176.697C296.209 172.666 294 167.2 294 161.5C294 155.8 296.209 150.334 300.142 146.303C304.075 142.271 309.41 140.004 314.974 140H417.464C417.666 139.999 417.865 140.04 418.051 140.118C418.238 140.197 418.407 140.312 418.55 140.458C418.693 140.604 418.806 140.777 418.883 140.968C418.96 141.159 419 141.363 419 141.569C419 141.776 418.96 141.98 418.883 142.171C418.806 142.362 418.693 142.535 418.55 142.681C418.407 142.826 418.238 142.942 418.051 143.02C417.865 143.099 417.666 143.139 417.464 143.139H314.974C310.225 143.146 305.672 145.084 302.317 148.526C298.961 151.969 297.076 156.635 297.076 161.5C297.076 166.365 298.961 171.031 302.317 174.474C305.672 177.916 310.225 179.854 314.974 179.861H417.464C417.87 179.861 418.26 180.027 418.547 180.321C418.834 180.615 418.996 181.015 418.996 181.431V181.431Z" fill="#07549B"/>
<path d="M416.696 158H309.308C309.227 158.001 309.149 157.949 309.091 157.856C309.034 157.763 309.001 157.637 309 157.505C308.999 157.372 309.031 157.245 309.087 157.15C309.144 157.056 309.222 157.002 309.303 157H416.696C416.777 157.001 416.854 157.055 416.911 157.148C416.968 157.242 417 157.368 417 157.5C417 157.632 416.968 157.758 416.911 157.852C416.854 157.945 416.777 157.999 416.696 158Z" fill="#878787"/>
<path d="M416.696 172H309.308C309.227 172.001 309.149 171.949 309.091 171.856C309.034 171.763 309.001 171.637 309 171.505C308.999 171.372 309.031 171.245 309.087 171.15C309.144 171.056 309.222 171.002 309.303 171H416.696C416.777 171.001 416.854 171.055 416.911 171.148C416.968 171.242 417 171.368 417 171.5C417 171.632 416.968 171.758 416.911 171.852C416.854 171.945 416.777 171.999 416.696 172Z" fill="#878787"/>
<path d="M399 97.0127V138.987H299.55C294.286 139.181 289.165 137.155 285.313 133.357C281.462 129.558 279.195 124.296 279.012 118.73C278.829 113.164 280.744 107.749 284.337 103.676C287.93 99.6032 292.905 97.2063 298.169 97.0127C298.629 96.9958 299.089 96.9958 299.55 97.0127H399Z" fill="#B0AFAF"/>
<path d="M401 138.431C401 138.847 400.84 139.246 400.555 139.54C400.27 139.834 399.883 140 399.48 140H297.819C292.297 140 287.002 137.735 283.098 133.703C279.193 129.671 277 124.202 277 118.5C277 112.798 279.193 107.329 283.098 103.297C287.002 99.2652 292.297 97 297.819 97H399.48C399.68 97 399.878 97.0406 400.062 97.1195C400.246 97.1983 400.414 97.3139 400.555 97.4596C400.696 97.6054 400.808 97.7784 400.884 97.9688C400.961 98.1592 401 98.3633 401 98.5693C401 98.7754 400.961 98.9795 400.884 99.1699C400.808 99.3603 400.696 99.5333 400.555 99.679C400.414 99.8248 400.246 99.9403 400.062 100.019C399.878 100.098 399.68 100.139 399.48 100.139H297.819C293.103 100.139 288.581 102.073 285.247 105.517C281.912 108.96 280.039 113.63 280.039 118.5C280.039 123.37 281.912 128.04 285.247 131.483C288.581 134.927 293.103 136.861 297.819 136.861H399.48C399.883 136.862 400.27 137.027 400.555 137.321C400.84 137.615 401 138.014 401 138.431Z" fill="#333643"/>
<path d="M398.696 107H291.308C291.227 107.001 291.149 106.949 291.091 106.856C291.034 106.763 291.001 106.637 291 106.505C290.999 106.372 291.031 106.245 291.087 106.15C291.144 106.056 291.222 106.002 291.303 106H398.696C398.777 106.001 398.854 106.055 398.911 106.148C398.968 106.242 399 106.368 399 106.5C399 106.632 398.968 106.758 398.911 106.852C398.854 106.945 398.777 106.999 398.696 107V107Z" fill="#878787"/>
<path d="M398.696 122H291.308C291.227 122.001 291.149 121.949 291.091 121.856C291.034 121.763 291.001 121.637 291 121.505C290.999 121.372 291.031 121.245 291.087 121.15C291.144 121.056 291.222 121.002 291.303 121H398.696C398.777 121.001 398.854 121.055 398.911 121.148C398.968 121.242 399 121.368 399 121.5C399 121.632 398.968 121.758 398.911 121.852C398.854 121.945 398.777 121.999 398.696 122Z" fill="#878787"/>
<path d="M398.696 129H291.308C291.227 129.001 291.149 128.949 291.091 128.856C291.034 128.763 291.001 128.637 291 128.505C290.999 128.372 291.031 128.245 291.087 128.15C291.144 128.056 291.222 128.002 291.303 128H398.696C398.777 128.001 398.854 128.055 398.911 128.148C398.968 128.242 399 128.368 399 128.5C399 128.632 398.968 128.758 398.911 128.852C398.854 128.945 398.777 128.999 398.696 129V129Z" fill="#878787"/>
<path d="M514 327V291C514 289.409 513.391 287.883 512.308 286.757C511.224 285.632 509.755 285 508.222 285H376.778C375.245 285 373.776 285.632 372.692 286.757C371.609 287.883 371 289.409 371 291V327H514Z" fill="#878787"/>
<path d="M514 341H371V387H514V341Z" fill="#878787"/>
<path d="M371 400V435.143C371 436.696 371.609 438.186 372.692 439.284C373.776 440.383 375.245 441 376.778 441H508.222C509.755 441 511.224 440.383 512.308 439.284C513.391 438.186 514 436.696 514 435.143V400H371Z" fill="#878787"/>
<path d="M442.5 313C444.985 313 447 310.985 447 308.5C447 306.015 444.985 304 442.5 304C440.015 304 438 306.015 438 308.5C438 310.985 440.015 313 442.5 313Z" fill="#ADADAD"/>
<path d="M442.5 371C444.985 371 447 368.985 447 366.5C447 364.015 444.985 362 442.5 362C440.015 362 438 364.015 438 366.5C438 368.985 440.015 371 442.5 371Z" fill="#ADADAD"/>
<path d="M442.5 430C444.985 430 447 427.761 447 425C447 422.239 444.985 420 442.5 420C440.015 420 438 422.239 438 425C438 427.761 440.015 430 442.5 430Z" fill="#ADADAD"/>
<path d="M498 245.012V284.988H398.539C393.277 285.169 388.159 283.238 384.309 279.621C380.46 276.003 378.195 270.994 378.012 265.696C377.829 260.397 379.742 255.242 383.332 251.363C386.922 247.485 391.894 245.2 397.156 245.012C397.617 244.996 398.078 244.996 398.539 245.012H498Z" fill="#B0AFAF"/>
<path d="M499.996 285.431C499.996 285.847 499.836 286.246 499.551 286.54C499.266 286.834 498.879 287 498.477 287H396.822C391.302 287.001 386.008 284.739 382.103 280.709C378.199 276.68 376.003 271.214 376 265.513C375.997 259.812 378.186 254.343 382.086 250.309C385.986 246.275 391.277 244.005 396.797 244H498.477C498.676 243.999 498.874 244.04 499.059 244.118C499.244 244.197 499.412 244.312 499.554 244.458C499.695 244.604 499.807 244.777 499.884 244.968C499.961 245.159 500 245.363 500 245.569C500 245.776 499.961 245.98 499.884 246.171C499.807 246.362 499.695 246.535 499.554 246.68C499.412 246.826 499.244 246.942 499.059 247.02C498.874 247.099 498.676 247.139 498.477 247.139H396.822C392.111 247.145 387.595 249.082 384.266 252.525C380.937 255.968 379.067 260.634 379.067 265.5C379.067 270.366 380.937 275.032 384.266 278.475C387.595 281.918 392.111 283.855 396.822 283.861H498.477C498.879 283.861 499.266 284.027 499.551 284.321C499.836 284.615 499.996 285.014 499.996 285.431V285.431Z" fill="#333643"/>
<path d="M497.696 263H390.308C390.227 263.001 390.149 262.949 390.091 262.856C390.034 262.763 390.001 262.637 390 262.505C389.999 262.372 390.031 262.245 390.087 262.15C390.144 262.056 390.222 262.002 390.303 262H497.696C497.777 262.001 497.854 262.055 497.911 262.148C497.968 262.242 498 262.368 498 262.5C498 262.632 497.968 262.758 497.911 262.852C497.854 262.945 497.777 262.999 497.696 263H497.696Z" fill="#878787"/>
<path d="M497.696 278H390.308C390.227 278.001 390.149 277.949 390.091 277.856C390.034 277.763 390.001 277.637 390 277.505C389.999 277.372 390.031 277.245 390.087 277.15C390.144 277.056 390.222 277.002 390.303 277H497.696C497.777 277.001 497.854 277.055 497.911 277.148C497.968 277.242 498 277.368 498 277.5C498 277.632 497.968 277.758 497.911 277.852C497.854 277.945 497.777 277.999 497.696 278H497.696Z" fill="#878787"/>
<path d="M380.521 84.004H335.772C335.347 84.0036 334.928 84.1031 334.548 84.2948L323.253 90.0664C322.881 90.2277 322.564 90.497 322.342 90.8408C322.119 91.1846 322 91.5878 322 92C322 92.4122 322.119 92.8154 322.342 93.1592C322.564 93.503 322.881 93.7723 323.253 93.9336L334.548 99.7052C334.928 99.8968 335.347 99.9964 335.772 99.996H380.521C381.138 100.032 381.744 99.8194 382.208 99.403C382.672 98.9867 382.956 98.4006 383 97.7716V86.2283C382.956 85.5993 382.672 85.0133 382.208 84.5969C381.744 84.1806 381.138 83.9676 380.521 84.004V84.004Z" fill="#333643"/>
<path d="M383 86.2284V97.7716C382.958 98.4006 382.683 98.9867 382.235 99.403C381.788 99.8194 381.203 100.032 380.607 99.996H372V84.004H380.607C381.203 83.9676 381.788 84.1806 382.235 84.597C382.683 85.0133 382.958 85.5994 383 86.2284V86.2284Z" fill="#07549B"/>
<path d="M108.807 313.94C114.652 316.013 120.929 316.533 127.032 315.448C133.134 314.364 138.857 311.712 143.649 307.748C155.852 297.415 159.678 280.39 162.792 264.626C165.861 249.084 168.931 233.542 172 218L152.721 231.392C138.857 241.023 124.681 250.962 115.082 264.912C105.482 278.862 101.292 297.905 109.005 312.999" fill="#8F8F8F"/>
<path d="M110.074 370.966C108.101 356.502 106.071 341.853 107.456 327.233C108.685 314.25 112.621 301.569 120.635 291.171C124.889 285.663 130.065 280.943 135.93 277.224C137.46 276.253 138.868 278.692 137.345 279.659C127.196 286.114 119.346 295.645 114.927 306.878C110.046 319.37 109.262 332.987 110.103 346.257C110.612 354.282 111.69 362.255 112.776 370.217C112.862 370.577 112.808 370.956 112.627 371.278C112.445 371.6 112.149 371.841 111.798 371.951C111.439 372.048 111.057 371.999 110.735 371.815C110.412 371.631 110.175 371.326 110.074 370.966L110.074 370.966Z" fill="#9F9F9F"/>
<path d="M129 344.956C131.525 348.793 134.997 351.915 139.08 354.021C143.163 356.128 147.72 357.148 152.311 356.983C164.112 356.423 173.95 348.19 182.806 340.373L209 317.254L191.664 316.425C179.197 315.829 166.408 315.272 154.533 319.116C142.659 322.959 131.707 332.208 129.536 344.495" fill="#8F8F8F"/>
<path d="M105.18 379.124C114.444 362.414 125.19 343.843 144.392 337.907C149.731 336.263 155.329 335.673 160.885 336.172C162.636 336.325 162.199 339.077 160.451 338.923C151.138 338.135 141.843 340.642 134.13 346.021C126.709 351.17 120.931 358.329 116.04 365.921C113.044 370.571 110.361 375.418 107.677 380.259C106.819 381.806 104.312 380.689 105.18 379.124L105.18 379.124Z" fill="#9F9F9F"/>
<path d="M89.8153 397.392C90.1339 393.595 91.4595 389.961 93.6477 386.885C95.8359 383.809 98.8028 381.41 102.225 379.948V370H118.451V380.262C121.705 381.795 124.505 384.188 126.566 387.198C128.628 390.207 129.876 393.724 130.185 397.392L134 443H86L89.8153 397.392Z" fill="#8F8F8F"/>
<path d="M637.386 182.043L632.664 180.025L629.425 156H586.29L582.779 179.927L578.554 182.071C578.352 182.174 578.19 182.343 578.095 182.55C577.999 182.758 577.975 182.993 578.027 183.216C578.079 183.439 578.203 183.638 578.381 183.78C578.558 183.923 578.777 184 579.003 184H636.997C637.228 184 637.453 183.919 637.632 183.77C637.811 183.621 637.934 183.414 637.98 183.183C638.026 182.953 637.992 182.713 637.884 182.506C637.775 182.298 637.599 182.135 637.386 182.043V182.043Z" fill="#B4B2B2"/>
<path d="M715.741 159H500.26C499.129 158.997 498.046 158.529 497.247 157.698C496.448 156.866 496 155.74 496 154.565V123H720V154.565C720 155.74 719.552 156.866 718.753 157.698C717.954 158.529 716.871 158.997 715.741 159V159Z" fill="#878787"/>
<path d="M720 139H496V5.29248C496.002 3.88929 496.543 2.54404 497.506 1.55186C498.469 0.559675 499.775 0.00157007 501.137 0H714.863C716.225 0.00157005 717.531 0.559676 718.494 1.55186C719.457 2.54404 719.998 3.88929 720 5.29248L720 139Z" fill="#333643"/>
<path d="M707.024 128H508.976C507.922 127.999 506.911 127.574 506.166 126.82C505.42 126.065 505.001 125.042 505 123.974V14.0261C505.001 12.9587 505.42 11.9353 506.166 11.1806C506.911 10.4258 507.922 10.0012 508.976 10H707.024C708.078 10.0012 709.089 10.4258 709.834 11.1806C710.58 11.9353 710.999 12.9587 711 14.0261V123.974C710.999 125.042 710.58 126.065 709.834 126.82C709.089 127.574 708.078 127.999 707.024 128V128Z" fill="#9C9C9C"/>
<path d="M655.859 167.295C657.122 166.064 658.626 165.139 660.264 164.588C661.903 164.036 663.636 163.87 665.342 164.101C667.047 164.333 668.684 164.956 670.137 165.928C671.59 166.899 672.823 168.195 673.75 169.724L700.218 164.758L707 180.995L669.529 187.454C666.993 188.927 664.032 189.367 661.208 188.69C658.385 188.013 655.894 186.267 654.209 183.782C652.524 181.297 651.761 178.247 652.065 175.208C652.369 172.169 653.719 169.354 655.859 167.295V167.295Z" fill="#DB9797"/>
<path d="M679 188L706.892 187.643L710.423 187.594L767.171 186.861C767.171 186.861 782.581 171.78 796 156.254L794.119 142.299C792.285 128.604 785.662 116.06 775.484 107C756.265 120.173 745.12 146.247 745.12 146.247L709.934 154.88L706.414 155.743L684.551 161.102L679 188Z" fill="#07549B"/>
<path d="M821.835 274H769.878C769.878 276.249 713.083 278.074 713.083 278.074C711.83 279.027 710.688 280.12 709.679 281.333C706.647 284.986 704.99 289.603 705 294.37V297.63C705.002 303.032 707.127 308.212 710.908 312.032C714.69 315.851 719.818 317.998 725.165 318H821.835C827.182 317.995 832.308 315.848 836.089 312.028C839.869 308.209 841.995 303.031 842 297.63V294.37C841.993 288.97 839.866 283.793 836.086 279.975C832.305 276.156 827.181 274.008 821.835 274V274Z" fill="#9E9D9D"/>
<path d="M785 317H763V441H785V317Z" fill="#9E9D9D"/>
<path d="M704 439.674C704 441.989 735.788 440.569 775 440.569C814.212 440.569 846 441.989 846 439.674C846 437.359 814.212 419 775 419C735.788 419 704 437.359 704 439.674Z" fill="#9E9D9D"/>
<path d="M689.998 426L673.736 425.999L666 364L690 364.001L689.998 426Z" fill="#DB9797"/>
<path d="M693.999 441L643 440.998V440.337C643 434.943 645.092 429.771 648.814 425.957C652.537 422.143 657.586 420 662.85 420H662.851L694 420.001L693.999 441Z" fill="#333643"/>
<path d="M642.998 426L627.414 425.999L620 364L643 364.001L642.998 426Z" fill="#DB9797"/>
<path d="M647.999 441L597 440.998V440.337C597 434.943 599.092 429.771 602.814 425.957C606.537 422.143 611.586 420 616.85 420H616.851L648 420.001L647.999 441Z" fill="#333643"/>
<path d="M783 72C797.912 72 810 59.464 810 44C810 28.536 797.912 16 783 16C768.088 16 756 28.536 756 44C756 59.464 768.088 72 783 72Z" fill="#DB9797"/>
<path d="M826.925 233.797C826.925 233.797 835.98 282.997 801.527 289.262C767.074 295.528 717.339 299.931 717.339 299.931L695.005 407L665 404.247C665 404.247 668.991 275.36 678.804 265.277C688.618 255.193 750.644 225 750.644 225L826.925 233.797Z" fill="#333643"/>
<path d="M760.306 213L745.088 228.607C745.088 228.607 635.199 246.701 630.96 272.647C624.56 311.819 617 397 617 397L650.039 394.467L662.995 297.639L715.857 285.347L776 251.841L760.306 213Z" fill="#333643"/>
<path d="M808.645 27.6256C805.968 22.552 802.567 12.4405 797.164 10.5652C794.163 9.56573 791.062 8.90208 787.917 8.58628L778.733 12.1345L783.731 8.2295C782.758 8.17126 781.786 8.12365 780.814 8.08667L774.617 10.4807L777.787 8.00383C772.011 7.94427 766.048 8.54765 761.572 12.0803C757.756 15.0919 753.975 26.5004 753.364 31.3362C752.71 35.9624 752.939 40.6712 754.038 45.2115L755.607 46.7104C756.156 45.4461 756.569 44.1263 756.838 42.7738C757.401 40.2466 758.481 37.8648 760.011 35.7803C761.54 33.6957 763.485 31.9542 765.722 30.6666L765.807 30.6182C768.439 29.1302 771.633 29.1988 774.651 29.3079L788.985 29.8261C792.434 29.9507 796.147 30.1699 798.836 32.343C800.545 33.9461 801.888 35.9013 802.775 38.0747C804.111 40.7834 806.721 51 806.721 51C806.721 51 808.198 49.0715 808.906 50.5069C810.042 46.7619 810.732 42.8951 810.963 38.9872C811.188 35.0618 810.39 31.1453 808.645 27.6256V27.6256Z" fill="#333643"/>
<path d="M904.308 56.0315C902.591 56.1468 900.919 56.6446 899.41 57.4899C897.902 58.3352 896.594 59.5074 895.578 60.924C894.562 62.3405 893.863 63.9669 893.53 65.6887C893.197 67.4104 893.239 69.1856 893.652 70.8891L872 87.1722L878.497 103L908.756 79.5674C911.518 78.6704 913.86 76.7719 915.34 74.2317C916.82 71.6915 917.334 68.6861 916.786 65.785C916.238 62.8839 914.665 60.2887 912.365 58.491C910.065 56.6934 907.198 55.8183 904.308 56.0315V56.0315Z" fill="#DB9797"/>
<path d="M901 89.8497L846.256 152C846.256 152 820.077 143.433 799.83 134.145L790.734 105.588C788.622 98.9627 787.721 91.9969 788.075 85.0385C816.143 77.4037 848.789 105.811 848.789 105.811L889.767 73L901 89.8497Z" fill="#07549B"/>
<path d="M773.274 237.604C763.493 234.174 753.378 230.627 742.469 229.296L742 229.238L742.129 228.778C753.423 188.526 750.604 162.777 745.07 124.098C743.893 115.755 745.405 107.249 749.381 99.8507C753.357 92.4519 759.584 86.5567 767.131 83.045L767.198 83.0143L798.357 81.0044L798.428 81L821.09 87.7656C824.35 88.7461 827.203 90.7845 829.213 93.5685C831.222 96.3525 832.277 99.7286 832.216 103.179C831.97 115.9 832.491 130.101 833.042 145.136C834.279 178.867 835.558 213.746 828.302 236.377L828.264 236.496L828.167 236.573C821.496 242.088 813.139 245.068 804.536 244.999C794.365 244.999 783.984 241.359 773.274 237.604Z" fill="#07549B"/>
<path d="M998.555 444H1.44509C1.06183 444 0.694269 443.842 0.423263 443.561C0.152257 443.279 0 442.898 0 442.5C0 442.102 0.152257 441.721 0.423263 441.439C0.694269 441.158 1.06183 441 1.44509 441H998.555C998.938 441 999.306 441.158 999.577 441.439C999.848 441.721 1000 442.102 1000 442.5C1000 442.898 999.848 443.279 999.577 443.561C999.306 443.842 998.938 444 998.555 444Z" fill="#878787"/>
</svg>
