<svg width="1000" height="444" viewBox="0 0 1000 444" fill="none" xmlns="http://www.w3.org/2000/svg">
<g clip-path="url(#clip0_304_40)">
<path d="M902.029 183.163H315.324C312.833 183.163 310.444 184.176 308.682 185.979C306.921 187.782 305.931 190.227 305.931 192.777C305.931 195.327 306.921 197.772 308.682 199.575C310.444 201.378 312.833 202.391 315.324 202.391H331.943V432.383C331.943 434.933 332.932 437.378 334.694 439.181C336.455 440.984 338.845 441.997 341.336 441.997C343.827 441.997 346.216 440.984 347.978 439.181C349.739 437.378 350.729 434.933 350.729 432.383L350.872 202.391H821.762L865.18 432.383C865.18 434.933 866.169 437.378 867.931 439.181C869.692 440.984 872.082 441.997 874.573 441.997C877.064 441.997 879.453 440.984 881.215 439.181C882.976 437.378 883.966 434.933 883.966 432.383L886.699 202.391H902.029C904.521 202.391 906.91 201.378 908.671 199.575C910.433 197.772 911.422 195.327 911.422 192.777C911.422 190.227 910.433 187.782 908.671 185.979C906.91 184.176 904.521 183.163 902.029 183.163V183.163Z" fill="#CCCCCC"/>
<path d="M417.022 140.325V181.037H317.365C314.754 181.13 312.149 180.696 309.702 179.759C307.254 178.822 305.011 177.4 303.099 175.576C301.188 173.751 299.647 171.56 298.564 169.125C297.48 166.691 296.876 164.063 296.785 161.389C296.694 158.716 297.119 156.051 298.034 153.546C298.95 151.04 300.338 148.744 302.121 146.788C303.904 144.832 306.045 143.255 308.423 142.146C310.801 141.037 313.37 140.418 315.982 140.325C316.443 140.309 316.904 140.309 317.365 140.325L417.022 140.325Z" fill="#F2F2F2"/>
<path d="M419.47 180.724C419.469 181.139 419.308 181.537 419.021 181.831C418.734 182.125 418.345 182.29 417.94 182.29H315.59C310.034 182.286 304.707 180.024 300.779 176.001C296.852 171.979 294.646 166.525 294.646 160.838C294.646 155.151 296.852 149.697 300.779 145.674C304.707 141.652 310.034 139.39 315.59 139.386H417.94C418.141 139.385 418.34 139.425 418.526 139.504C418.712 139.582 418.882 139.698 419.024 139.843C419.167 139.988 419.28 140.161 419.357 140.351C419.434 140.542 419.474 140.746 419.474 140.952C419.474 141.158 419.434 141.362 419.357 141.552C419.28 141.742 419.167 141.915 419.024 142.06C418.882 142.206 418.712 142.321 418.526 142.399C418.34 142.478 418.141 142.518 417.94 142.517H315.59C310.848 142.525 306.302 144.458 302.951 147.893C299.6 151.328 297.718 155.984 297.718 160.838C297.718 165.692 299.6 170.348 302.951 173.783C306.302 177.217 310.848 179.151 315.59 179.158H417.94C418.345 179.158 418.734 179.323 419.021 179.617C419.308 179.911 419.469 180.309 419.47 180.724V180.724Z" fill="#0688FF"/>
<path d="M417.022 149.72H309.93C309.849 149.721 309.771 149.688 309.713 149.63C309.656 149.572 309.623 149.493 309.622 149.41C309.621 149.327 309.653 149.248 309.709 149.188C309.766 149.129 309.843 149.095 309.924 149.094H417.022C417.102 149.095 417.179 149.128 417.236 149.187C417.293 149.246 417.325 149.325 417.325 149.407C417.325 149.49 417.293 149.569 417.236 149.628C417.179 149.686 417.102 149.72 417.022 149.72Z" fill="#CCCCCC"/>
<path d="M417.022 157.236H309.93C309.849 157.237 309.771 157.205 309.713 157.146C309.656 157.088 309.623 157.009 309.622 156.926C309.621 156.843 309.653 156.764 309.709 156.704C309.766 156.645 309.843 156.611 309.924 156.61H417.022C417.102 156.611 417.179 156.644 417.236 156.703C417.293 156.762 417.325 156.841 417.325 156.923C417.325 157.006 417.293 157.085 417.236 157.144C417.179 157.202 417.102 157.236 417.022 157.236Z" fill="#CCCCCC"/>
<path d="M417.022 164.752H309.93C309.849 164.753 309.771 164.721 309.713 164.662C309.656 164.604 309.623 164.525 309.622 164.442C309.621 164.359 309.653 164.28 309.709 164.22C309.766 164.161 309.843 164.127 309.924 164.126H417.022C417.102 164.127 417.179 164.16 417.236 164.219C417.293 164.278 417.325 164.357 417.325 164.439C417.325 164.522 417.293 164.601 417.236 164.66C417.179 164.718 417.102 164.752 417.022 164.752Z" fill="#CCCCCC"/>
<path d="M417.022 172.268H309.93C309.849 172.269 309.771 172.236 309.713 172.178C309.656 172.12 309.623 172.041 309.622 171.958C309.621 171.875 309.653 171.796 309.709 171.736C309.766 171.677 309.843 171.643 309.924 171.642H417.022C417.102 171.643 417.179 171.676 417.236 171.735C417.293 171.794 417.325 171.873 417.325 171.955C417.325 172.038 417.293 172.117 417.236 172.176C417.179 172.234 417.102 172.268 417.022 172.268Z" fill="#CCCCCC"/>
<path d="M398.236 97.4329V138.145H298.579C293.304 138.333 288.173 136.368 284.313 132.683C280.454 128.999 278.182 123.896 277.999 118.497C277.815 113.098 279.735 107.846 283.335 103.896C286.935 99.9455 291.921 97.6208 297.195 97.4329C297.656 97.4165 298.118 97.4165 298.579 97.4329H398.236Z" fill="#F2F2F2"/>
<path d="M400.684 137.832C400.683 138.247 400.522 138.645 400.235 138.939C399.948 139.232 399.559 139.397 399.154 139.398H296.804C291.246 139.398 285.914 137.137 281.984 133.114C278.053 129.091 275.845 123.635 275.845 117.945C275.845 112.256 278.053 106.8 281.984 102.777C285.914 98.7536 291.246 96.4935 296.804 96.4935H399.154C399.355 96.4935 399.554 96.534 399.739 96.6127C399.925 96.6913 400.093 96.8067 400.236 96.9521C400.378 97.0975 400.49 97.2701 400.567 97.4601C400.644 97.6501 400.684 97.8537 400.684 98.0593C400.684 98.2649 400.644 98.4685 400.567 98.6585C400.49 98.8485 400.378 99.0211 400.236 99.1665C400.093 99.3119 399.925 99.4272 399.739 99.5059C399.554 99.5846 399.355 99.6252 399.154 99.6252H296.804C292.057 99.6252 287.504 101.555 284.147 104.991C280.79 108.427 278.905 113.087 278.905 117.946C278.905 122.804 280.79 127.464 284.147 130.9C287.504 134.336 292.057 136.266 296.804 136.266H399.154C399.559 136.266 399.948 136.431 400.235 136.725C400.522 137.018 400.683 137.416 400.684 137.832Z" fill="#506578"/>
<path d="M398.236 106.828H291.144C291.063 106.828 290.985 106.796 290.927 106.738C290.87 106.68 290.837 106.601 290.836 106.518C290.835 106.435 290.867 106.355 290.923 106.296C290.98 106.237 291.057 106.203 291.138 106.202H398.236C398.316 106.202 398.393 106.236 398.45 106.294C398.507 106.353 398.539 106.432 398.539 106.515C398.539 106.597 398.507 106.676 398.45 106.735C398.393 106.794 398.316 106.827 398.236 106.828V106.828Z" fill="#CCCCCC"/>
<path d="M398.236 114.344H291.144C291.063 114.344 290.985 114.312 290.927 114.254C290.87 114.196 290.837 114.117 290.836 114.034C290.835 113.951 290.867 113.871 290.923 113.812C290.98 113.753 291.057 113.719 291.138 113.718H398.236C398.316 113.718 398.393 113.752 398.45 113.81C398.507 113.869 398.539 113.948 398.539 114.031C398.539 114.113 398.507 114.193 398.45 114.251C398.393 114.31 398.316 114.343 398.236 114.344Z" fill="#CCCCCC"/>
<path d="M398.236 121.86H291.144C291.063 121.86 290.985 121.828 290.927 121.77C290.87 121.712 290.837 121.633 290.836 121.55C290.835 121.467 290.867 121.387 290.923 121.328C290.98 121.269 291.057 121.235 291.138 121.234H398.236C398.316 121.235 398.393 121.268 398.45 121.327C398.507 121.385 398.539 121.464 398.539 121.547C398.539 121.629 398.507 121.709 398.45 121.767C398.393 121.826 398.316 121.859 398.236 121.86Z" fill="#CCCCCC"/>
<path d="M398.236 129.376H291.144C291.063 129.376 290.985 129.344 290.927 129.286C290.87 129.228 290.837 129.149 290.836 129.066C290.835 128.983 290.867 128.903 290.923 128.844C290.98 128.785 291.057 128.751 291.138 128.75H398.236C398.316 128.75 398.393 128.784 398.45 128.842C398.507 128.901 398.539 128.98 398.539 129.063C398.539 129.145 398.507 129.225 398.45 129.283C398.393 129.342 398.316 129.375 398.236 129.376V129.376Z" fill="#CCCCCC"/>
<path d="M514.166 327.225V291.728C514.166 290.159 513.557 288.654 512.473 287.545C511.389 286.435 509.919 285.812 508.386 285.812H376.883C375.35 285.812 373.88 286.435 372.796 287.545C371.712 288.654 371.103 290.159 371.103 291.728V327.225H514.166Z" fill="#CCCCCC"/>
<path d="M514.166 340.537H371.103V386.387H514.166V340.537Z" fill="#CCCCCC"/>
<path d="M371.103 399.698V435.196C371.103 436.765 371.712 438.27 372.796 439.379C373.88 440.488 375.35 441.112 376.883 441.112H508.386C509.919 441.112 511.389 440.488 512.473 439.379C513.557 438.27 514.166 436.765 514.166 435.196V399.698H371.103Z" fill="#CCCCCC"/>
<path d="M441.912 312.435C444.306 312.435 446.247 310.448 446.247 307.997C446.247 305.547 444.306 303.56 441.912 303.56C439.518 303.56 437.577 305.547 437.577 307.997C437.577 310.448 439.518 312.435 441.912 312.435Z" fill="white"/>
<path d="M441.912 371.597C444.306 371.597 446.247 369.61 446.247 367.159C446.247 364.709 444.306 362.722 441.912 362.722C439.518 362.722 437.577 364.709 437.577 367.159C437.577 369.61 439.518 371.597 441.912 371.597Z" fill="white"/>
<path d="M442.144 429.506C444.539 429.506 446.48 427.519 446.48 425.069C446.48 422.618 444.539 420.631 442.144 420.631C439.75 420.631 437.809 422.618 437.809 425.069C437.809 427.519 439.75 429.506 442.144 429.506Z" fill="white"/>
<path d="M497.946 245.338V286.05H398.29C393.018 286.234 387.89 284.268 384.033 280.583C380.176 276.899 377.907 271.798 377.723 266.402C377.54 261.006 379.457 255.756 383.054 251.806C386.651 247.856 391.633 245.53 396.905 245.338C397.367 245.321 397.828 245.321 398.29 245.338H497.946Z" fill="#F2F2F2"/>
<path d="M500.395 285.736C500.394 286.152 500.233 286.55 499.946 286.844C499.659 287.137 499.27 287.302 498.865 287.302H396.515C390.958 287.304 385.627 285.046 381.696 281.026C377.764 277.005 375.554 271.551 375.551 265.863C375.547 260.175 377.751 254.718 381.678 250.693C385.605 246.668 390.933 244.404 396.49 244.398H498.865C499.066 244.398 499.265 244.438 499.451 244.516C499.637 244.595 499.807 244.71 499.949 244.855C500.092 245.001 500.205 245.174 500.282 245.364C500.359 245.554 500.399 245.758 500.399 245.964C500.399 246.17 500.359 246.374 500.282 246.564C500.205 246.754 500.092 246.927 499.949 247.073C499.807 247.218 499.637 247.333 499.451 247.412C499.265 247.49 499.066 247.53 498.865 247.53H396.515C391.772 247.536 387.225 249.469 383.873 252.904C380.522 256.339 378.639 260.996 378.639 265.85C378.639 270.705 380.522 275.361 383.873 278.796C387.225 282.231 391.772 284.164 396.515 284.171H498.865C499.27 284.171 499.659 284.336 499.946 284.629C500.233 284.923 500.394 285.321 500.395 285.736V285.736Z" fill="#506578"/>
<path d="M497.947 254.733H390.855C390.774 254.733 390.696 254.701 390.638 254.643C390.581 254.585 390.548 254.505 390.547 254.423C390.546 254.34 390.578 254.26 390.634 254.201C390.691 254.141 390.768 254.108 390.849 254.106H497.947C498.027 254.107 498.105 254.141 498.161 254.199C498.218 254.258 498.25 254.337 498.25 254.42C498.25 254.502 498.218 254.581 498.161 254.64C498.105 254.699 498.027 254.732 497.947 254.733H497.947Z" fill="#CCCCCC"/>
<path d="M497.947 262.249H390.855C390.774 262.249 390.696 262.217 390.638 262.159C390.581 262.101 390.548 262.021 390.547 261.939C390.546 261.856 390.578 261.776 390.634 261.717C390.691 261.658 390.768 261.624 390.849 261.623H497.947C498.027 261.623 498.105 261.657 498.161 261.715C498.218 261.774 498.25 261.853 498.25 261.936C498.25 262.018 498.218 262.097 498.161 262.156C498.105 262.215 498.027 262.248 497.947 262.249H497.947Z" fill="#CCCCCC"/>
<path d="M497.947 269.765H390.855C390.774 269.765 390.696 269.733 390.638 269.675C390.581 269.617 390.548 269.538 390.547 269.455C390.546 269.372 390.578 269.292 390.634 269.233C390.691 269.174 390.768 269.14 390.849 269.139H497.947C498.027 269.139 498.105 269.173 498.161 269.231C498.218 269.29 498.25 269.369 498.25 269.452C498.25 269.534 498.218 269.613 498.161 269.672C498.105 269.731 498.027 269.764 497.947 269.765H497.947Z" fill="#CCCCCC"/>
<path d="M497.947 277.281H390.855C390.774 277.281 390.696 277.249 390.638 277.191C390.581 277.133 390.548 277.054 390.547 276.971C390.546 276.888 390.578 276.808 390.634 276.749C390.691 276.69 390.768 276.656 390.849 276.655H497.947C498.027 276.655 498.105 276.689 498.161 276.747C498.218 276.806 498.25 276.885 498.25 276.968C498.25 277.05 498.218 277.129 498.161 277.188C498.105 277.247 498.027 277.28 497.947 277.281H497.947Z" fill="#CCCCCC"/>
<path d="M380.905 83.8516H335.501C335.07 83.8512 334.645 83.9524 334.258 84.1474L322.799 90.0192C322.421 90.1832 322.1 90.4572 321.874 90.807C321.648 91.1568 321.527 91.5669 321.527 91.9863C321.527 92.4057 321.648 92.8158 321.874 93.1656C322.1 93.5154 322.421 93.7893 322.799 93.9534L334.258 99.8252C334.645 100.02 335.07 100.121 335.501 100.121H380.905C381.531 100.158 382.146 99.9413 382.617 99.5178C383.087 99.0942 383.376 98.4979 383.42 97.858V86.1145C383.376 85.4746 383.087 84.8783 382.617 84.4548C382.146 84.0312 381.531 83.8145 380.905 83.8516V83.8516Z" fill="#506578"/>
<path d="M383.42 86.1145V97.8581C383.376 98.498 383.087 99.0943 382.617 99.5179C382.146 99.9414 381.531 100.158 380.905 100.121H371.859V83.8516H380.905C381.531 83.8145 382.146 84.0312 382.617 84.4548C383.087 84.8784 383.376 85.4747 383.42 86.1145V86.1145Z" fill="#0688FF"/>
<path d="M108.691 313.963C114.538 316.066 120.815 316.593 126.918 315.492C133.021 314.392 138.745 311.702 143.537 307.68C155.742 297.195 159.569 279.922 162.682 263.928C165.752 248.158 168.822 232.389 171.892 216.62L152.611 230.208C138.745 239.979 124.567 250.064 114.967 264.218C105.367 278.372 101.176 297.693 108.89 313.008" fill="#E6E6E6"/>
<path d="M110.339 371.239C108.388 356.69 106.381 341.955 107.75 327.25C108.966 314.191 112.858 301.435 120.784 290.977C124.99 285.436 130.109 280.689 135.909 276.948C137.422 275.971 138.814 278.425 137.308 279.398C127.271 285.89 119.509 295.476 115.138 306.776C110.312 319.341 109.537 333.037 110.369 346.385C110.872 354.457 111.938 362.476 113.012 370.485C113.096 370.847 113.044 371.228 112.864 371.552C112.684 371.876 112.391 372.118 112.044 372.229C111.69 372.327 111.312 372.278 110.993 372.092C110.674 371.907 110.439 371.6 110.339 371.239L110.339 371.239Z" fill="#F2F2F2"/>
<path d="M129.135 345.494C131.643 349.395 135.09 352.569 139.143 354.71C143.197 356.852 147.722 357.888 152.28 357.721C163.997 357.152 173.765 348.782 182.557 340.836L208.565 317.334L191.352 316.491C178.974 315.885 166.276 315.319 154.487 319.226C142.697 323.133 131.823 332.535 129.668 345.026" fill="#E6E6E6"/>
<path d="M104.824 379.602C114.217 362.592 125.112 343.687 144.579 337.644C149.992 335.97 155.667 335.37 161.3 335.877C163.076 336.034 162.632 338.835 160.86 338.678C151.418 337.876 141.994 340.428 134.175 345.904C126.651 351.146 120.793 358.433 115.835 366.161C112.798 370.895 110.077 375.829 107.356 380.757C106.486 382.332 103.945 381.195 104.824 379.602L104.824 379.602Z" fill="#F2F2F2"/>
<path d="M89.7746 397.507C90.0911 393.753 91.4077 390.161 93.581 387.121C95.7544 384.08 98.7011 381.709 102.1 380.264V370.43H118.215V380.574C121.447 382.09 124.229 384.455 126.276 387.43C128.324 390.405 129.564 393.882 129.87 397.507L133.659 442.591H85.9852L89.7746 397.507Z" fill="#F2F2F2"/>
<path d="M637.822 182.239L633.028 180.173L629.74 155.576H585.945L582.38 180.072L578.091 182.267C577.886 182.372 577.722 182.545 577.625 182.758C577.527 182.971 577.503 183.211 577.556 183.439C577.609 183.668 577.735 183.871 577.915 184.017C578.095 184.163 578.318 184.242 578.547 184.242H637.427C637.662 184.242 637.89 184.159 638.072 184.006C638.254 183.854 638.379 183.642 638.426 183.406C638.472 183.17 638.437 182.925 638.327 182.712C638.217 182.499 638.039 182.332 637.822 182.239V182.239Z" fill="#E6E6E6"/>
<path d="M715.648 158.848H500.518C499.389 158.846 498.307 158.385 497.51 157.567C496.713 156.749 496.265 155.641 496.265 154.486V123.437H719.901V154.486C719.901 155.641 719.453 156.749 718.656 157.567C717.858 158.385 716.777 158.846 715.648 158.848V158.848Z" fill="#CCCCCC"/>
<path d="M720.126 138.111H496.069V5.25864C496.07 3.86443 496.612 2.52778 497.575 1.54194C498.539 0.556097 499.845 0.00156004 501.207 0H714.987C716.35 0.00156001 717.656 0.556098 718.619 1.54194C719.582 2.52778 720.124 3.86442 720.126 5.25864L720.126 138.111Z" fill="#506578"/>
<path d="M706.744 128.469H509.451C508.401 128.468 507.394 128.04 506.651 127.28C505.909 126.52 505.491 125.49 505.49 124.415V13.6965C505.491 12.6216 505.909 11.5911 506.651 10.8311C507.394 10.071 508.401 9.64345 509.451 9.64221H706.744C707.794 9.64345 708.801 10.071 709.543 10.8311C710.286 11.5911 710.703 12.6216 710.705 13.6965V124.415C710.703 125.49 710.286 126.52 709.543 127.28C708.801 128.04 707.794 128.468 706.744 128.469V128.469Z" fill="white"/>
<path d="M654.779 167.536C656.053 166.332 657.569 165.428 659.221 164.888C660.873 164.349 662.621 164.187 664.341 164.413C666.06 164.639 667.711 165.249 669.176 166.199C670.64 167.149 671.884 168.416 672.818 169.911L699.505 165.055L706.343 180.933L668.563 187.249C666.005 188.69 663.02 189.12 660.173 188.458C657.326 187.796 654.815 186.089 653.116 183.659C651.417 181.229 650.648 178.245 650.955 175.274C651.261 172.302 652.622 169.549 654.779 167.536V167.536Z" fill="#FFB6B6"/>
<path d="M679.487 187.81L707.308 187.455L710.829 187.407L767.432 186.677C767.432 186.677 782.803 171.668 796.187 156.215L794.311 142.328C792.481 128.698 785.875 116.214 775.723 107.197C756.554 120.307 745.437 146.257 745.437 146.257L710.341 154.848L706.83 155.707L685.023 161.041L679.487 187.81Z" fill="#0688FF"/>
<path d="M821.905 273.17H769.974C769.974 275.448 713.206 277.296 713.206 277.296C711.954 278.261 710.813 279.368 709.804 280.597C706.774 284.296 705.117 288.972 705.127 293.799V297.1C705.129 302.57 707.254 307.816 711.033 311.685C714.812 315.553 719.938 317.727 725.283 317.729H821.905C827.249 317.724 832.373 315.549 836.152 311.681C839.931 307.814 842.056 302.57 842.06 297.1V293.799C842.053 288.33 839.927 283.088 836.149 279.221C832.371 275.354 827.248 273.178 821.905 273.17V273.17Z" fill="#E4E4E4"/>
<path d="M784.141 316.909H763.179V440.744H784.141V316.909Z" fill="#E4E4E4"/>
<path d="M703.52 439.99C703.52 442.308 735.283 440.887 774.466 440.887C813.649 440.887 845.413 442.308 845.413 439.99C845.413 437.672 813.649 419.289 774.466 419.289C735.283 419.289 703.52 437.672 703.52 439.99Z" fill="#E4E4E4"/>
<path d="M689.439 425.841L673.838 425.84L666.417 364.252L689.441 364.253L689.439 425.841Z" fill="#FFB6B6"/>
<path d="M693.417 441.318L643.115 441.316V440.665C643.115 435.35 645.178 430.253 648.85 426.495C652.522 422.737 657.501 420.626 662.694 420.626H662.695L693.418 420.627L693.417 441.318Z" fill="#506578"/>
<path d="M643.331 425.841L627.73 425.84L620.309 364.252L643.333 364.253L643.331 425.841Z" fill="#FFB6B6"/>
<path d="M647.309 441.318L597.007 441.316V440.665C597.007 435.35 599.07 430.253 602.742 426.495C606.414 422.737 611.393 420.626 616.586 420.626H616.587L647.31 420.627L647.309 441.318Z" fill="#506578"/>
<path d="M783.075 71.2766C798.056 71.2766 810.2 58.847 810.2 43.5143C810.2 28.1817 798.056 15.7521 783.075 15.7521C768.095 15.7521 755.95 28.1817 755.95 43.5143C755.95 58.847 768.095 71.2766 783.075 71.2766Z" fill="#FFB6B6"/>
<path d="M826.976 233.731C826.976 233.731 836.077 282.987 801.449 289.26C766.82 295.532 716.833 299.941 716.833 299.941L694.386 407.134L664.228 404.378C664.228 404.378 668.239 275.341 678.102 265.246C687.966 255.151 750.307 224.923 750.307 224.923L826.976 233.731Z" fill="#506578"/>
<path d="M759.344 213.087L744.199 228.637C744.199 228.637 634.845 246.665 630.626 272.516C624.257 311.545 616.734 396.416 616.734 396.416L649.612 393.892L662.505 297.417L715.111 285.169L774.962 251.786L759.344 213.087Z" fill="#506578"/>
<path d="M809.177 26.9423C806.499 21.7717 803.097 11.4665 797.693 9.55533C794.691 8.53677 791.589 7.86042 788.443 7.53857L779.257 11.1547L784.257 7.17496C783.283 7.11561 782.31 7.06708 781.338 7.0294L775.14 9.46924L778.311 6.94497C772.533 6.88427 766.568 7.49921 762.091 11.0995C758.274 14.1687 754.492 25.7956 753.881 30.724C753.227 35.4388 753.456 40.2377 754.555 44.8649L756.125 46.3925C756.674 45.104 757.087 43.759 757.356 42.3805C757.919 39.8049 759 37.3776 760.53 35.2531C762.06 33.1287 764.005 31.3538 766.242 30.0415L766.328 29.9922C768.96 28.4758 772.155 28.5457 775.174 28.6569L789.512 29.1849C792.961 29.312 796.676 29.5354 799.365 31.7501C801.074 33.3838 802.418 35.3765 803.305 37.5915C804.641 40.3521 807.253 50.7642 807.253 50.7642C807.253 50.7642 808.73 48.7988 809.438 50.2616C810.574 46.445 811.264 42.5041 811.495 38.5214C811.721 34.5209 810.922 30.5295 809.177 26.9423V26.9423Z" fill="#506578"/>
<path d="M904.047 55.7062C902.317 55.8228 900.633 56.3263 899.113 57.1812C897.593 58.0361 896.275 59.2216 895.252 60.6542C894.228 62.0869 893.524 63.7318 893.189 65.473C892.854 67.2143 892.896 69.0097 893.312 70.7326L871.5 87.2006L878.044 103.208L908.528 79.5094C911.31 78.6022 913.67 76.6822 915.161 74.1131C916.652 71.5441 917.17 68.5046 916.618 65.5705C916.065 62.6365 914.48 60.0117 912.164 58.1937C909.847 56.3756 906.959 55.4905 904.047 55.7062V55.7062Z" fill="#FFB6B6"/>
<path d="M900.537 89.3257L845.855 151.483C845.855 151.483 819.705 142.915 799.482 133.626L790.396 105.065C788.287 98.4396 787.386 91.4731 787.74 84.5139C815.776 76.8783 848.385 105.289 848.385 105.289L889.316 72.4741L900.537 89.3257Z" fill="#0688FF"/>
<path d="M772.944 238.321C763.188 234.872 753.1 231.306 742.219 229.967L741.752 229.909L741.881 229.446C753.145 188.968 750.333 163.075 744.814 124.18C743.64 115.79 745.148 107.237 749.114 99.7964C753.079 92.3562 759.289 86.428 766.817 82.8966L766.884 82.8657L797.96 80.8445L798.031 80.8401L820.633 87.6437C823.884 88.6297 826.73 90.6795 828.734 93.4791C830.738 96.2787 831.791 99.6736 831.729 103.144C831.485 115.935 832.004 130.217 832.554 145.336C833.787 179.256 835.062 214.33 827.825 237.088L827.787 237.207L827.691 237.284C821.038 242.83 812.703 245.827 804.123 245.758C793.978 245.758 783.625 242.098 772.944 238.321Z" fill="#0688FF"/>
<path d="M998.555 444H1.44509C1.06183 444 0.694269 443.844 0.423263 443.567C0.152257 443.289 0 442.913 0 442.521C0 442.129 0.152257 441.753 0.423263 441.475C0.694269 441.198 1.06183 441.042 1.44509 441.042H998.555C998.938 441.042 999.306 441.198 999.577 441.475C999.848 441.753 1000 442.129 1000 442.521C1000 442.913 999.848 443.289 999.577 443.567C999.306 443.844 998.938 444 998.555 444Z" fill="#CCCCCC"/>
</g>
<defs>
<clipPath id="clip0_304_40">
<rect width="1000" height="444" fill="white"/>
</clipPath>
</defs>
</svg>
