<svg width="1280" height="549" viewBox="0 0 1280 549" fill="none" xmlns="http://www.w3.org/2000/svg">
<g clip-path="url(#clip0_304_94)">
<path d="M280.952 306.274C280.963 304.589 280.628 302.92 279.967 301.37C279.305 299.821 278.332 298.425 277.107 297.269C275.883 296.113 274.433 295.222 272.85 294.653C271.266 294.083 269.582 293.846 267.903 293.957C266.224 294.068 264.585 294.525 263.09 295.298C261.595 296.072 260.275 297.145 259.213 298.452C258.151 299.76 257.37 301.272 256.917 302.895C256.465 304.518 256.352 306.217 256.585 307.886L221.412 354.008C219.911 357.014 219.329 360.396 219.739 363.731C220.149 367.067 221.533 370.207 223.717 372.758L226.476 375.981L239.136 373.446L253.484 360.769L251.796 346.402L269.52 318.513L269.497 318.493C272.599 318.295 275.51 316.922 277.638 314.652C279.765 312.383 280.95 309.387 280.952 306.274V306.274Z" fill="#FFB9B9"/>
<path d="M37.7176 531.76L31.9761 510.407L111.492 478.073L119.965 509.586L37.7176 531.76Z" fill="#FFB8B8"/>
<path d="M18.5118 542.778L0 473.93L0.869638 473.696C7.96715 471.782 15.533 472.771 21.903 476.443C28.2729 480.115 32.9254 486.17 34.8369 493.277L34.8374 493.279L46.1436 535.328L18.5118 542.778Z" fill="#506578"/>
<path d="M147.247 528.347L129.388 515.343L170.985 440.176L197.344 459.369L147.247 528.347Z" fill="#FFB8B8"/>
<path d="M139.213 549L81.626 507.065L82.1557 506.336C86.4789 500.384 92.9862 496.395 100.246 495.246C107.507 494.098 114.925 495.885 120.87 500.213L120.871 500.214L156.043 525.826L139.213 549Z" fill="#506578"/>
<path d="M299.059 423.308L254.117 379.591C250.195 375.776 245.029 373.507 239.569 373.202C234.109 372.896 228.723 374.575 224.401 377.929L139.544 472.325L147.14 484.157L228.163 429.224L283.023 501.059L335.351 474.861L299.059 423.308Z" fill="#506578"/>
<path d="M279.647 432.604L246.731 430.069L222.894 424.282C221.547 422.179 219.591 420.538 217.288 419.578C214.984 418.619 212.442 418.387 210.003 418.913C207.564 419.44 205.344 420.7 203.64 422.525C201.936 424.351 200.83 426.653 200.469 429.125C200.108 431.597 200.51 434.121 201.621 436.358C202.732 438.595 204.499 440.439 206.685 441.643C208.872 442.847 211.373 443.353 213.855 443.094C216.336 442.835 218.68 441.823 220.571 440.193L220.568 440.21L234.916 446.126L296.527 467.254L304.123 461.338L279.647 432.604Z" fill="#FFB9B9"/>
<path d="M358.983 523.878L340.415 535.71H318.471L216.348 497.679L66.9603 524.723L62.7405 492.608L199.468 432.605L319.316 472.325L358.983 523.878Z" fill="#506578"/>
<path d="M319.315 318.513C337.494 318.513 352.231 303.756 352.231 285.553C352.231 267.35 337.494 252.593 319.315 252.593C301.136 252.593 286.399 267.35 286.399 285.553C286.399 303.756 301.136 318.513 319.315 318.513Z" fill="#FFB9B9"/>
<path d="M404.483 417.147C404.483 437.039 401.353 456.806 395.208 475.722L392.743 483.312L380.927 537.399L368.267 540.78L358.983 528.948L340.415 515.426L326.911 493.453L315.332 474.134L311.719 468.099L299.059 404.715L250.952 377.671L234.916 375.136L238.292 365.84L252.64 346.402L266.988 344.712L271.208 341.331L274.584 343.021L293.194 350.2L353.531 324.674L362.359 326.119L392.743 351.473C400.51 372.495 404.486 394.732 404.483 417.147V417.147Z" fill="#CCCCCC"/>
<path opacity="0.1" d="M395.274 409.786L363.203 430.914L315.332 474.133L311.72 468.1L301.591 417.392H304.124L330.288 369.221L395.274 409.786Z" fill="black"/>
<path d="M330.288 364.15L304.124 412.321L288.932 429.224L275.428 432.605L311.72 472.325L363.203 425.843L395.274 404.715L330.288 364.15Z" fill="#CCCCCC"/>
<path d="M293.714 261.046L290.147 262.42C289.606 262.053 289.142 261.583 288.782 261.036C288.422 260.49 288.173 259.878 288.05 259.235C287.926 258.592 287.93 257.931 288.062 257.29C288.193 256.648 288.449 256.039 288.816 255.497C288.835 255.469 288.855 255.44 288.874 255.412L282.284 255.104C286.515 249.461 291.894 244.783 298.065 241.378C304.236 237.974 311.059 235.92 318.083 235.353C325.106 234.786 332.169 235.719 338.806 238.09C345.442 240.461 351.5 244.217 356.578 249.107C356.878 248.072 360.149 250.086 361.485 252.127C361.933 250.443 365 258.583 366.085 264.337C366.587 262.421 368.518 265.514 366.827 268.482C367.898 268.325 368.383 271.071 367.553 272.601C368.726 272.049 368.528 275.327 367.256 277.518C368.93 277.369 367.114 311.879 342.003 309.364C340.255 301.321 340.747 301.821 338.689 291.479C337.731 290.46 336.681 289.533 335.634 288.607L329.968 283.599C323.38 277.776 317.387 270.589 308.61 268.413C302.579 266.917 298.765 266.579 302.052 259.774C299.082 261.015 296.309 262.86 293.313 264.013C293.353 263.062 293.772 261.998 293.714 261.046Z" fill="#506578"/>
<path d="M335.773 295.272C339.036 295.272 341.681 292.623 341.681 289.356C341.681 286.089 339.036 283.44 335.773 283.44C332.51 283.44 329.865 286.089 329.865 289.356C329.865 292.623 332.51 295.272 335.773 295.272Z" fill="#FFB9B9"/>
<path d="M60.2629 149.636L58.46 176.745L85.5323 178.55L87.3352 151.442L60.2629 149.636Z" fill="#E6E6E6"/>
<path d="M42.7957 164.031L75.6692 166.223L73.4799 199.14L40.6064 196.948L42.7957 164.031ZM74.1447 167.559L44.1298 165.557L42.1309 195.612L72.1458 197.614L74.1447 167.559Z" fill="#CCCCCC"/>
<path d="M213.253 69.2518L186.726 74.9592L192.426 101.521L218.953 95.8139L213.253 69.2518Z" fill="#E6E6E6"/>
<path d="M194.634 56.3861L201.555 88.6401L169.344 95.5706L162.423 63.3165L194.634 56.3861ZM199.854 87.5391L193.534 58.0898L164.124 64.4176L170.444 93.8669L199.854 87.5391Z" fill="#CCCCCC"/>
<path d="M185.379 196.813L165.577 215.386L184.125 235.214L203.927 216.641L185.379 196.813Z" fill="#E6E6E6"/>
<path d="M205.351 194.034L181.306 216.587L158.783 192.51L182.829 169.957L205.351 194.034ZM181.372 214.56L203.327 193.968L182.762 171.984L160.808 192.576L181.372 214.56Z" fill="#CCCCCC"/>
<path d="M1209.43 0H406.661C403.76 -3.30197e-06 400.886 0.572274 398.206 1.68416C395.525 2.79604 393.089 4.42575 391.037 6.48024C388.986 8.53474 387.358 10.9738 386.248 13.6581C385.137 16.3424 384.566 19.2195 384.566 22.125V470.009C384.566 472.914 385.137 475.791 386.248 478.476C387.358 481.16 388.986 483.599 391.037 485.654C393.089 487.708 395.525 489.338 398.206 490.45C400.886 491.562 403.76 492.134 406.661 492.134H1209.43C1215.29 492.134 1220.91 489.803 1225.05 485.654C1229.2 481.504 1231.53 475.877 1231.53 470.009V22.125C1231.53 16.2571 1229.2 10.6295 1225.05 6.48026C1220.91 2.33102 1215.29 3.33433e-06 1209.43 0V0Z" fill="#506578"/>
<path d="M1201.9 39.101H414.189V484.044H1201.9V39.101Z" fill="white"/>
<path d="M807.372 26.9662C811.834 26.9662 815.451 23.3443 815.451 18.8764C815.451 14.4085 811.834 10.7865 807.372 10.7865C802.91 10.7865 799.293 14.4085 799.293 18.8764C799.293 23.3443 802.91 26.9662 807.372 26.9662Z" fill="white"/>
<path d="M1146.17 65.729H1115.42V96.5202H1146.17V65.729Z" fill="#8F6EFF"/>
<path d="M1160.45 110.816H1123.11V73.4267H1160.45V110.816ZM1124.73 109.191H1158.82V75.0524H1124.73L1124.73 109.191Z" fill="#CCCCCC"/>
<path d="M1253.64 475.954H1176.77V470.408C1176.77 470.263 1176.74 470.12 1176.68 469.987C1176.63 469.854 1176.55 469.732 1176.45 469.63C1176.34 469.528 1176.22 469.447 1176.09 469.392C1175.96 469.337 1175.81 469.308 1175.67 469.308H1149.31C1149.17 469.308 1149.02 469.337 1148.89 469.392C1148.76 469.447 1148.64 469.528 1148.53 469.63C1148.43 469.732 1148.35 469.854 1148.3 469.987C1148.24 470.12 1148.21 470.263 1148.21 470.408V475.954H1131.74V470.408C1131.74 470.263 1131.71 470.12 1131.66 469.987C1131.6 469.854 1131.52 469.732 1131.42 469.63C1131.32 469.528 1131.2 469.447 1131.06 469.392C1130.93 469.337 1130.79 469.308 1130.64 469.308H1104.28C1104.14 469.308 1104 469.337 1103.86 469.392C1103.73 469.447 1103.61 469.528 1103.51 469.63C1103.41 469.732 1103.32 469.854 1103.27 469.987C1103.21 470.12 1103.19 470.263 1103.19 470.408V470.408V475.954H1086.71V470.408C1086.71 470.263 1086.68 470.12 1086.63 469.987C1086.57 469.854 1086.49 469.732 1086.39 469.63C1086.29 469.528 1086.17 469.447 1086.03 469.392C1085.9 469.337 1085.76 469.308 1085.61 469.308H1059.26C1059.11 469.308 1058.97 469.337 1058.84 469.392C1058.7 469.447 1058.58 469.528 1058.48 469.63C1058.38 469.732 1058.3 469.854 1058.24 469.987C1058.19 470.12 1058.16 470.263 1058.16 470.408V470.408V475.954H1041.69V470.408C1041.69 470.263 1041.66 470.12 1041.6 469.987C1041.55 469.854 1041.47 469.732 1041.36 469.63C1041.26 469.528 1041.14 469.447 1041.01 469.392C1040.87 469.337 1040.73 469.308 1040.59 469.308H1014.23C1014.09 469.308 1013.94 469.337 1013.81 469.392C1013.68 469.447 1013.56 469.528 1013.45 469.63C1013.35 469.732 1013.27 469.854 1013.22 469.987C1013.16 470.12 1013.13 470.263 1013.13 470.408V475.954H996.658V470.408C996.658 470.263 996.63 470.12 996.575 469.987C996.52 469.854 996.439 469.732 996.337 469.63C996.235 469.528 996.114 469.447 995.98 469.392C995.847 469.337 995.704 469.308 995.56 469.308H969.203C969.059 469.308 968.916 469.337 968.782 469.392C968.649 469.447 968.528 469.528 968.426 469.63C968.324 469.732 968.243 469.854 968.188 469.987C968.133 470.12 968.105 470.263 968.105 470.408V470.408V475.954H951.631V470.408C951.631 470.263 951.603 470.12 951.548 469.987C951.492 469.854 951.411 469.732 951.31 469.63C951.208 469.528 951.086 469.447 950.953 469.392C950.82 469.337 950.677 469.308 950.533 469.308H924.176C924.031 469.308 923.889 469.337 923.755 469.392C923.622 469.447 923.501 469.528 923.399 469.63C923.297 469.732 923.216 469.854 923.161 469.987C923.106 470.12 923.077 470.263 923.077 470.408V470.408V475.954H906.604V470.408C906.604 470.263 906.576 470.12 906.52 469.987C906.465 469.854 906.384 469.732 906.282 469.63C906.18 469.528 906.059 469.447 905.926 469.392C905.793 469.337 905.65 469.308 905.506 469.308H699.04C698.896 469.308 698.753 469.337 698.619 469.392C698.486 469.447 698.365 469.528 698.263 469.63C698.161 469.732 698.08 469.854 698.025 469.987C697.97 470.12 697.942 470.263 697.942 470.408V470.408V475.954H681.468V470.408C681.468 470.263 681.44 470.12 681.385 469.987C681.329 469.854 681.248 469.732 681.146 469.63C681.045 469.528 680.923 469.447 680.79 469.392C680.657 469.337 680.514 469.308 680.37 469.308H654.013C653.868 469.308 653.726 469.337 653.592 469.392C653.459 469.447 653.338 469.528 653.236 469.63C653.134 469.732 653.053 469.854 652.998 469.987C652.943 470.12 652.914 470.263 652.914 470.408V470.408V475.954H636.441V470.408C636.441 470.263 636.413 470.12 636.357 469.987C636.302 469.854 636.221 469.732 636.119 469.63C636.017 469.528 635.896 469.447 635.763 469.392C635.63 469.337 635.487 469.308 635.343 469.308H608.985C608.841 469.308 608.698 469.337 608.565 469.392C608.432 469.447 608.311 469.528 608.209 469.63C608.107 469.732 608.026 469.854 607.971 469.987C607.916 470.12 607.887 470.263 607.887 470.408V470.408V475.954H591.414V470.408C591.414 470.263 591.385 470.12 591.33 469.987C591.275 469.854 591.194 469.732 591.092 469.63C590.99 469.528 590.869 469.447 590.736 469.392C590.603 469.337 590.46 469.308 590.316 469.308H563.958C563.814 469.308 563.671 469.337 563.538 469.392C563.405 469.447 563.284 469.528 563.182 469.63C563.08 469.732 562.999 469.854 562.944 469.987C562.888 470.12 562.86 470.263 562.86 470.408V470.408V475.954H546.387V470.408C546.387 470.263 546.358 470.12 546.303 469.987C546.248 469.854 546.167 469.732 546.065 469.63C545.963 469.528 545.842 469.447 545.709 469.392C545.576 469.337 545.433 469.308 545.288 469.308H518.931C518.787 469.308 518.644 469.337 518.511 469.392C518.378 469.447 518.257 469.528 518.155 469.63C518.053 469.732 517.972 469.854 517.916 469.987C517.861 470.12 517.833 470.263 517.833 470.408V470.408V475.954H501.359V470.408C501.359 470.263 501.331 470.12 501.276 469.987C501.221 469.854 501.14 469.732 501.038 469.63C500.936 469.528 500.815 469.447 500.682 469.392C500.548 469.337 500.405 469.308 500.261 469.308H473.904C473.613 469.308 473.333 469.424 473.127 469.63C472.921 469.836 472.806 470.116 472.806 470.408V475.954H456.332V470.408C456.332 470.263 456.304 470.12 456.249 469.987C456.194 469.854 456.113 469.732 456.011 469.63C455.909 469.528 455.788 469.447 455.654 469.392C455.521 469.337 455.378 469.308 455.234 469.308H428.877C428.585 469.308 428.306 469.424 428.1 469.63C427.894 469.837 427.779 470.116 427.779 470.408V475.954H377.26C370.27 475.954 363.566 478.735 358.623 483.684C353.68 488.634 350.903 495.347 350.903 502.347V514.281C350.903 521.28 353.68 527.993 358.623 532.943C363.566 537.892 370.27 540.673 377.26 540.673H1253.64C1260.63 540.673 1267.34 537.892 1272.28 532.943C1277.22 527.993 1280 521.28 1280 514.281V502.347C1280 498.881 1279.32 495.449 1277.99 492.247C1276.67 489.045 1274.73 486.135 1272.28 483.684C1269.83 481.234 1266.93 479.29 1263.73 477.963C1260.53 476.637 1257.1 475.954 1253.64 475.954V475.954Z" fill="#506578"/>
</g>
<defs>
<clipPath id="clip0_304_94">
<rect width="1280" height="549" fill="white"/>
</clipPath>
</defs>
</svg>
