<svg width="528" height="38" viewBox="0 0 528 38" fill="none" xmlns="http://www.w3.org/2000/svg">
<path d="M526.768 20.7678C527.744 19.7915 527.744 18.2085 526.768 17.2322L510.858 1.32233C509.882 0.34602 508.299 0.34602 507.322 1.32233C506.346 2.29864 506.346 3.88155 507.322 4.85786L521.464 19L507.322 33.1421C506.346 34.1184 506.346 35.7014 507.322 36.6777C508.299 37.654 509.882 37.654 510.858 36.6777L526.768 20.7678ZM0 21.5L252.145 21.5V16.5L0 16.5L0 21.5ZM252.145 21.5L525 21.5V16.5L252.145 16.5V21.5Z" fill="url(#paint0_linear_304_852)"/>
<defs>
<linearGradient id="paint0_linear_304_852" x1="125.296" y1="19.0143" x2="378.994" y2="19.0143" gradientUnits="userSpaceOnUse">
<stop stop-color="#0688FF"/>
<stop offset="1" stop-color="#8F6EFF"/>
</linearGradient>
</defs>
</svg>
