<svg width="167" height="165" viewBox="0 0 167 165" fill="none" xmlns="http://www.w3.org/2000/svg">
<path d="M83.6256 164.926C129.195 164.926 166.137 128.006 166.137 82.4629C166.137 36.9199 129.195 0 83.6256 0C38.0561 0 1.11469 36.9199 1.11469 82.4629C1.11469 128.006 38.0561 164.926 83.6256 164.926Z" fill="#506578"/>
<path d="M130.552 57.5491L105.846 82.6691C105.803 82.7107 105.768 82.7606 105.745 82.8159C105.721 82.8712 105.709 82.9307 105.709 82.9908C105.709 83.051 105.721 83.1104 105.745 83.1657C105.768 83.221 105.803 83.271 105.846 83.3125L123.18 101.734C123.595 102.151 123.877 102.682 123.991 103.259C124.105 103.837 124.046 104.435 123.821 104.978C123.596 105.522 123.216 105.987 122.727 106.316C122.239 106.644 121.664 106.821 121.076 106.824C120.283 106.822 119.524 106.508 118.962 105.949L101.719 87.5941C101.631 87.5074 101.512 87.4589 101.389 87.4589C101.265 87.4589 101.147 87.5074 101.059 87.5941L96.8571 91.8344C95.1369 93.5925 93.0824 94.9894 90.8144 95.9428C88.5464 96.8962 86.1105 97.387 83.6501 97.3863C81.143 97.3747 78.6634 96.8639 76.3561 95.8838C74.0488 94.9036 71.9601 93.4737 70.2119 91.6776L66.1755 87.5528C66.0875 87.4662 65.9689 87.4176 65.8453 87.4176C65.7217 87.4176 65.6032 87.4662 65.5152 87.5528L48.313 105.867C48.0362 106.144 47.7074 106.364 47.3456 106.514C46.9837 106.664 46.5958 106.741 46.204 106.741C45.8122 106.741 45.4243 106.664 45.0624 106.514C44.7005 106.364 44.3718 106.144 44.095 105.867C43.8167 105.591 43.5958 105.262 43.4451 104.901C43.2944 104.539 43.2168 104.151 43.2168 103.759C43.2168 103.367 43.2944 102.979 43.4451 102.618C43.5958 102.256 43.8167 101.927 44.095 101.651L61.3632 83.2713C61.4399 83.1817 61.4821 83.0675 61.4821 82.9496C61.4821 82.8316 61.4399 82.7175 61.3632 82.6279L36.6578 57.5079C36.5943 57.444 36.5132 57.4005 36.4249 57.3829C36.3366 57.3652 36.245 57.3742 36.1619 57.4087C36.0787 57.4432 36.0076 57.5016 35.9578 57.5765C35.9079 57.6515 35.8815 57.7396 35.8818 57.8296V108.094C35.8884 110.037 36.6636 111.899 38.0383 113.273C39.4131 114.647 41.2758 115.422 43.22 115.428H124.006C125.95 115.422 127.813 114.647 129.188 113.273C130.562 111.899 131.337 110.037 131.344 108.094V57.8708C131.348 57.7773 131.323 57.6847 131.273 57.6059C131.222 57.5271 131.148 57.4659 131.061 57.4307C130.975 57.3954 130.879 57.3879 130.788 57.4091C130.696 57.4303 130.614 57.4792 130.552 57.5491V57.5491Z" fill="#8F6EFF"/>
<path d="M83.6255 91.422C85.3001 91.4385 86.961 91.1183 88.5095 90.4806C90.0579 89.8428 91.4623 88.9006 92.6392 87.7097L128.62 51.1063C127.343 50.0489 125.739 49.4659 124.08 49.4564H43.2367C41.5774 49.4618 39.972 50.0453 38.6968 51.1063L74.6859 87.7097C75.8524 88.8938 77.2444 89.8324 78.7798 90.47C80.3152 91.1076 81.9628 91.4313 83.6255 91.422V91.422Z" fill="#8F6EFF"/>
<path opacity="0.1" d="M82.5853 0.00831109C66.2561 0.000153306 50.2913 4.83257 36.7107 13.8942C23.1301 22.9558 12.5439 35.8395 6.29122 50.9153C0.0385452 65.9912 -1.59958 82.5817 1.58409 98.5882C4.76775 114.595 12.6301 129.298 24.1766 140.838C35.7231 152.377 50.4348 160.235 66.4506 163.417C82.4664 166.599 99.0666 164.962 114.151 158.713C129.236 152.463 142.127 141.883 151.194 128.311C160.261 114.738 165.096 98.7826 165.088 82.4629C165.077 60.598 156.381 39.6317 140.911 24.1708C125.442 8.70991 104.463 0.0192408 82.5853 0.00831109ZM82.5853 153.962C68.4358 153.962 54.6041 149.769 42.8393 141.912C31.0744 134.056 21.9049 122.889 16.4901 109.824C11.0754 96.7597 9.65864 82.3836 12.4191 68.5141C15.1795 54.6446 21.993 41.9047 31.9982 31.9054C42.0034 21.906 54.7507 15.0964 68.6283 12.3376C82.5059 9.57879 96.8904 10.9947 109.963 16.4063C123.035 21.8179 134.208 30.9821 142.069 42.7401C149.93 54.4981 154.126 68.3217 154.126 82.4629C154.126 101.426 146.589 119.612 133.172 133.02C119.756 146.429 101.559 153.962 82.5853 153.962Z" fill="black"/>
</svg>
