<svg width="166" height="166" viewBox="0 0 166 166" fill="none" xmlns="http://www.w3.org/2000/svg">
<path d="M83.0373 165.829C128.856 165.829 166 128.707 166 82.9142C166 37.122 128.856 0 83.0373 0C37.2184 0 0.0747681 37.122 0.0747681 82.9142C0.0747681 128.707 37.2184 165.829 83.0373 165.829Z" fill="#506578"/>
<path d="M118.651 104.298C115.763 101.412 108.816 97.0568 105.371 95.4311C101.396 93.5233 99.9352 93.5565 97.1217 95.5887C94.7812 97.2476 93.2623 98.8485 90.5733 98.2596C87.8842 97.6706 82.5559 93.656 77.4019 88.5216C72.2478 83.3871 68.2474 78.095 67.6747 75.3661C67.102 72.6371 68.679 71.1523 70.3555 68.8132C72.3806 66.0013 72.4387 64.5414 70.5132 60.5683C68.8533 57.1259 64.5458 50.1998 61.6326 47.2967C58.7195 44.3935 58.0887 45.0322 56.4952 45.6377C54.8552 46.3248 53.2803 47.1576 51.7894 48.1261C48.9011 50.0588 47.2827 51.668 46.1457 54.0901C45.0086 56.5121 43.7222 61.0079 50.3369 72.7781C55.2166 81.7824 61.397 90.019 68.679 97.2227V97.2227C75.9115 104.517 84.1811 110.705 93.2208 115.587C104.99 122.223 109.496 120.904 111.92 119.776C114.343 118.648 115.953 117.047 117.879 114.136C118.85 112.647 119.683 111.073 120.369 109.433C120.917 107.84 121.564 107.193 118.651 104.298Z" fill="#8F6EFF"/>
<path opacity="0.1" d="M83.0373 0.00831115C66.6188 0.000108709 50.5667 4.85897 36.9117 13.9702C23.2568 23.0814 12.6126 36.0356 6.32566 51.194C0.0387559 66.3523 -1.60833 83.0337 1.59276 99.1278C4.79385 115.222 12.6993 130.006 24.309 141.608C35.9186 153.211 50.7109 161.112 66.8143 164.311C82.9178 167.511 99.6089 165.864 114.776 159.581C129.943 153.298 142.905 142.66 152.022 129.013C161.138 115.366 166 99.3233 165.992 82.9143C165.981 60.9296 157.237 39.8486 141.683 24.3031C126.128 8.75756 105.035 0.0193007 83.0373 0.00831115V0.00831115ZM83.0373 154.805C68.8104 154.805 54.903 150.588 43.0738 142.689C31.2446 134.79 22.0248 123.562 16.5804 110.426C11.136 97.2893 9.71149 82.8345 12.487 68.8891C15.2626 54.9437 22.1135 42.1341 32.1734 32.08C42.2333 22.0259 55.0505 15.179 69.004 12.4051C82.9576 9.63118 97.4207 11.0549 110.565 16.4961C123.709 21.9373 134.943 31.1517 142.847 42.974C150.751 54.7964 154.97 68.6957 154.97 82.9143C154.97 92.3551 153.109 101.703 149.494 110.426C145.879 119.148 140.581 127.073 133.901 133.749C127.222 140.424 119.292 145.72 110.565 149.332C101.837 152.945 92.4836 154.805 83.0373 154.805Z" fill="black"/>
</svg>
