<svg width="414" height="413" viewBox="0 0 414 413" fill="none" xmlns="http://www.w3.org/2000/svg">
<path opacity="0.996" fill-rule="evenodd" clip-rule="evenodd" d="M222.355 0C237.355 0 252.355 0 267.355 0C323.389 5.60365 371.889 27.6036 412.855 66C413.522 68.6667 413.522 71.3333 412.855 74C300.022 186.833 187.188 299.667 74.3551 412.5C71.6884 413.167 69.0218 413.167 66.3551 412.5C17.0965 358.732 -4.73677 295.232 0.855124 222C10.1146 143.609 47.2813 82.4428 112.355 38.5C146.124 17.1891 182.791 4.35572 222.355 0Z" fill="#102A42"/>
<path fill-rule="evenodd" clip-rule="evenodd" d="M133.355 75.0001C137.371 74.4 140.871 75.4 143.855 78.0001C146.099 84.73 147.932 91.5633 149.355 98.5001C148.879 104.748 145.545 107.081 139.355 105.5C137.855 104.667 136.688 103.5 135.855 102C132.709 94.2498 131.042 86.2498 130.855 78.0001C131.9 77.1267 132.733 76.1267 133.355 75.0001Z" fill="white"/>
<path fill-rule="evenodd" clip-rule="evenodd" d="M174.355 75.0001C177.504 74.7115 180.504 75.2115 183.355 76.5001C184.835 77.7992 185.501 79.4659 185.355 81.5001C183.864 88.8066 181.864 95.9732 179.355 103C175.756 106.492 171.923 106.825 167.855 104C166.897 102.301 166.397 100.468 166.355 98.5001C167.58 90.0637 170.247 82.2304 174.355 75.0001Z" fill="white"/>
<path fill-rule="evenodd" clip-rule="evenodd" d="M99.3551 95C102.748 94.5617 105.748 95.3951 108.355 97.5C112.188 101.333 116.022 105.167 119.855 109C124.415 117.436 121.915 121.603 112.355 121.5C104.996 116.319 99.3301 109.819 95.3551 102C95.8291 99.1887 97.1621 96.8554 99.3551 95Z" fill="white"/>
<path fill-rule="evenodd" clip-rule="evenodd" d="M210.355 94.9999C217.51 94.6526 220.676 97.9859 219.855 105C215.022 111.167 209.522 116.667 203.355 121.5C196.188 122.333 193.022 119.167 193.855 112C198.886 105.803 204.386 100.136 210.355 94.9999Z" fill="white"/>
<path fill-rule="evenodd" clip-rule="evenodd" d="M149.355 111C176.903 109.353 194.736 121.686 202.855 148C206.165 174.562 195.332 192.395 170.355 201.5C149.955 206.018 133.122 200.184 119.855 184C105.581 159.87 109.081 138.704 130.355 120.5C136.233 116.227 142.567 113.061 149.355 111Z" fill="white"/>
<path fill-rule="evenodd" clip-rule="evenodd" d="M78.355 130C87.6109 131.028 96.611 133.195 105.355 136.5C109.371 143.589 107.371 147.756 99.355 149C92.2412 147.638 85.2412 145.805 78.355 143.5C74.3852 138.93 74.3852 134.43 78.355 130Z" fill="white"/>
<path fill-rule="evenodd" clip-rule="evenodd" d="M228.355 130C239.156 128.612 242.489 132.779 238.355 142.5C230.827 145.132 223.161 147.299 215.355 149C209.123 147.883 206.957 144.217 208.855 138C209.688 137.167 210.522 136.333 211.355 135.5C217.228 133.93 222.895 132.097 228.355 130Z" fill="white"/>
<path fill-rule="evenodd" clip-rule="evenodd" d="M97.355 166C104.51 165.653 107.676 168.986 106.855 176C105.688 177.167 104.522 178.333 103.355 179.5C95.483 181.923 87.483 183.256 79.355 183.5C74.129 179.085 74.129 174.751 79.355 170.5C85.5493 169.258 91.5493 167.758 97.355 166Z" fill="white"/>
<path fill-rule="evenodd" clip-rule="evenodd" d="M212.355 166C220.474 166.743 228.474 168.243 236.355 170.5C240.499 173.22 241.332 176.72 238.855 181C237.261 182.797 235.261 183.797 232.855 184C225.972 182.705 219.139 181.205 212.355 179.5C207.076 175.003 207.076 170.503 212.355 166Z" fill="white"/>
<path fill-rule="evenodd" clip-rule="evenodd" d="M112.355 193C119.84 192.329 123.007 195.663 121.855 203C116.641 208.881 110.808 214.048 104.355 218.5C97.699 218.842 94.866 215.675 95.855 209C101.25 203.436 106.75 198.103 112.355 193Z" fill="white"/>
<path fill-rule="evenodd" clip-rule="evenodd" d="M197.355 193C199.382 192.838 201.382 193.005 203.355 193.5C208.522 198 213.688 202.5 218.855 207C222.079 213.338 220.246 217.338 213.355 219C211.245 218.446 209.245 217.612 207.355 216.5C203.188 212.333 199.022 208.167 194.855 204C192.439 199.578 193.272 195.911 197.355 193Z" fill="white"/>
<path fill-rule="evenodd" clip-rule="evenodd" d="M138.355 208C144.418 206.749 148.084 209.082 149.355 215C147.679 222.037 145.846 229.037 143.855 236C140.469 240.388 136.469 241.055 131.855 238C130.87 236.134 130.37 234.134 130.355 232C131.656 223.431 134.322 215.431 138.355 208Z" fill="white"/>
<path fill-rule="evenodd" clip-rule="evenodd" d="M169.355 208C173.371 207.4 176.871 208.4 179.855 211C182.16 217.886 183.993 224.886 185.355 232C185.186 238.593 181.853 241.093 175.355 239.5C173.855 238.667 172.688 237.5 171.855 236C168.912 227.861 167.245 219.527 166.855 211C167.9 210.127 168.733 209.127 169.355 208Z" fill="white"/>
</svg>
