<svg width="250" height="225" viewBox="0 0 250 225" fill="none" xmlns="http://www.w3.org/2000/svg">
<path d="M153.487 167.211L137.161 182.914V112.627C137.161 109.322 135.848 106.152 133.511 103.815C131.174 101.478 128.004 100.165 124.699 100.165C121.394 100.165 118.224 101.478 115.887 103.815C113.55 106.152 112.237 109.322 112.237 112.627V182.291L96.1608 166.09C94.9989 164.928 93.6195 164.006 92.1013 163.377C90.5831 162.749 88.956 162.425 87.3127 162.425C85.6695 162.425 84.0423 162.749 82.5242 163.377C81.006 164.006 79.6266 164.928 78.4646 166.09C77.3027 167.252 76.381 168.631 75.7521 170.149C75.1233 171.668 74.7996 173.295 74.7996 174.938C74.7996 176.581 75.1233 178.208 75.7521 179.727C76.381 181.245 77.3027 182.624 78.4646 183.786L115.851 221.172C117.015 222.328 118.396 223.241 119.915 223.861C121.433 224.482 123.059 224.796 124.699 224.787C127.908 224.774 130.988 223.524 133.298 221.297L170.684 185.157C172.007 184.066 173.09 182.714 173.866 181.185C174.641 179.656 175.094 177.984 175.194 176.272C175.294 174.561 175.04 172.847 174.447 171.238C173.855 169.629 172.936 168.16 171.75 166.922C170.564 165.684 169.135 164.705 167.553 164.044C165.971 163.384 164.27 163.057 162.555 163.084C160.841 163.111 159.151 163.492 157.591 164.202C156.03 164.912 154.633 165.937 153.487 167.211V167.211Z" fill="white"/>
<path d="M195.359 50.3168C190.274 35.6246 180.736 22.8829 168.071 13.8646C155.407 4.84632 140.246 0 124.699 0C109.152 0 93.9911 4.84632 81.3267 13.8646C68.6622 22.8829 59.1239 35.6246 54.0388 50.3168C42.8422 51.8164 32.2639 56.3317 23.4356 63.3795C14.6072 70.4273 7.86083 79.7426 3.9182 90.3288C-0.0244263 100.915 -1.01501 112.374 1.05243 123.48C3.11986 134.585 8.16752 144.92 15.6555 153.379C16.5599 154.972 17.8046 156.346 19.3007 157.403C20.7969 158.461 22.5077 159.175 24.3115 159.496C26.1153 159.816 27.9675 159.735 29.7364 159.259C31.5053 158.782 33.1473 157.921 34.5455 156.737C35.9437 155.553 37.0637 154.076 37.8258 152.41C38.5878 150.744 38.9731 148.93 38.9543 147.098C38.9355 145.266 38.5131 143.461 37.717 141.811C36.9209 140.161 35.7708 138.707 34.3486 137.552C29.5272 132.161 26.3727 125.488 25.2673 118.341C24.162 111.194 25.1532 103.88 28.121 97.285C31.0888 90.6899 35.9056 85.0972 41.9878 81.1846C48.07 77.272 55.1565 75.2074 62.3884 75.241H63.6346C66.5501 75.2998 69.3939 74.3344 71.6709 72.5127C73.948 70.6911 75.5141 68.1286 76.0968 65.2713C78.385 54.0027 84.4985 43.8716 93.4016 36.5947C102.305 29.3178 113.45 25.3426 124.948 25.3426C136.447 25.3426 147.592 29.3178 156.495 36.5947C165.398 43.8716 171.512 54.0027 173.8 65.2713C174.382 68.1286 175.949 70.6911 178.226 72.5127C180.503 74.3344 183.346 75.2998 186.262 75.241H187.01C194.242 75.2074 201.328 77.272 207.41 81.1846C213.492 85.0972 218.309 90.6899 221.277 97.285C224.245 103.88 225.236 111.194 224.131 118.341C223.025 125.488 219.871 132.161 215.049 137.552C213.952 138.783 213.109 140.219 212.571 141.778C212.033 143.338 211.809 144.988 211.913 146.634C212.018 148.28 212.448 149.889 213.179 151.368C213.91 152.846 214.927 154.165 216.171 155.248C218.443 157.252 221.367 158.359 224.396 158.363C226.165 158.361 227.914 157.982 229.526 157.252C231.137 156.521 232.575 155.456 233.743 154.126C241.438 145.683 246.664 135.285 248.85 124.072C251.035 112.858 250.095 101.26 246.133 90.5442C242.171 79.8287 235.339 70.4087 226.384 63.314C217.43 56.2193 206.697 51.7231 195.359 50.3168V50.3168Z" fill="white"/>
</svg>
