<svg width="414" height="413" viewBox="0 0 414 413" fill="none" xmlns="http://www.w3.org/2000/svg">
<path opacity="0.996" fill-rule="evenodd" clip-rule="evenodd" d="M191 413C176 413 161 413 146 413C90.101 407.098 41.601 385.098 0.500025 347C-0.166675 344.333 -0.166675 341.667 0.500025 339C113.333 226.167 226.167 113.333 339 0.500025C341.667 -0.166675 344.333 -0.166675 347 0.500025C396.259 54.268 418.092 117.768 412.5 191C401.988 276.244 359.822 340.411 286 383.5C256.121 399.518 224.454 409.351 191 413Z" fill="white"/>
<path fill-rule="evenodd" clip-rule="evenodd" d="M220 179C224.819 178.653 227.819 180.82 229 185.5C214.478 218.54 220.145 247.54 246 272.5C270.189 289.572 296.022 292.406 323.5 281C328.347 282.169 330.347 285.169 329.5 290C313.994 321.107 288.661 336.773 253.5 337C210.765 333.938 184.099 311.604 173.5 270C167.873 228.584 183.373 198.25 220 179Z" fill="#102A42"/>
<path fill-rule="evenodd" clip-rule="evenodd" d="M276 184C278.357 183.837 280.69 184.003 283 184.5C288.833 191 294.667 197.5 300.5 204C307.104 202.9 313.771 201.9 320.5 201C328.108 200.272 331.108 203.605 329.5 211C325.531 217.8 321.365 224.466 317 231C320.755 237.509 324.255 244.176 327.5 251C329.049 257.959 326.216 261.626 319 262C311.759 260.652 304.593 258.985 297.5 257C292.012 261.82 286.512 266.654 281 271.5C276.331 275.124 272.164 274.624 268.5 270C267.783 261.276 266.783 252.61 265.5 244C257.906 240.065 250.573 235.732 243.5 231C242.473 227.32 243.306 224.153 246 221.5C253.294 218.569 260.627 215.735 268 213C268.751 212.124 269.251 211.124 269.5 210C269.987 203.647 270.653 197.314 271.5 191C272.438 188.243 273.938 185.91 276 184Z" fill="#102A42"/>
</svg>
